<svg xmlns="http://www.w3.org/2000/svg" width="208" height="96" fill="none"><g clip-path="url(#a)"><path fill="#fff" fill-opacity=".05" d="M182.897 13.532H25.103c-5.15 0-9.324 6.07-9.324 13.56V132.44c0 7.489 4.175 13.56 9.324 13.56h157.794c5.149 0 9.324-6.071 9.324-13.56V27.091c0-7.488-4.175-13.56-9.324-13.56Z"/><path stroke="#fff" stroke-opacity=".1" d="M182.538 14.244H24.745c-4.952 0-8.966 6.232-8.966 13.919v112.464c0 7.688 4.014 13.919 8.966 13.919h157.793c4.951 0 8.965-6.231 8.965-13.919V28.163c0-7.687-4.014-13.92-8.965-13.92Z"/><path fill="#fff" fill-opacity=".2" d="M39.09 29.2c0-3.933-3.212-7.122-7.173-7.122-3.96 0-7.172 3.189-7.172 7.122s3.211 7.122 7.172 7.122c3.962 0 7.173-3.189 7.173-7.122Z"/><path stroke="#fff" stroke-opacity=".1" d="M38.731 29.2c0-3.737-3.05-6.766-6.814-6.766-3.763 0-6.814 3.03-6.814 6.766 0 3.737 3.051 6.766 6.814 6.766 3.764 0 6.814-3.03 6.814-6.766Z"/><path fill="#fff" fill-opacity=".2" d="M164.607 44.868H27.614a2.859 2.859 0 0 0-2.87 2.85 2.859 2.859 0 0 0 2.87 2.848h136.993a2.86 2.86 0 0 0 2.869-2.849 2.86 2.86 0 0 0-2.869-2.849ZM77.103 26.351h-28.69a2.859 2.859 0 0 0-2.868 2.85 2.859 2.859 0 0 0 2.869 2.848h28.69a2.859 2.859 0 0 0 2.868-2.849 2.859 2.859 0 0 0-2.868-2.849ZM98.62 26.351H87.146a2.859 2.859 0 0 0-2.87 2.85 2.859 2.859 0 0 0 2.87 2.848H98.62a2.86 2.86 0 0 0 2.869-2.849 2.86 2.86 0 0 0-2.87-2.849ZM84.276 56.263H27.614a2.859 2.859 0 0 0-2.87 2.85 2.859 2.859 0 0 0 2.87 2.848h56.662a2.859 2.859 0 0 0 2.869-2.849 2.859 2.859 0 0 0-2.87-2.849Z"/></g><defs><clipPath id="a"><path fill="#fff" d="M0 0h208v146H0z"/></clipPath></defs></svg>