<svg xmlns="http://www.w3.org/2000/svg" width="131" height="28" fill="none"><path fill="#fff" d="M10.024 4.3a6.09 6.09 0 0 1 4.817 2.38.245.245 0 0 0 .355.038l2.029-1.616a.252.252 0 0 0 .039-.355A9.234 9.234 0 0 0 9.943 1.15c-5.296 0-9.59 4.563-9.59 10.174s4.308 10.174 9.59 10.174a9.185 9.185 0 0 0 7.317-3.594.246.246 0 0 0-.043-.355l-2.024-1.598a.253.253 0 0 0-.355.04 6.131 6.131 0 0 1-4.813 2.368c-3.62 0-6.451-3.09-6.451-7.028 0-3.938 2.831-7.031 6.45-7.031ZM19.878.57h2.543a.252.252 0 0 1 .252.253v20.164a.249.249 0 0 1-.249.248h-2.543a.252.252 0 0 1-.252-.252V.823a.25.25 0 0 1 .249-.252ZM31.34 7.545c-3.37 0-6.78 2.387-6.78 6.95 0 4.01 2.915 7.035 6.78 7.035s6.81-3.026 6.81-7.035c0-4.01-2.928-6.95-6.81-6.95Zm3.74 6.95c0 2.316-1.609 4.063-3.74 4.063-2.131 0-3.708-1.747-3.708-4.063 0-2.315 1.595-3.977 3.708-3.977 2.113 0 3.74 1.708 3.74 3.977ZM51.857 7.836h-2.544a.249.249 0 0 0-.252.249v6.747c0 2.635-1.818 3.57-3.378 3.57-1.378 0-2.767-1.041-2.767-3.367v-6.95a.249.249 0 0 0-.252-.249h-2.543a.249.249 0 0 0-.249.249v7.28c0 3.995 1.808 6.193 5.094 6.193 1.193 0 3.126-.685 3.85-2.198l.245.05v1.577a.252.252 0 0 0 .252.252h2.544a.252.252 0 0 0 .252-.252V8.085a.247.247 0 0 0-.156-.23.249.249 0 0 0-.096-.019ZM67.475.57H64.93a.25.25 0 0 0-.249.253v9.013l-.156-.249c-.775-1.246-2.44-2.052-4.245-2.052-3.112 0-6.259 2.397-6.259 6.978 0 3.995 2.703 7.006 6.284 7.006 1.364 0 3.285-.546 4.22-2.08l.156-.256v1.804a.248.248 0 0 0 .249.252h2.546a.249.249 0 0 0 .25-.252V.823a.248.248 0 0 0-.25-.252Zm-2.841 13.925a3.906 3.906 0 0 1-3.819 4.034c-2.081 0-3.712-1.775-3.712-4.034 0-2.258 1.63-3.977 3.712-3.977a3.907 3.907 0 0 1 3.808 3.977h.01ZM71.286 7.836h2.544a.249.249 0 0 1 .248.249v12.902a.248.248 0 0 1-.248.248h-2.544a.252.252 0 0 1-.252-.252V8.085a.252.252 0 0 1 .252-.249ZM72.569.98a1.979 1.979 0 0 0-2.021 1.978 2.002 2.002 0 0 0 2.02 1.981 1.968 1.968 0 0 0 1.993-1.981A1.945 1.945 0 0 0 72.57.98ZM84.554 7.545c-1.115 0-3.097.6-3.854 2.199l-.245-.05V8.085a.249.249 0 0 0-.252-.248h-2.544a.249.249 0 0 0-.248.248v12.902a.248.248 0 0 0 .248.252h2.544a.252.252 0 0 0 .252-.252V14.24c0-2.614 1.818-3.552 3.378-3.552 1.378 0 2.767 1.034 2.767 3.338v6.96a.252.252 0 0 0 .252.253h2.55a.252.252 0 0 0 .253-.252V13.71c-.008-3.973-1.819-6.165-5.101-6.165ZM104.846 7.837h-2.543a.245.245 0 0 0-.178.072.245.245 0 0 0-.074.177V9.86l-.153-.248c-.778-1.247-2.444-2.053-4.262-2.053-3.108 0-6.259 2.397-6.259 6.978 0 3.995 2.703 7.007 6.287 7.007 1.36 0 3.282-.547 4.22-2.081l.153-.256v1.78a.25.25 0 0 0 .252.252h2.543a.247.247 0 0 0 .249-.253V8.086a.247.247 0 0 0-.235-.249Zm-2.841 6.659a3.903 3.903 0 0 1-2.328 3.702 3.908 3.908 0 0 1-1.501.332c-2.082 0-3.709-1.776-3.709-4.034 0-2.259 1.627-3.978 3.709-3.978a3.91 3.91 0 0 1 3.822 3.978h.007ZM116.451 7.882a4.854 4.854 0 0 0-1.826-.355c-1.691 0-2.92 1.012-3.552 2.93l-.227-.032v-2.34a.244.244 0 0 0-.02-.096.243.243 0 0 0-.136-.135.249.249 0 0 0-.096-.018h-2.544a.249.249 0 0 0-.252.249v12.901a.253.253 0 0 0 .252.253h2.572a.248.248 0 0 0 .231-.156.264.264 0 0 0 .018-.097v-4.403c0-5.256 2.099-6.037 3.353-6.037.529.001 1.052.11 1.538.32a.257.257 0 0 0 .216 0 .244.244 0 0 0 .128-.17l.505-2.526a.25.25 0 0 0-.027-.173.25.25 0 0 0-.133-.115ZM130.564 7.947a.245.245 0 0 0-.21-.11h-2.739a.256.256 0 0 0-.234.16l-3.314 8.586-3.346-8.587a.254.254 0 0 0-.235-.16h-2.792a.248.248 0 0 0-.23.345l4.972 12.209-2.745 7.134a.239.239 0 0 0-.021.124.25.25 0 0 0 .255.232h2.664a.244.244 0 0 0 .231-.16l7.765-19.532a.249.249 0 0 0-.021-.241Z"/></svg>