<svg xmlns="http://www.w3.org/2000/svg" width="43" height="29" fill="none"><path fill="#fff" d="M34.782 10.483A14.34 14.34 0 0 0 21.22.5 14.076 14.076 0 0 0 8.74 7.912a10.614 10.614 0 0 0-8.656 9.103A10.609 10.609 0 0 0 6.18 27.997l.267.121h.017V25.1a7.916 7.916 0 0 1 3.3-14.617l.746-.078.327-.672A11.418 11.418 0 0 1 21.22 3.188a11.617 11.617 0 0 1 11.206 8.878l.256 1.016h1.066a6.583 6.583 0 0 1 6.447 6.556c0 2.503-1.446 4.552-3.907 5.59v2.862l.177-.057c3.957-1.296 6.415-4.514 6.415-8.395a9.3 9.3 0 0 0-8.099-9.155Z"/><path fill="#fff" d="m16.012 27.77.59.59a.117.117 0 0 1-.082.199h-4.653a2.132 2.132 0 0 1-2.131-2.131v-9.034a.117.117 0 0 0-.117-.117h-.995a.118.118 0 0 1-.116-.139.117.117 0 0 1 .03-.06l3.95-3.95a.117.117 0 0 1 .168 0l3.946 3.95a.117.117 0 0 1-.082.198h-1.008a.12.12 0 0 0-.121.118v8.878c.001.562.225 1.1.621 1.498ZM24.74 27.77l.593.59a.117.117 0 0 1-.086.198h-4.642a2.132 2.132 0 0 1-2.131-2.13v-6.751a.121.121 0 0 0-.118-.121h-1.005a.118.118 0 0 1-.106-.073.117.117 0 0 1 .024-.126l3.947-3.942a.116.116 0 0 1 .083-.035.117.117 0 0 1 .084.035l3.95 3.935a.117.117 0 0 1-.086.199H24.24a.12.12 0 0 0-.118.12v6.602c0 .562.223 1.1.619 1.499ZM33.47 27.77l.59.59a.117.117 0 0 1-.081.199h-4.657a2.132 2.132 0 0 1-2.131-2.131v-4.485a.117.117 0 0 0-.117-.117h-.995a.117.117 0 0 1-.116-.143.117.117 0 0 1 .034-.06l3.95-3.945a.112.112 0 0 1 .126-.026.112.112 0 0 1 .037.026l3.95 3.945a.118.118 0 0 1 .029.13.117.117 0 0 1-.11.073h-1.013a.118.118 0 0 0-.117.117v4.329c.002.562.225 1.1.622 1.498Z"/></svg>