<svg xmlns="http://www.w3.org/2000/svg" width="45" height="36" fill="none"><path fill="#1D63ED" d="M44.268 14.79c-1.104-.752-4.002-1.073-6.11-.498-.113-2.127-1.196-3.92-3.176-5.485l-.733-.499-.488.748c-.96 1.478-1.365 3.447-1.222 5.236.113 1.103.491 2.342 1.222 3.242-2.743 1.613-5.272 1.246-16.47 1.246H.005c-.05 2.563.356 7.493 3.449 11.506.342.443.716.872 1.122 1.285C7.09 34.123 10.89 35.995 16.571 36c8.667.008 16.093-4.74 20.61-16.222 1.486.024 5.41.27 7.33-3.49.047-.064.489-.998.489-.998l-.732-.498v-.001Zm-32.982-2.342H6.425v4.927h4.861v-4.927Zm6.28 0h-4.861v4.927h4.861v-4.927Zm6.28 0h-4.86v4.927h4.86v-4.927Zm6.282 0h-4.862v4.927h4.862v-4.927Zm-25.122 0H.144v4.927h4.862v-4.927Zm6.28-6.224H6.425v4.928h4.861V6.224Zm6.28 0h-4.861v4.928h4.861V6.224Zm6.28 0h-4.86v4.928h4.86V6.224Zm0-6.224h-4.86v4.927h4.86V0Z"/></svg>