<svg xmlns="http://www.w3.org/2000/svg" width="107" height="27" fill="none"><path fill="#fff" d="M105.997 23.438a2.264 2.264 0 0 1-2.295 2.293c-1.298 0-2.309-1.008-2.309-2.293 0-1.284 1.024-2.265 2.309-2.265 1.285 0 2.295 1.008 2.295 2.265Zm-4.03 0c0 1.009.738 1.81 1.749 1.81 1.011 0 1.708-.801 1.708-1.796 0-.994-.724-1.823-1.721-1.823-.996 0-1.735.815-1.735 1.81h-.001Zm1.381 1.188h-.52v-2.265c.204-.041.492-.07.861-.07.424 0 .614.07.779.167a.63.63 0 0 1 .218.497c0 .25-.191.443-.463.525v.028c.217.082.341.248.409.552.068.345.109.484.164.566h-.56c-.068-.082-.11-.29-.178-.552-.041-.249-.177-.36-.465-.36h-.245v.913Zm.013-1.284h.245c.287 0 .519-.096.519-.331 0-.208-.149-.347-.478-.347-.136 0-.232.014-.286.03v.648ZM17.948.513a1.599 1.599 0 0 0-1.17-.48c-.462 0-.859.162-1.168.48-.31.317-.462.724-.462 1.209V9.82C13.558 8.49 11.723 7.82 9.636 7.82c-2.427 0-4.501.886-6.22 2.664-1.72 1.771-2.573 3.914-2.573 6.428 0 2.513.86 4.65 2.573 6.428 1.719 1.772 3.788 2.664 6.22 2.664 2.431 0 4.478-.886 6.22-2.664 1.719-1.754 2.572-3.896 2.572-6.428V1.722c0-.485-.158-.892-.48-1.21Zm-3.232 18.59v.013a5.773 5.773 0 0 1-1.175 1.807 5.615 5.615 0 0 1-1.748 1.233 5.128 5.128 0 0 1-2.151.455c-.766 0-1.497-.15-2.169-.455a5.532 5.532 0 0 1-1.742-1.227 5.853 5.853 0 0 1-1.169-1.807 5.736 5.736 0 0 1-.432-2.21c0-.778.146-1.514.432-2.208a5.61 5.61 0 0 1 2.91-3.034 5.17 5.17 0 0 1 2.17-.456c.777 0 1.478.15 2.15.455a5.545 5.545 0 0 1 1.749 1.233c.496.521.888 1.126 1.175 1.808.286.688.432 1.419.432 2.197s-.146 1.514-.432 2.197ZM90.588 13.424c-.427-1.078-1.077-2.054-1.93-2.928l-.011-.006c-1.737-1.771-3.813-2.663-6.22-2.663-2.408 0-4.502.885-6.22 2.663-1.72 1.772-2.573 3.915-2.573 6.428 0 2.514.86 4.651 2.572 6.429 1.72 1.771 3.789 2.663 6.22 2.663 2.21 0 4.121-.736 5.747-2.208.314-.335.474-.742.474-1.216 0-.473-.152-.891-.463-1.209a1.57 1.57 0 0 0-1.169-.479c-.408.012-.771.15-1.08.425-.492.431-1.024.76-1.602.976a5.394 5.394 0 0 1-1.9.324 5.18 5.18 0 0 1-1.748-.293 5.617 5.617 0 0 1-1.537-.82 5.494 5.494 0 0 1-1.216-1.269 5.524 5.524 0 0 1-.783-1.634h12.434a1.6 1.6 0 0 0 1.169-.479c.322-.317.48-.724.48-1.209 0-1.257-.218-2.424-.643-3.495h-.001ZM77.136 15.23a5.49 5.49 0 0 1 1.993-2.903 5.708 5.708 0 0 1 1.555-.82 5.246 5.246 0 0 1 1.743-.293c.597 0 1.174.096 1.735.293a5.508 5.508 0 0 1 1.538.82c.468.354.876.772 1.221 1.27a5.57 5.57 0 0 1 .796 1.633H77.135h.001ZM105.868 8.964a3.055 3.055 0 0 0-1.105-.689 6.316 6.316 0 0 0-1.461-.347 11.988 11.988 0 0 0-1.484-.095c-1.048 0-2.03.173-2.953.52a8.954 8.954 0 0 0-2.56 1.49v-.322c0-.467-.158-.862-.48-1.191a1.55 1.55 0 0 0-1.151-.497c-.45 0-.848.168-1.169.497-.322.329-.48.73-.48 1.19v14.803c0 .467.158.862.48 1.191.32.329.707.497 1.169.497.462 0 .835-.168 1.15-.497.323-.329.48-.73.48-1.19v-7.405a5.782 5.782 0 0 1 1.608-4.034 5.5 5.5 0 0 1 1.748-1.216 5.222 5.222 0 0 1 2.152-.449c.767 0 1.49.138 2.151.407.263.12.492.18.69.18.228 0 .444-.042.643-.132s.374-.21.521-.365c.146-.155.262-.335.35-.544.088-.204.135-.425.135-.665 0-.466-.146-.844-.438-1.137h.005-.001ZM37.227 13.43a8.96 8.96 0 0 0-1.923-2.94c-1.736-1.771-3.811-2.663-6.22-2.663s-4.5.886-6.22 2.664c-1.719 1.771-2.572 3.914-2.572 6.428 0 2.513.86 4.65 2.572 6.428 1.72 1.772 3.789 2.664 6.22 2.664 2.432 0 4.478-.886 6.22-2.664 1.719-1.754 2.572-3.896 2.572-6.428-.012-1.257-.228-2.418-.648-3.49h-.001Zm-3.063 5.674v.012a5.773 5.773 0 0 1-1.175 1.807 5.616 5.616 0 0 1-1.748 1.233 5.108 5.108 0 0 1-2.15.455c-.766 0-1.497-.15-2.17-.455a5.532 5.532 0 0 1-1.741-1.227 5.852 5.852 0 0 1-1.169-1.807 5.736 5.736 0 0 1-.433-2.21c0-.778.146-1.514.433-2.208a5.611 5.611 0 0 1 2.91-3.034 5.17 5.17 0 0 1 2.17-.456c.776 0 1.478.15 2.15.455a5.549 5.549 0 0 1 1.748 1.233c.497.521.889 1.126 1.175 1.808.286.688.433 1.419.433 2.197s-.147 1.514-.433 2.197ZM72.394 9.515c0-.227-.047-.443-.134-.647a1.885 1.885 0 0 0-.351-.544 1.528 1.528 0 0 0-.52-.365 1.653 1.653 0 0 0-.643-.132c-.327 0-.62.084-.877.258L60.481 14.4V1.734c0-.479-.157-.88-.479-1.21a1.55 1.55 0 0 0-1.151-.496c-.45 0-.848.168-1.17.497a1.66 1.66 0 0 0-.479 1.21V24.3c0 .466.158.868.48 1.203.32.335.706.502 1.169.502.462 0 .836-.167 1.151-.502.322-.335.48-.737.48-1.203v-5.86l1.917-1.3 7.254 8.422c.293.293.661.437 1.1.437.227 0 .444-.042.642-.131.199-.084.374-.21.52-.365.146-.155.263-.335.351-.545.088-.203.134-.425.134-.646 0-.443-.151-.838-.456-1.185l-6.752-7.859 6.576-4.417c.42-.293.626-.742.626-1.347v.012-.001ZM44.599 12.885a5.529 5.529 0 0 1 1.76-1.216 5.22 5.22 0 0 1 2.15-.449c.69 0 1.328.12 1.919.359.584.24 1.146.593 1.677 1.053.315.257.672.389 1.07.389.473 0 .859-.162 1.169-.485.31-.324.462-.73.462-1.215 0-.485-.188-.934-.567-1.28-1.614-1.473-3.525-2.21-5.73-2.21-2.425 0-4.5.886-6.219 2.663-1.719 1.772-2.572 3.915-2.572 6.429 0 2.513.86 4.65 2.572 6.428 1.72 1.772 3.788 2.664 6.22 2.664 2.198 0 4.11-.736 5.729-2.21.345-.358.52-.771.52-1.25s-.152-.892-.461-1.21a1.57 1.57 0 0 0-1.17-.478 1.726 1.726 0 0 0-1.034.358 5.607 5.607 0 0 1-1.666 1.048 5.119 5.119 0 0 1-1.917.347 5.22 5.22 0 0 1-2.152-.449 5.728 5.728 0 0 1-1.76-1.215 5.633 5.633 0 0 1-1.186-1.807 5.782 5.782 0 0 1-.433-2.227c0-.79.146-1.532.433-2.227a5.623 5.623 0 0 1 1.187-1.807v-.006l-.001.003Z"/></svg>