<svg xmlns="http://www.w3.org/2000/svg" viewBox="0 0 500 500"><ellipse cx="250" cy="342.94" rx="230.29" ry="132.96" style="fill:#f5f5f5"/><path d="m451.5 324.25-130.84 75.57a4.47 4.47 0 0 1-4.06 0l-218.19-126a1.24 1.24 0 0 1 0-2.35l130.84-75.57a4.47 4.47 0 0 1 4.06 0l218.19 126a1.24 1.24 0 0 1 0 2.35Z" style="fill:#e6e6e6"/><ellipse cx="166.81" cy="399.06" rx="81.41" ry="47" style="fill:#e6e6e6"/><ellipse cx="249.45" cy="354.22" rx="58.96" ry="34.04" style="fill:#e6e6e6"/><path d="M421.42 291s2-16.37 10.33-29 19.57-20.45 30-21.16 18.8 9 7.55 15.47-31.2 13-40.6 37.61Z" style="fill:#ba68c8"/><path d="M421.42 291s2-16.37 10.33-29 19.57-20.45 30-21.16 18.8 9 7.55 15.47-31.2 13-40.6 37.61Z" style="opacity:.30000000000000004"/><path d="M424.53 286.73h-.11a.56.56 0 0 1-.3-.73c11.32-27 32.44-38.16 42-40.26a.56.56 0 1 1 .24 1.1c-9.39 2-30.09 13-41.23 39.59a.56.56 0 0 1-.6.3Z" style="fill:#fff"/><path d="M482.39 278.73c-.89 2-3.09 3.06-5.13 3.88s-4.27 1.71-5.37 3.61c-2.23 3.84 1.42 9.25-1 13a6.9 6.9 0 0 1-4.71 2.72 44.34 44.34 0 0 1-4.61.41 17.65 17.65 0 0 1-2.2-.17 10 10 0 0 0-6.36.68c-3.06 1.72-4 5.57-5.85 8.55a14.51 14.51 0 0 1-10.29 6.45c-2.43.32-4.72 1-6.43-1.26a12 12 0 0 1-1.6-3.7l-4.85-16c-.63-2.07-1.23-4.4-.2-6.3.74-1.38 2.19-2.2 3.5-3.06a29.45 29.45 0 0 0 6.85-6.33c1.85-2.36 2.73-5.18 4.41-7.53 3.24-4.51 9.05-7.64 14.65-6.7 3.22.54 6.37 2.35 9.69 2.2s6.4-1 9.7-.78 7 1.7 8.93 4.66a6.09 6.09 0 0 1 .87 5.67Z" style="fill:#ba68c8"/><path d="M482.39 278.73c-.89 2-3.09 3.06-5.13 3.88s-4.27 1.71-5.37 3.61c-2.23 3.84 1.42 9.25-1 13a6.9 6.9 0 0 1-4.71 2.72 44.34 44.34 0 0 1-4.61.41 17.65 17.65 0 0 1-2.2-.17 10 10 0 0 0-6.36.68c-3.06 1.72-4 5.57-5.85 8.55a14.51 14.51 0 0 1-10.29 6.45c-2.43.32-4.72 1-6.43-1.26a12 12 0 0 1-1.6-3.7l-4.85-16c-.63-2.07-1.23-4.4-.2-6.3.74-1.38 2.19-2.2 3.5-3.06a29.45 29.45 0 0 0 6.85-6.33c1.85-2.36 2.73-5.18 4.41-7.53 3.24-4.51 9.05-7.64 14.65-6.7 3.22.54 6.37 2.35 9.69 2.2s6.4-1 9.7-.78 7 1.7 8.93 4.66a6.09 6.09 0 0 1 .87 5.67Z" style="opacity:.1"/><path d="M430.2 307.41a.5.5 0 0 1-.35-.61c8-30.1 39.76-34.45 47.18-33.91a.5.5 0 0 1-.07 1c-7.26-.53-38.29 3.72-46.15 33.18a.5.5 0 0 1-.61.34Z" style="fill:#fff"/><path d="M465.45 292.16a.55.55 0 0 1-.26-.14 26.38 26.38 0 0 0-21.59-6.09.49.49 0 0 1-.56-.41.51.51 0 0 1 .42-.57 27.39 27.39 0 0 1 22.43 6.37.5.5 0 0 1-.44.84Z" style="fill:#fff"/><path d="M328.63 290.22v86.14a2.5 2.5 0 0 1-1.11 1.94l-2.38 1.37a2.5 2.5 0 0 1-2.23 0l-2.38-1.37a2.5 2.5 0 0 1-1.11-1.94v-86.14c0-.71.5-1 1.11-.64l2.38 1.37a2.5 2.5 0 0 0 2.23 0l2.38-1.37c.61-.36 1.11-.07 1.11.64Z" style="fill:#37474f"/><path d="m322.91 379.67-2.38-1.37a2.5 2.5 0 0 1-1.11-1.94v-86.14c0-.71.5-1 1.11-.64l2.38 1.37a2.47 2.47 0 0 1 1.11 1.93V379c-.02.73-.5 1-1.11.67Z" style="fill:#455a64"/><path d="M429.91 231.72v86.13a2.47 2.47 0 0 1-1.12 1.94l-2.37 1.37a2.46 2.46 0 0 1-2.24 0l-2.37-1.37a2.47 2.47 0 0 1-1.12-1.94v-86.13c0-.72.5-1 1.12-.65l2.37 1.37a2.46 2.46 0 0 0 2.24 0l2.37-1.37c.62-.36 1.12-.07 1.12.65Z" style="fill:#37474f"/><path d="m424.18 321.16-2.37-1.37a2.47 2.47 0 0 1-1.12-1.94v-86.13c0-.72.5-1 1.12-.65l2.37 1.37a2.47 2.47 0 0 1 1.12 1.94v86.14c0 .71-.5 1-1.12.64Z" style="fill:#455a64"/><path d="M152.65 188.56v86.14a2.47 2.47 0 0 1-1.11 1.93l-2.38 1.37a2.44 2.44 0 0 1-2.23 0l-2.38-1.37a2.45 2.45 0 0 1-1.12-1.93v-86.14c0-.71.5-1 1.12-.65l2.38 1.37a2.44 2.44 0 0 0 2.23 0l2.38-1.37c.61-.35 1.11-.06 1.11.65Z" style="fill:#37474f"/><path d="m146.93 278-2.38-1.37a2.45 2.45 0 0 1-1.12-1.93v-86.14c0-.71.5-1 1.12-.65l2.38 1.37a2.5 2.5 0 0 1 1.11 1.94v86.14c-.04.71-.5 1-1.11.64Z" style="fill:#455a64"/><path d="M452 239.59v-.81a4.46 4.46 0 0 0-2-3.52l-218.18-126a4.49 4.49 0 0 0-4.07 0l-109.96 63.48a4.51 4.51 0 0 0-2 3.52v.81a4.51 4.51 0 0 0 2 3.53L336 306.56a4.47 4.47 0 0 0 4.06 0l109.87-63.45a4.49 4.49 0 0 0 2.07-3.52Z" style="fill:#37474f"/><path d="M338 301.55v5.51a4.29 4.29 0 0 0 2-.49l109.87-63.46a4.47 4.47 0 0 0 2-3.52v-.81a4.52 4.52 0 0 0-1.65-3.26c.73.63.61 1.51-.38 2.09L340 301.06a4.07 4.07 0 0 1-2 .49Z" style="fill:#ba68c8"/><path d="M338 301.55v5.51a4.29 4.29 0 0 0 2-.49l109.87-63.46a4.47 4.47 0 0 0 2-3.52v-.81a4.52 4.52 0 0 0-1.65-3.26c.73.63.61 1.51-.38 2.09L340 301.06a4.07 4.07 0 0 1-2 .49Z" style="fill:#263238"/><path d="M449.91 237.6 340 301.06a4.47 4.47 0 0 1-4.06 0l-218.19-126a1.24 1.24 0 0 1 0-2.35l109.87-63.45a4.49 4.49 0 0 1 4.07 0l218.18 126a1.23 1.23 0 0 1 .04 2.34Z" style="fill:#455a64"/><path d="m280.88 194.13-20.71 12a2.56 2.56 0 0 1-2.32 0l-61.18-35.28a.71.71 0 0 1 0-1.34l20.71-12a2.56 2.56 0 0 1 2.32 0l61.18 35.27a.71.71 0 0 1 0 1.35Z" style="opacity:.15"/><path d="M197.92 167.38a.83.83 0 0 1 .48-.67l19.46-11.23a2.56 2.56 0 0 1 2.32 0l59.37 34.33a.83.83 0 0 1 .48.67v2a.8.8 0 0 1-.48.67l-19.45 11.27a2.56 2.56 0 0 1-2.32 0l-59.38-34.27a.87.87 0 0 1-.48-.67Z" style="fill:#ebebeb"/><path d="m260.1 202.33 19.45-11.18c.64-.37.64-1 0-1.34l-59.37-34.33a2.56 2.56 0 0 0-2.32 0l-19.46 11.23a.71.71 0 0 0 0 1.34l59.38 34.28a2.56 2.56 0 0 0 2.32 0Z" style="fill:#fff"/><path d="M259 202.61v2.08a2.25 2.25 0 0 0 1.09-.26l19.44-11.23a.82.82 0 0 0 .49-.67v-2.05a.82.82 0 0 1-.49.67l-19.43 11.19a2.37 2.37 0 0 1-1.1.27Z" style="fill:#e0e0e0"/><path d="m201.53 167.53 1.93-1.11 2.61 1.5-1.94 1.15-2.61-1.5Zm3-1.74 1.93-1.11 2.05 1.18-1.92 1.14-2.05-1.18Zm.64 3.85 1.93-1.12 2 1.19-1.94 1.15-2-1.19Zm2.38-5.59 1.92-1.11 3.32 1.91-1.92 1.15-3.31-1.91Zm.07 3.53 1.93-1.11 1.63.94-1.94 1.15-1.63-.94Zm.63 3.84 1.92-1.11 2.06 1.18-1.94 1.15-2-1.18Zm2-2.3 1.93-1.11 1.62.94-1.93 1.15-1.63-.94Zm.27-6.81 1.93-1.11 2.61 1.5-1.94 1.15-2.61-1.5Zm.78 10.9 1.92-1.11 14.83 8.56-1.94 1.15-14.82-8.56Zm.56-6.65 1.93-1.11 1.63.94-1.94 1.15-1.63-.94Zm1.05 4.1 1.92-1.11 1.63.94-1.94 1.15-1.62-.94Zm.63-10.09 1.92-1.12 1.63.95-1.93 1.15-1.63-.94Zm.63 3.85 1.93-1.11 1.63.94-1.94 1.15-1.63-.94Zm.35 3.68 1.92-1.11 1.63.94-1.94 1.15-1.62-.94Zm1.06 4.1 1.93-1.11 1.63.94-1.94 1.15-1.63-.94Zm.62-10.09 1.92-1.12 1.63.95-1.94 1.15-1.62-.94Zm.64 3.85 1.93-1.11 1.63.94-1.94 1.15-1.63-.94Zm.35 3.68 1.92-1.11 1.63.94-1.94 1.15-1.63-.94Zm0-11.18 1.92-1.11 2 1.19-1.94 1.15-2-1.19Zm1.06 15.27 1.93-1.11 1.63.94-1.94 1.15-1.63-.94Zm.62-10.08 1.93-1.12 1.63 1-1.94 1.14-1.63-.93Zm.63 3.85 1.92-1.11 1.63.94-1.94 1.15-1.62-.94Zm.36 3.68 1.93-1.11 1.63.94-1.94 1.15-1.63-.94Zm1.06 4.09 1.92-1.11 1.63.94-1.93 1.15-1.63-.94Zm.52-14.36 1.93-1.11 1.63.94-1.94 1.15-1.63-.94Zm.09 4.28 1.92-1.12 1.63.95-1.93 1.15-1.63-.94Zm.64 3.85 1.93-1.11 1.63.94-1.88 1.13-1.63-.94Zm.35 3.68 1.92-1.11 1.63.94-1.93 1.15-1.63-.94Zm1.06 4.1 1.92-1.11 1.63.94-1.94 1.15-1.62-.94Zm.53-14.37 1.93-1.11 1.63.94-1.94 1.15-1.63-.94Zm.09 4.28 1.92-1.12 1.63.95-1.94 1.15-1.62-.94Zm.64 3.85 1.93-1.11 1.63.94-1.94 1.15-1.63-.94Zm.35 3.68 1.92-1.11 1.63.94-1.94 1.15-1.62-.94Zm1.06 4.09 1.93-1.11 1.63.94-1.94 1.15-1.63-.94Zm.53-14.36 1.92-1.11 1.63.94-1.87 1.18-1.63-.94Zm.09 4.28 1.93-1.12 1.63 1-1.94 1.14-1.63-.94Zm.3 14.09 1.92-1.11 2 1.18-1.93 1.15-2.05-1.18Zm.34-10.24 1.92-1.11 1.63.94-1.93 1.15-1.63-.94Zm.35 3.68 1.93-1.11 1.63.94-1.94 1.15-1.63-.94Zm1.06 4.09 1.93-1.11 1.62.94-1.93 1.15-1.63-.94Zm.52-14.36 1.92-1.11 1.63.94-1.94 1.15-1.62-.94Zm.1 4.28 1.93-1.11 1.63 1-1.94 1.14-1.63-.94Zm.63 3.85 1.92-1.11 1.63.94-1.94 1.15-1.62-.94Zm.08 10.49 1.92-1.11 2 1.18-1.93 1.15-2.05-1.18Zm.28-6.81 1.93-1.11 1.63.94-1.94 1.15-1.63-.94Zm1 4.09 1.92-1.11 1.63.94-1.94 1.15-1.62-.94Zm.62-10.08 1.92-1.12 1.63.94-1.94 1.15-1.62-.94Zm.64 3.85 1.93-1.11 1.63.94-1.94 1.15-1.63-.94Zm.35 3.68 1.92-1.11 1.63.94-1.94 1.15-1.62-.94Zm.08-11.14 1.93-1.12 1.63 1-1.78 1.08-1.63-.94Zm.07 18.19 1.93-1.11 2 1.19-1.94 1.15-2.05-1.19Zm.91-3 1.93-1.11 1.63.94-1.94 1.15-1.52-.91Zm.62-10.08 1.92-1.11 1.63.94-1.94 1.15-1.63-.94Zm.64 3.85 1.92-1.11 1.64.94-1.94 1.15-1.63-.94Zm.35 3.68 1.93-1.11 1.63.94-1.94 1.15-1.63-.94Zm.08-11.14 1.93-1.12 1.63 1-1.94 1.15-1.51-.97Zm.49 18.43 1.93-1.11 2.61 1.5-1.94 1.15-2.61-1.5Zm.49-3.2 1.93-1.11 5.14 3-1.94 1.15-5.14-3Zm.62-10.08 1.93-1.11 1.63.94-1.94 1.15-1.63-.94Zm.63 3.85 1.92-1.11 1.63.94-1.94 1.15-1.62-.94Zm.36 3.68 1.93-1.11 1.63.94-1.94 1.15-1.63-.94Zm.07-11.14 1.92-1.12 1.63.95-1.94 1.14-1.62-.93Zm1.6 5.15 1.92-1.11 1.63.94-1.94 1.15-1.62-.94Zm.44 14.17 1.93-1.11 1.63.94-1.94 1.15-1.63-.94Zm.2-10.32 1.93-1.11 1.63.94-1.94 1.15-1.63-.94Zm.35 3.68 1.92-1.11 1.49.86a1.29 1.29 0 0 0 1 0l2.52-1.46 1.91 1.1-4.95 2.89-3.87-2.23Zm.08-11.14 1.93-1.12 1.63.95-1.78 1.16-1.63-.94Zm1.6 5.15 1.93-1.11 1.63.94-1.94 1.15-1.62-.94Zm.44 14.17 1.93-1.11 1.63.94-1.82 1.17-1.63-.94Zm.2-10.32 1.93-1.11 1.63.94-1.94 1.15-1.63-.94Zm1.59-6.79 1.93-1.12 1.63.95-1.94 1.14-1.63-.94Zm.44 4.48 1.93-1.11 1.63.94-1.83 1.16-1.63-.94Zm.43 14.17 1.92-1.11 1.63.94-1.94 1.15-1.62-.94Zm.35-3.28 1.93-1.11 1.63.94-1.83 1.17-1.63-.94Zm1.45-13.83 1.92-1.12 1.63.94-1.93 1.15-1.63-.93Zm.44 4.48 1.92-1.11 2.9 1.67-1.94 1.15-2.89-1.67Zm1 14.5 1.92-1.11 4.3 2.48-1.94 1.15-4.29-2.48Zm.48-10.17 1.92-1.11 1.63.94-1.93 1.15-1.63-.94Zm.75-7.27 1.92-1.12 1.63.94-1.94 1.15-1.62-.94Zm1.79 15.7 1.93-1.11 1.63.94-1.94 1.15-1.63-.94Zm.13-6.89 1.93-1.11 1.63.94-1.87 1.17-1.63-.94Zm.35-3.28 1.93-1.11 1.63.94-1.94 1.15-1.63-.94Zm.4-4 1.93-1.12 1.63.94-1.94 1.15-1.63-.94Zm1.44 19 1.93-1.11 1.63.94-1.94 1.15-1.63-.94Zm.34-3.28 1.92-1.11 1.63.94-1.94 1.15-1.62-.94Zm.14-6.89 1.93-1.11 1.63.94-1.84 1.2-1.63-.94Zm.21 3.61 1.92-1.11 1.63.94-1.94 1.15-1.63-.94Zm.14-6.89 1.92-1.11 1.63.94-1.93 1.15-1.63-.94Zm1-3.65 1.92-1.12 1.64.94L258 182l-1.63-.94Zm.84 18.64 4.94-2.85 1.63.94-4.95 2.89-1.63-.94Zm.35-3.28 1.92-1.11 1.63.94-1.94 1.15-1.63-.94Zm.35-3.28 1.93-1.11 1.63.94-1.94 1.15-1.63-.94Zm.13-6.89 1.92-1.11 1.63.94-1.94 1.15-1.62-.94Zm.22 3.61 1.93-1.11 1.62.94-1.93 1.15-1.63-.94Zm.77-7.26 1.92-1.12 1.63.94-1.94 1.15-1.62-.94Zm1.55 12.08 1.92-1.11 1.63.94-1.93 1.15-1.63-.94Zm.34-3.28 1.92-1.11 1.63.94-1.94 1.15-1.62-.94Zm.35-3.28 1.93-1.11 1.63.94-1.94 1.15-1.63-.94Zm.43-4 1.93-1.12 1.63.94-1.94 1.15-1.63-.94Zm1.54 12.08 4.94-2.85 1.63.94-4.95 2.89-1.63-.94Zm.35-3.28 1.93-1.11 1.63.94-1.94 1.15-1.63-.94Zm.35-3.28 1.93-1.11 1.63.94-1.94 1.15-1.63-.94Zm1.76-4.1.81-.48 1.63.94-.83.52-1.62-.94Zm.9 5.64 1.92-1.11 1.63.94-1.94 1.15-1.62-.94Zm1.77-4.1.82-.48 1.63.94-.84.52-1.62-.94Zm.9 5.64 1.93-1.11 1.63.94-1.94 1.15-1.62-.94Zm1.77-4.1.82-.48 1.63.94-.84.52-1.62-.94Zm2.66 1.54.82-.48 1.63.94-.84.52-1.62-.94Z" style="fill:#455a64"/><path d="m363.7 213.03 20.95-12.1-104.77-60.49-20.95 12.1 104.77 60.49z" style="opacity:.15"/><path d="m304.37 193.33-15-8.65a3.91 3.91 0 0 1-2.31-3.22v-2.08l14.08-8a3.31 3.31 0 0 0 1.49-2.58v-18.43l26.12 15.09v18.45a3.31 3.31 0 0 1-1.49 2.58l-11.76 6.84a12.35 12.35 0 0 1-11.13 0Z" style="fill:#e6e6e6"/><path d="M322.51 187.17v2.08l4.79-2.76a3.31 3.31 0 0 0 1.49-2.58v-18.44l-5-2.88c-.1 1.27-.21 2.57-.32 3.85l3.49 2v14.41a3.3 3.3 0 0 1-1.48 2.58Z" style="fill:#e0e0e0"/><path d="M327 182.87a3.28 3.28 0 0 1-1.49 2.58l-9.95 5.8a12.35 12.35 0 0 1-11.17 0l-15-8.65c-3.08-1.78-3.08-4.66 0-6.44l10-5.81a3.28 3.28 0 0 0 1.48-2.58v-14.41l26.13 15.1Z" style="fill:#f5f5f5"/><path d="m296.33 172.1 3-1.75a3.28 3.28 0 0 0 1.48-2.58v-14.41l26.19 15.1v14.41a3.28 3.28 0 0 1-1.49 2.58l-3 1.72ZM287.09 179.38v2.08c0 1.17.78 2.33 2.32 3.22l15 8.65a11.13 11.13 0 0 0 5.33 1.32v-2.07a11.13 11.13 0 0 1-5.33-1.32l-15-8.66a3.92 3.92 0 0 1-2.32-3.22Z" style="fill:#ebebeb"/><path d="M368.94 202.77a4 4 0 0 1-3.61-.07l-101.05-58.34a4.11 4.11 0 0 1-1.86-3.22V52.69a3.5 3.5 0 0 1 5.35-3.09l101.05 58.34a4.11 4.11 0 0 1 1.86 3.22v88.45a4 4 0 0 1-1.74 3.16Z" style="fill:#455a64"/><path d="m365.33 202.7-101.05-58.34a4.11 4.11 0 0 1-1.86-3.22V52.69c0-1.19.83-1.67 1.86-1.07L365.33 110a4.15 4.15 0 0 1 1.86 3.23v88.44c0 1.14-.83 1.62-1.86 1.03Z" style="fill:#ba68c8"/><path d="m365.33 202.7-101.05-58.34a4.11 4.11 0 0 1-1.86-3.22V52.69c0-1.19.83-1.67 1.86-1.07L365.33 110a4.15 4.15 0 0 1 1.86 3.23v88.44c0 1.14-.83 1.62-1.86 1.03Z" style="fill:#37474f"/><path d="M365.6 203.07a3.48 3.48 0 0 0 5.08-3.24v-9.94l-3.49 2v9.94c0 1.11-.69 1.6-1.59 1.24Z" style="fill:#e0e0e0"/><path d="M367.19 191.9v9.95c0 1.19-.83 1.67-1.86 1.08l-101.05-58.34a4.12 4.12 0 0 1-1.86-3.23v-9.94Z" style="fill:#fff"/><path d="M363.7 184.34v-70a2.47 2.47 0 0 0-1.12-1.94L267 57.24c-.62-.36-1.12-.07-1.12.64v70a2.47 2.47 0 0 0 1.12 1.94L362.58 185c.62.34 1.12.05 1.12-.66Z" style="fill:#ba68c8"/><path d="M363.7 184.34v-70a2.47 2.47 0 0 0-1.12-1.94L267 57.24c-.62-.36-1.12-.07-1.12.64v70a2.47 2.47 0 0 0 1.12 1.94L362.58 185c.62.34 1.12.05 1.12-.66Z" style="fill:#fff;opacity:.5"/><path d="M358.05 113.76 273 64.64c-.61-.36-1.11-.07-1.11.64v62a2.48 2.48 0 0 0 1.11 1.93l85.08 49.12c.61.35 1.11.06 1.11-.65v-61.99a2.47 2.47 0 0 0-1.14-1.93Z" style="fill:#455a64"/><path d="M281.78 79.83v39a.23.23 0 0 1-.37.21l-6.24-3.6a.82.82 0 0 1-.37-.65V75.8c0-.24.16-.33.37-.21l6.24 3.6a.84.84 0 0 1 .37.64Z" style="fill:#263238"/><path d="m280.91 80.75-2.06-1.19a.17.17 0 0 0-.28.16v2.38a.64.64 0 0 0 .28.49l2.06 1.19c.16.08.28 0 .28-.17v-2.37a.61.61 0 0 0-.28-.49ZM277.73 78.91l-2.06-1.19c-.16-.09-.28 0-.28.16v2.38a.61.61 0 0 0 .28.49l2.06 1.19a.17.17 0 0 0 .28-.16V79.4a.64.64 0 0 0-.28-.49ZM280.91 84.36l-2.06-1.19c-.15-.09-.28 0-.28.16v2.38a.64.64 0 0 0 .28.49l2.06 1.19c.16.08.28 0 .28-.17v-2.38a.61.61 0 0 0-.28-.48ZM277.73 82.52l-2.06-1.19c-.16-.09-.28 0-.28.16v2.38a.61.61 0 0 0 .28.49l2.06 1.19a.17.17 0 0 0 .28-.16V83a.64.64 0 0 0-.28-.48ZM280.91 88l-2.06-1.19c-.15-.09-.28 0-.28.16v2.38a.61.61 0 0 0 .28.48l2.06 1.17c.16.09.28 0 .28-.16v-2.39a.61.61 0 0 0-.28-.45ZM277.73 86.13l-2.06-1.19c-.16-.09-.28 0-.28.16v2.38a.61.61 0 0 0 .28.49l2.06 1.19A.18.18 0 0 0 278 89v-2.39a.64.64 0 0 0-.27-.48ZM280.91 91.58l-2.06-1.19c-.15-.09-.28 0-.28.16v2.38a.61.61 0 0 0 .28.48l2.06 1.19c.16.09.28 0 .28-.16v-2.38a.61.61 0 0 0-.28-.48ZM277.73 89.74l-2.06-1.19c-.16-.09-.28 0-.28.16v2.38a.61.61 0 0 0 .28.49l2.06 1.18c.15.09.28 0 .28-.16v-2.38a.64.64 0 0 0-.28-.48ZM280.91 95.19 278.85 94c-.15-.09-.28 0-.28.16v2.38a.62.62 0 0 0 .28.48l2.06 1.19c.16.09.28 0 .28-.16v-2.38a.6.6 0 0 0-.28-.48ZM277.73 93.35l-2.06-1.19c-.16-.09-.28 0-.28.16v2.38a.58.58 0 0 0 .28.48l2.06 1.19c.15.09.28 0 .28-.16v-2.38a.64.64 0 0 0-.28-.48ZM280.91 98.8l-2.06-1.19c-.15-.09-.28 0-.28.16v2.38a.62.62 0 0 0 .28.48l2.06 1.19c.16.09.28 0 .28-.16v-2.38a.6.6 0 0 0-.28-.48ZM277.73 97l-2.06-1.19c-.16-.09-.28 0-.28.16v2.38a.6.6 0 0 0 .28.48l2.06 1.19c.15.09.28 0 .28-.16v-2.42a.64.64 0 0 0-.28-.44ZM280.91 102.41l-2.06-1.19c-.15-.09-.28 0-.28.16v2.38a.62.62 0 0 0 .28.48l2.06 1.19c.16.09.28 0 .28-.16v-2.38a.6.6 0 0 0-.28-.48ZM277.73 100.57l-2.06-1.19c-.16-.09-.28 0-.28.16v2.38a.6.6 0 0 0 .28.48l2.06 1.19c.15.09.28 0 .28-.16v-2.38a.62.62 0 0 0-.28-.48ZM280.91 106l-2.06-1.19c-.15-.09-.28 0-.28.16v2.38a.62.62 0 0 0 .28.48l2.06 1.19c.16.09.28 0 .28-.16v-2.36a.6.6 0 0 0-.28-.5ZM277.73 104.18l-2.06-1.18c-.16-.09-.28 0-.28.16v2.38a.6.6 0 0 0 .28.48l2.06 1.19c.15.09.28 0 .28-.16v-2.38a.62.62 0 0 0-.28-.49Z" style="fill:#37474f"/><path d="m280.78 110.54-3.08-1.77c-.23-.14-.41 0-.41.24v3.55a.93.93 0 0 0 .41.72l3.08 1.77c.23.13.41 0 .41-.24v-3.55a.92.92 0 0 0-.41-.72Z" style="fill:#e0e0e0"/><path d="m276 111.14 2.52 1.46a.28.28 0 0 1 .09.17v2.91l-2.52-1.46a.31.31 0 0 1-.09-.17v-2.91m-.42-.93c-.13 0-.23.11-.23.3v3.55a.93.93 0 0 0 .42.72l3.07 1.77a.38.38 0 0 0 .19.06c.14 0 .23-.11.23-.3v-3.55a.94.94 0 0 0-.42-.72l-3.07-1.77a.38.38 0 0 0-.19-.06Z" style="fill:#455a64"/><path d="m346.42 120.2-55.36-32c-1.17-.67-2.11-.13-2.11 1.22v41a4.68 4.68 0 0 0 2.11 3.67l55.36 31.93c1.17.68 2.12.13 2.12-1.22v-41a4.68 4.68 0 0 0-2.12-3.6Z" style="fill:#37474f"/><path d="M294.13 96.54a.17.17 0 0 1-.16-.17v-.64a.17.17 0 0 1 .08-.14.15.15 0 0 1 .16 0l.55.32a.16.16 0 0 1 .06.22.16.16 0 0 1-.22.06l-.31-.18v.36a.17.17 0 0 1-.16.17ZM313.1 106.85a.11.11 0 0 1-.08 0l-1.15-.66a.15.15 0 0 1-.06-.22.16.16 0 0 1 .22-.06l1.15.67a.16.16 0 0 1 .06.22.17.17 0 0 1-.14.05Zm-2.3-1.33h-.08l-1.15-.67a.15.15 0 0 1-.06-.22.16.16 0 0 1 .22-.06l1.15.67a.17.17 0 0 1 .06.22.17.17 0 0 1-.14.06Zm-2.31-1.33h-.08l-1.15-.67a.17.17 0 0 1-.06-.22.17.17 0 0 1 .22-.06l1.16.67a.16.16 0 0 1-.09.3Zm-2.3-1.33h-.08l-1.15-.67a.16.16 0 0 1-.06-.22.17.17 0 0 1 .22-.06l1.15.67a.15.15 0 0 1 .06.22.16.16 0 0 1-.14.06Zm-2.3-1.33h-.08l-1.15-.67a.16.16 0 1 1 .16-.27l1.15.66a.16.16 0 0 1-.08.3Zm-2.3-1.33h-.08l-1.15-.67a.16.16 0 0 1-.06-.22.16.16 0 0 1 .22-.05l1.15.66a.16.16 0 0 1 .06.22.17.17 0 0 1-.14.06Zm-2.3-1.33h-.08l-1.15-.66A.16.16 0 0 1 298 98a.15.15 0 0 1 .22-.06l1.15.66a.16.16 0 0 1-.08.3ZM297 97.54a.11.11 0 0 1-.08 0l-1.16-.66a.16.16 0 0 1 .17-.28l1.15.66a.18.18 0 0 1 .06.22.19.19 0 0 1-.14.06ZM314.8 108.47a.16.16 0 0 1-.16-.16v-.55l-.47-.27a.16.16 0 0 1-.06-.22.16.16 0 0 1 .22-.06l.56.32a.16.16 0 0 1 .08.14v.64a.17.17 0 0 1-.17.16ZM314.8 139.44a.16.16 0 0 1-.16-.16V138a.16.16 0 0 1 .16-.16.17.17 0 0 1 .17.16v1.29a.17.17 0 0 1-.17.15Zm0-2.58a.16.16 0 0 1-.16-.16v-1.29a.16.16 0 0 1 .16-.16.17.17 0 0 1 .17.16v1.29a.17.17 0 0 1-.17.16Zm0-2.58a.16.16 0 0 1-.16-.16v-1.29a.16.16 0 0 1 .16-.16.17.17 0 0 1 .17.16v1.29a.17.17 0 0 1-.17.16Zm0-2.58a.16.16 0 0 1-.16-.16v-1.29a.16.16 0 0 1 .16-.16.17.17 0 0 1 .17.16v1.29a.17.17 0 0 1-.17.16Zm0-2.58a.16.16 0 0 1-.16-.16v-1.29a.16.16 0 0 1 .16-.16.17.17 0 0 1 .17.16V129a.17.17 0 0 1-.17.12Zm0-2.58a.16.16 0 0 1-.16-.16v-1.29a.16.16 0 0 1 .16-.16.17.17 0 0 1 .17.16v1.29a.17.17 0 0 1-.17.16Zm0-2.58a.16.16 0 0 1-.16-.16v-1.29a.16.16 0 0 1 .16-.16.17.17 0 0 1 .17.16v1.29a.17.17 0 0 1-.17.2Zm0-2.58a.16.16 0 0 1-.16-.16v-1.29a.16.16 0 0 1 .16-.16.17.17 0 0 1 .17.16v1.29a.17.17 0 0 1-.17.16Zm0-2.58a.16.16 0 0 1-.16-.16v-1.29a.16.16 0 0 1 .16-.16.17.17 0 0 1 .17.16v1.29a.17.17 0 0 1-.17.16Zm0-2.58a.17.17 0 0 1-.16-.16v-1.29a.17.17 0 1 1 .33 0v1.29a.17.17 0 0 1-.17.16Zm0-2.59a.16.16 0 0 1-.16-.16v-1.29a.17.17 0 0 1 .16-.16.17.17 0 0 1 .17.16v1.29a.17.17 0 0 1-.17.16Zm0-2.58a.16.16 0 0 1-.16-.16v-1.29a.16.16 0 0 1 .16-.16.17.17 0 0 1 .17.16v1.29a.17.17 0 0 1-.17.16ZM314.8 141.38h-.08l-.55-.33a.16.16 0 1 1 .16-.27l.31.18v-.37a.16.16 0 0 1 .16-.16.17.17 0 0 1 .17.16v.65a.17.17 0 0 1-.08.14ZM313.1 140.39h-.08l-1.15-.66a.16.16 0 0 1-.06-.22.15.15 0 0 1 .22-.06l1.15.66a.16.16 0 0 1-.08.3Zm-2.3-1.33h-.09l-1.15-.66a.16.16 0 0 1-.05-.22.15.15 0 0 1 .22-.06l1.15.66a.16.16 0 0 1 .05.22.16.16 0 0 1-.13.06Zm-2.31-1.33a.13.13 0 0 1-.08 0l-1.15-.66a.18.18 0 0 1-.06-.22.16.16 0 0 1 .22-.06l1.15.66a.16.16 0 0 1 .06.22.16.16 0 0 1-.14.06Zm-2.3-1.33a.12.12 0 0 1-.08 0l-1.15-.66a.16.16 0 0 1-.06-.22.17.17 0 0 1 .22-.06l1.15.66a.17.17 0 0 1 .06.22.14.14 0 0 1-.14.06Zm-2.3-1.33a.12.12 0 0 1-.08 0l-1.15-.66a.16.16 0 0 1-.06-.22.16.16 0 0 1 .22-.06l1.15.66a.17.17 0 0 1 .06.22.14.14 0 0 1-.14.06Zm-2.3-1.32h-.08l-1.15-.67a.16.16 0 1 1 .16-.28l1.15.67a.16.16 0 0 1 .06.22.17.17 0 0 1-.14.06Zm-2.3-1.33h-.08l-1.15-.67a.15.15 0 0 1-.06-.22.16.16 0 0 1 .22-.06l1.15.67a.17.17 0 0 1 .06.22.17.17 0 0 1-.14.06Zm-2.29-1.33h-.08l-1.15-.67a.16.16 0 0 1-.05-.22.16.16 0 0 1 .22-.06l1.15.67a.16.16 0 0 1-.09.3ZM294.68 129.76h-.08l-.55-.32a.16.16 0 0 1-.08-.14v-.64a.16.16 0 0 1 .32 0v.55l.47.27a.15.15 0 0 1 .06.22.16.16 0 0 1-.14.06ZM294.13 127.51a.16.16 0 0 1-.16-.16v-1.3a.16.16 0 0 1 .32 0v1.3a.16.16 0 0 1-.16.16Zm0-2.59a.16.16 0 0 1-.16-.16v-1.29a.16.16 0 0 1 .32 0v1.29a.16.16 0 0 1-.16.16Zm0-2.58a.16.16 0 0 1-.16-.16v-1.29a.16.16 0 0 1 .32 0v1.29a.16.16 0 0 1-.16.16Zm0-2.58a.16.16 0 0 1-.16-.16v-1.29a.16.16 0 0 1 .32 0v1.29a.16.16 0 0 1-.16.16Zm0-2.58a.16.16 0 0 1-.13-.18v-1.29a.16.16 0 1 1 .32 0V117a.16.16 0 0 1-.19.18Zm0-2.58a.16.16 0 0 1-.16-.16v-1.29a.16.16 0 1 1 .32 0v1.29a.16.16 0 0 1-.16.16Zm0-2.58a.16.16 0 0 1-.16-.16v-1.29a.16.16 0 0 1 .32 0v1.29a.16.16 0 0 1-.16.14Zm0-2.58a.16.16 0 0 1-.16-.16V108a.16.16 0 0 1 .32 0v1.29a.16.16 0 0 1-.16.15Zm0-2.58a.16.16 0 0 1-.16-.16v-1.29a.16.16 0 0 1 .32 0v1.29a.16.16 0 0 1-.16.16Zm0-2.58a.16.16 0 0 1-.16-.16v-1.29a.16.16 0 0 1 .32 0v1.29a.16.16 0 0 1-.16.16Zm0-2.58a.16.16 0 0 1-.16-.16v-1.29a.16.16 0 0 1 .32 0v1.29a.16.16 0 0 1-.16.16Zm0-2.58A.16.16 0 0 1 294 99v-1.33a.16.16 0 1 1 .32 0V99a.16.16 0 0 1-.19.12Z" style="fill:#ba68c8"/><path d="M294.39 96.48a.15.15 0 0 1-.14-.1l-.25-.58a.15.15 0 0 1 .08-.21.15.15 0 0 1 .21.08l.27.58a.15.15 0 0 1-.08.21ZM314 139.59a.15.15 0 0 1-.14-.09l-.55-1.2a.16.16 0 0 1 .3-.13l.54 1.2a.16.16 0 0 1-.08.21Zm-1.08-2.39a.16.16 0 0 1-.15-.1l-.55-1.19a.17.17 0 1 1 .3-.14l.54 1.2a.15.15 0 0 1-.08.21Zm-1.09-2.4a.16.16 0 0 1-.15-.09l-.54-1.2a.16.16 0 0 1 .08-.21.16.16 0 0 1 .21.08l.54 1.2a.16.16 0 0 1-.08.21Zm-1.09-2.39a.18.18 0 0 1-.15-.1l-.54-1.19a.16.16 0 1 1 .29-.14l.54 1.2a.15.15 0 0 1-.08.21Zm-1.09-2.4a.16.16 0 0 1-.15-.09l-.54-1.2a.16.16 0 0 1 .08-.21.16.16 0 0 1 .21.08l.54 1.2a.15.15 0 0 1-.07.21Zm-1.09-2.39a.18.18 0 0 1-.15-.1l-.54-1.19a.17.17 0 0 1 .08-.22.17.17 0 0 1 .21.08l.55 1.2a.16.16 0 0 1-.08.21Zm-1.09-2.4a.14.14 0 0 1-.14-.09l-.55-1.2a.16.16 0 0 1 .08-.21.15.15 0 0 1 .21.08l.55 1.2a.17.17 0 0 1-.08.21Zm-1.09-2.39a.15.15 0 0 1-.14-.1l-.55-1.2a.16.16 0 0 1 .08-.21.15.15 0 0 1 .21.08l.55 1.2a.15.15 0 0 1-.08.21Zm-1.09-2.4a.14.14 0 0 1-.14-.09l-.55-1.2a.16.16 0 0 1 .08-.21.15.15 0 0 1 .21.08l.55 1.19a.16.16 0 0 1-.08.22Zm-1.1-2.43a.16.16 0 0 1-.14-.1l-.55-1.2a.17.17 0 0 1 .08-.21.17.17 0 0 1 .22.08l.54 1.2a.16.16 0 0 1-.08.21Zm-1.08-2.4a.16.16 0 0 1-.15-.09l-.55-1.2a.16.16 0 0 1 .08-.21.16.16 0 0 1 .22.08l.54 1.19a.17.17 0 0 1-.08.22Zm-1.11-2.35a.18.18 0 0 1-.15-.1l-.54-1.2a.15.15 0 0 1 .08-.21.16.16 0 0 1 .21.08l.54 1.2a.16.16 0 0 1-.08.21Zm-1.09-2.4a.16.16 0 0 1-.15-.09l-.54-1.2a.15.15 0 0 1 .08-.21.15.15 0 0 1 .21.08l.54 1.19a.17.17 0 0 1-.08.22Zm-1.09-2.4a.16.16 0 0 1-.15-.09l-.54-1.2a.16.16 0 0 1 .29-.13l.54 1.2a.15.15 0 0 1-.08.21Zm-1.09-2.39a.19.19 0 0 1-.15-.09l-.54-1.2a.17.17 0 0 1 .08-.22.17.17 0 0 1 .21.08l.55 1.2a.18.18 0 0 1-.08.22Zm-1.09-2.4a.16.16 0 0 1-.15-.09l-.54-1.2a.16.16 0 0 1 .29-.13l.55 1.2a.17.17 0 0 1-.08.21Zm-1.09-2.39a.15.15 0 0 1-.14-.1l-.55-1.19a.17.17 0 0 1 .08-.22.16.16 0 0 1 .21.08l.55 1.2a.16.16 0 0 1-.08.21Zm-1.09-2.4a.14.14 0 0 1-.14-.09l-.55-1.2a.16.16 0 0 1 .08-.21.15.15 0 0 1 .21.08l.55 1.2a.16.16 0 0 1-.08.21ZM314.8 141.38a.16.16 0 0 1-.14-.1l-.27-.58a.16.16 0 0 1 .08-.21.15.15 0 0 1 .21.08l.27.58a.15.15 0 0 1-.08.21ZM314.36 108.3a.17.17 0 0 1-.11-.28l.44-.46a.16.16 0 0 1 .23 0 .17.17 0 0 1 0 .23l-.44.47a.18.18 0 0 1-.12.04ZM295.43 128.07a.15.15 0 0 1-.11 0 .17.17 0 0 1 0-.23l.86-.9a.16.16 0 0 1 .22 0 .16.16 0 0 1 0 .23l-.86.9a.17.17 0 0 1-.11 0Zm1.72-1.79a.16.16 0 0 1-.11 0 .16.16 0 0 1 0-.22l.86-.9a.15.15 0 0 1 .22 0 .16.16 0 0 1 0 .23l-.86.9a.18.18 0 0 1-.11-.01Zm1.72-1.8a.16.16 0 0 1-.11 0 .16.16 0 0 1 0-.22l.86-.9a.16.16 0 0 1 .23 0 .17.17 0 0 1 0 .23l-.86.9a.17.17 0 0 1-.12-.01Zm1.72-1.8a.15.15 0 0 1-.11 0 .17.17 0 0 1 0-.23l.86-.9a.15.15 0 0 1 .23 0 .16.16 0 0 1 0 .22l-.86.9a.17.17 0 0 1-.12.01Zm1.73-1.8a.17.17 0 0 1-.12 0 .17.17 0 0 1 0-.23l.86-.9a.17.17 0 0 1 .23 0 .16.16 0 0 1 0 .22l-.86.9a.13.13 0 0 1-.11.01Zm1.72-1.8a.19.19 0 0 1-.12 0 .17.17 0 0 1 0-.23l.86-.9a.16.16 0 0 1 .23.23l-.86.89a.13.13 0 0 1-.15.01Zm1.72-1.79a.17.17 0 0 1-.12-.28l.86-.9a.16.16 0 1 1 .23.23l-.86.9a.16.16 0 0 1-.11.05Zm1.72-1.8a.16.16 0 0 1-.11 0 .15.15 0 0 1 0-.22l.86-.9a.16.16 0 0 1 .23 0 .17.17 0 0 1 0 .23l-.86.9a.16.16 0 0 1-.12-.01Zm1.72-1.8a.13.13 0 0 1-.11 0 .15.15 0 0 1 0-.22l.86-.9a.16.16 0 1 1 .23.22l-.86.9a.16.16 0 0 1-.12 0Zm1.72-1.8a.15.15 0 0 1-.11 0 .16.16 0 0 1 0-.23l.86-.9a.16.16 0 0 1 .23 0 .15.15 0 0 1 0 .22l-.85.9a.21.21 0 0 1-.13.01Zm1.72-1.8a.15.15 0 0 1-.11 0 .16.16 0 0 1 0-.23l.86-.9a.17.17 0 0 1 .23 0 .15.15 0 0 1 0 .22l-.86.9a.16.16 0 0 1-.12.01ZM294.13 129.44a.16.16 0 0 1-.11-.05.15.15 0 0 1 0-.22l.45-.47a.16.16 0 0 1 .22 0 .15.15 0 0 1 0 .22l-.45.47a.16.16 0 0 1-.11.05ZM304.47 135.41a.16.16 0 0 1-.16-.16v-.65a.16.16 0 1 1 .32 0v.65a.16.16 0 0 1-.16.16ZM304.47 133.57a.16.16 0 0 1-.16-.16v-1.19a.16.16 0 1 1 .32 0v1.19a.16.16 0 0 1-.16.16Zm0-2.38a.16.16 0 0 1-.16-.16v-1.19a.16.16 0 1 1 .32 0V131a.16.16 0 0 1-.16.19Zm0-2.38a.16.16 0 0 1-.16-.16v-1.19a.16.16 0 1 1 .32 0v1.19a.16.16 0 0 1-.16.16Zm0-2.38a.17.17 0 0 1-.16-.17v-1.19a.16.16 0 1 1 .32 0v1.19a.17.17 0 0 1-.16.17Zm0-2.39a.16.16 0 0 1-.16-.16v-1.19a.16.16 0 1 1 .32 0v1.19a.16.16 0 0 1-.16.12Zm0-2.38a.16.16 0 0 1-.16-.16v-1.19a.16.16 0 1 1 .32 0v1.19a.16.16 0 0 1-.16.16Z" style="fill:#ba68c8"/><path d="M304.47 119.28a.16.16 0 0 1-.16-.16v-.65a.17.17 0 0 1 .08-.14.22.22 0 0 1 .16 0l.55.33a.15.15 0 0 1 .06.22.16.16 0 0 1-.22.05l-.31-.18v.37a.16.16 0 0 1-.16.16ZM313.21 123.68a.11.11 0 0 1-.08 0l-1-.59a.15.15 0 0 1-.06-.22.16.16 0 0 1 .22-.06l1 .59a.17.17 0 0 1 .06.22.16.16 0 0 1-.14.06Zm-2-1.18h-.08l-1-.59a.16.16 0 0 1-.06-.22.16.16 0 0 1 .22-.06l1 .59a.15.15 0 0 1 .06.22.16.16 0 0 1-.19.06Zm-2-1.18h-.08l-1-.59a.18.18 0 0 1-.06-.22.17.17 0 0 1 .22-.06l1 .59a.17.17 0 0 1 .06.22.17.17 0 0 1-.23.06Zm-2.05-1.18h-.08l-1-.59a.16.16 0 0 1-.06-.22.15.15 0 0 1 .22-.06l1 .59a.16.16 0 0 1 .06.22.17.17 0 0 1-.23.06ZM314.79 124.59a.12.12 0 0 1-.08 0l-.56-.32a.17.17 0 0 1-.06-.22.18.18 0 0 1 .22-.06l.56.33a.15.15 0 0 1 .06.21.14.14 0 0 1-.14.06ZM304.47 102.41a.16.16 0 0 1-.16-.16v-.65a.16.16 0 1 1 .32 0v.65a.16.16 0 0 1-.16.16ZM304.47 116.7a.16.16 0 0 1-.16-.16v-1.19a.16.16 0 1 1 .32 0v1.19a.16.16 0 0 1-.16.16Zm0-2.38a.16.16 0 0 1-.16-.16V113a.16.16 0 1 1 .32 0v1.19a.16.16 0 0 1-.16.13Zm0-2.38a.16.16 0 0 1-.16-.16v-1.19a.16.16 0 1 1 .32 0v1.19a.16.16 0 0 1-.16.16Zm0-2.39a.16.16 0 0 1-.16-.16v-1.19a.16.16 0 1 1 .32 0v1.19a.16.16 0 0 1-.16.16Zm0-2.38a.16.16 0 0 1-.16-.16v-1.19a.16.16 0 1 1 .32 0V107a.16.16 0 0 1-.16.17Zm0-2.38a.16.16 0 0 1-.16-.16v-1.19a.16.16 0 1 1 .32 0v1.19a.16.16 0 0 1-.16.16Z" style="fill:#ba68c8"/><path d="M304.47 118.54h-.08l-.56-.33a.16.16 0 1 1 .16-.27l.32.18v-.37a.16.16 0 0 1 .32 0v.65a.17.17 0 0 1-.08.14ZM302.89 117.62a.11.11 0 0 1-.08 0l-1-.59a.17.17 0 0 1-.06-.22.18.18 0 0 1 .22-.06l1 .59a.18.18 0 0 1 .06.22.15.15 0 0 1-.14.06Zm-2.05-1.18a.11.11 0 0 1-.08 0l-1-.59a.15.15 0 0 1-.06-.22.16.16 0 0 1 .22-.06l1 .59a.17.17 0 0 1 .06.22.16.16 0 0 1-.14.06Zm-2-1.18h-.08l-1-.59a.16.16 0 0 1-.06-.22.16.16 0 0 1 .22-.06l1 .59a.15.15 0 0 1 .06.22.16.16 0 0 1-.19.06Zm-2-1.18h-.08l-1-.59a.18.18 0 0 1-.06-.22.17.17 0 0 1 .22-.06l1 .59a.17.17 0 0 1 .06.22.17.17 0 0 1-.23.06ZM294.7 112.9h-.08l-.56-.32a.18.18 0 0 1-.06-.22.16.16 0 0 1 .22-.06l.56.32a.16.16 0 0 1 .06.22.17.17 0 0 1-.14.06Z" style="fill:#ba68c8"/><path d="M307.92 136.44a7.16 7.16 0 0 1-3.57-1.06c-5.75-3.33-10.44-13.6-10.44-22.9 0-5.47 1.66-9.7 4.44-11.3 1.81-1.05 3.95-.93 6.17.36 5.76 3.32 10.44 13.6 10.44 22.9 0 5.47-1.65 9.69-4.43 11.3a5.16 5.16 0 0 1-2.61.7Zm-7-35.63a4.82 4.82 0 0 0-2.45.66c-2.67 1.54-4.26 5.66-4.26 11 0 9.19 4.61 19.33 10.27 22.6 2.12 1.23 4.13 1.35 5.84.37 2.67-1.55 4.27-5.66 4.27-11 0-9.2-4.61-19.34-10.28-22.61a6.78 6.78 0 0 0-3.31-1.02ZM320.12 143.64l17.46 10.08-17.46-38.56v28.48z" style="fill:#ba68c8"/><path d="M271.86 65.27c0-.7.5-1 1.11-.63l85.08 49.12a2.47 2.47 0 0 1 1.11 1.93v4.76L271.86 70Z" style="fill:#37474f"/><path d="M314.81 165.47a3.85 3.85 0 0 1 1.74 3c0 1.11-.78 1.57-1.74 1a3.85 3.85 0 0 1-1.75-3c0-1.11.78-1.56 1.75-1Z" style="fill:#455a64"/><path d="M366.64 111.34a3.88 3.88 0 0 1 .55 1.84v78.73l3.49-2v-78.75a3.83 3.83 0 0 0-.55-1.84Z" style="fill:#263238"/><path d="m323.12 242-53.91-31.13a2 2 0 0 0-1.82 0l-32.48 18.75a.56.56 0 0 0 0 1.06l53.91 31.12a2 2 0 0 0 1.83 0l32.47-18.75a.55.55 0 0 0 0-1.05Z" style="opacity:.15"/><path d="m322.23 238.65-52.42-30.27a2 2 0 0 0-1.78 0l-31.57 18.23a2 2 0 0 0-.89 1.54v.36a2 2 0 0 0 .89 1.54l52.42 30.26a1.93 1.93 0 0 0 1.78 0l31.57-18.23a2 2 0 0 0 .89-1.54v-.35a2 2 0 0 0-.89-1.54Z" style="fill:#ba68c8"/><path d="m322.23 238.65-52.42-30.27a2 2 0 0 0-1.78 0l-31.57 18.23c-.5.29-.5.74 0 1l52.42 30.26a1.93 1.93 0 0 0 1.78 0l31.57-18.23a.54.54 0 0 0 0-.99Z" style="fill:#ba68c8"/><path d="m322.23 238.65-52.42-30.27a2 2 0 0 0-1.78 0l-31.57 18.23c-.5.29-.5.74 0 1l52.42 30.26a1.93 1.93 0 0 0 1.78 0l31.57-18.23a.54.54 0 0 0 0-.99Z" style="opacity:.2"/><path d="M278.32 218.13a2 2 0 0 0-1.78 0c-3.91 2.22-19.36 11.17-23.24 13.42a.54.54 0 0 0 0 1c5.11 3 30.67 17.69 35.75 20.64a2 2 0 0 0 1.78 0l23.24-13.41c.49-.29.49-.75 0-1ZM261.87 219.7c1.56.9 1.56 2.36 0 3.26a6.25 6.25 0 0 1-5.65 0c-1.56-.9-1.56-2.36 0-3.26a6.19 6.19 0 0 1 5.65 0ZM253.09 223.09l2.53 1.48c.74.42.87 1 .29 1.37a2.68 2.68 0 0 1-2.37-.17l-2.54-1.48c-.74-.43-.87-1-.29-1.37a2.67 2.67 0 0 1 2.38.17ZM250.13 224.8l2.53 1.48c.74.43.87 1 .29 1.37a2.65 2.65 0 0 1-2.37-.17L248 226c-.74-.43-.87-1-.29-1.38a2.71 2.71 0 0 1 2.42.18ZM247.16 226.52l2.54 1.48c.74.42.87 1 .29 1.37a2.65 2.65 0 0 1-2.37-.17l-2.54-1.48c-.74-.42-.87-1-.29-1.37a2.65 2.65 0 0 1 2.37.17ZM270.11 213.3l2.53 1.48c.74.42.87 1 .3 1.37a2.67 2.67 0 0 1-2.38-.17L268 214.5c-.73-.42-.86-1-.29-1.37a2.7 2.7 0 0 1 2.4.17ZM267.15 215l2.53 1.48c.74.42.87 1 .29 1.37a2.68 2.68 0 0 1-2.37-.17l-2.54-1.48c-.73-.42-.87-1-.29-1.37a2.67 2.67 0 0 1 2.38.17ZM264.19 216.73l2.53 1.48c.74.43.87 1 .29 1.37a2.65 2.65 0 0 1-2.37-.16l-2.54-1.48c-.74-.43-.87-1-.29-1.37a2.67 2.67 0 0 1 2.38.16Z" style="fill:#37474f"/><path d="M289.77 258.12v2.4a2 2 0 0 0 .89-.2l31.57-18.24a1.94 1.94 0 0 0 .9-1.54v-.35a2 2 0 0 0-.73-1.43c.32.28.26.66-.17.92l-31.57 18.22a1.73 1.73 0 0 1-.89.22Z" style="opacity:.30000000000000004"/><path d="M235.56 228.15v.36a2 2 0 0 0 .9 1.54l52.41 30.27a1.87 1.87 0 0 0 .9.2v-2.4a1.77 1.77 0 0 1-.9-.22l-52.41-30.26c-.43-.25-.49-.63-.17-.92a2 2 0 0 0-.73 1.43Z" style="opacity:.5"/><path d="M269.19 172a3.1 3.1 0 0 1-2.19 1.3 1.11 1.11 0 0 1-.78-.14l-21.34-12.5-1.92-2.25a.24.24 0 0 1 .24-.38l4.28 1.13 21.64 12.5a.28.28 0 0 1 .07.34Z" style="opacity:.15"/><path d="m248.37 157.52-4.43-.86a.13.13 0 0 0-.13.22l3 3.41Z" style="fill:#ffa8a7"/><path d="M243.81 156.88a.13.13 0 0 1 .13-.22l.87.17a.75.75 0 0 0-.36.7v.08Z" style="fill:#263238"/><path d="m263.35 169.77-.36-.21-.44-.25-15.73-9a2 2 0 0 1 .12-1.47 2.07 2.07 0 0 1 1.43-1.29l15.72 9 .84.48c-.56-.29-2.14 2.45-1.58 2.74Z" style="fill:#ba68c8"/><path d="m262 169-.8-.47c-.24-.12-.11-.71.17-1.32.37-.8 1.1-1.59 1.42-1.42l.59.34.22.13c-.32-.17-1.05.61-1.42 1.42-.27.58-.4 1.15-.2 1.3Z" style="fill:#ebebeb"/><path d="M261.76 168.86c-.55-.29 1-3 1.59-2.74l.82.47c-.56-.3-2.15 2.44-1.59 2.73Z" style="fill:#ba68c8"/><path d="m263.35 169.77-.8-.46c-.55-.29 1-2.94 1.54-2.77l.81.46c-.53-.26-2.11 2.48-1.55 2.77Z" style="fill:#ebebeb"/><path d="m243.79 156.73.15-.07 3.22 1.76 16.63 9.58c0-.05.06-.05.08 0-.48.74-.83 1.67-.52 1.83l-.36-.21-.44-.25-15.73-9-3-3.41a.14.14 0 0 1-.03-.23Z" style="opacity:.15"/><path d="m266.75 171.71-3.4-1.94c-.24-.13-.11-.71.17-1.31.36-.81 1.09-1.6 1.41-1.44l3.41 2c.68.39.05 1.86-.7 2.51a.8.8 0 0 1-.89.18Z" style="fill:#f28f8f"/><path d="M266.54 170.66a2.46 2.46 0 0 1 1.39-1.68.55.55 0 0 1 .51.07c.51.47-.09 1.82-.8 2.44a.81.81 0 0 1-.88.23c-.25-.15-.35-.54-.22-1.06Z" style="opacity:.1"/><path d="m313.53 222 6.52 3.76a7.17 7.17 0 0 0 7.2-.38l10.75-7.89c1.92-1.4 1.81-3.5-.24-4.69l-3.28-1.89a8.86 8.86 0 0 0-7.56-.23l-13.28 7.2c-2.11 1.06-2.17 2.89-.11 4.12Z" style="opacity:.15"/><path d="m338.19 214.07-7.45 5.82-5.49 4.3a4.68 4.68 0 0 1-1.75.42 4.82 4.82 0 0 1-2.61-.55l-5.84-3.37a4.12 4.12 0 0 1-1.18-5.9l.17-.24a7.77 7.77 0 0 1 4.7-3l3-.59c4.78-1 8.71-1.44 9.17-1.13l7.32 4.23Z" style="fill:#fff"/><path d="m334 217.33.41-.33-6.56-3.79 5.74-1.78-.58-.33-5.74 1.77-3.92-2.26-.74.14Z" style="fill:#455a64"/><path d="m325.89 223.84 5.22-3.77 7.06-5.1v-.8a.09.09 0 0 0 0-.06c-.53-.18-3.59.74-7.29 2.21l-2.45 1a7.74 7.74 0 0 0-4.91 7.24v.13a4.68 4.68 0 0 0 1.75-.42Z" style="fill:#e6e6e6"/><path d="M347 227.76a1 1 0 0 1 .71-.46l50.87-7.87h.2a1 1 0 0 1 .92.51l2.2 4.74 2.72 2.72a.77.77 0 0 1 .17.27l1.51.87a.75.75 0 0 1 0 1.34l-37.24 21.5a1.19 1.19 0 0 1-.58.15 1.25 1.25 0 0 1-.59-.15l-7.71-4.45a.78.78 0 0 1-.41-.67.75.75 0 0 1 .41-.67l9.06-5.24-10.6 3.54a1.23 1.23 0 0 1-.39.06 1.09 1.09 0 0 1-.77-.29L352 238.2a.76.76 0 0 1-.2-.7.84.84 0 0 1 .58-.59l12-4L351 235h-.2a1 1 0 0 1-.93-.52l-2.87-6.07a.71.71 0 0 1 0-.65Z" style="opacity:.15"/><path d="M360.37 244a.21.21 0 0 1 .12-.17l37.24-21.5a.68.68 0 0 1 .59 0l7.71 4.45a.21.21 0 0 1 .12.17v1.16a.21.21 0 0 1-.12.17l-37.24 21.5a.68.68 0 0 1-.59 0l-7.71-4.45a.21.21 0 0 1-.12-.17Z" style="fill:#f0f0f0"/><path d="M368.5 248.69v1.15a.54.54 0 0 0 .29-.07l37.21-21.5a.19.19 0 0 0 .12-.17V227c0 .07 0 .11-.12.16l-37.24 21.5a.62.62 0 0 1-.26.03Z" style="fill:#e0e0e0"/><path d="m397.73 222.32-37.24 21.5a.18.18 0 0 0 0 .34l7.71 4.45a.62.62 0 0 0 .59 0l37.21-21.5c.16-.09.16-.24 0-.34l-7.71-4.45a.68.68 0 0 0-.56 0Z" style="fill:#fafafa"/><path d="m398.02 224.28 4.61 2.66-4.61 2.67-4.61-2.67 4.61-2.66z" style="fill:#f28f8f"/><path d="m398.02 224.28 4.61 2.66-4.61 2.67-4.61-2.67 4.61-2.66z" style="fill:#f0f0f0;opacity:.9"/><path d="m386.21 231.1 4.61 2.66-4.61 2.67-4.61-2.67 4.61-2.66z" style="fill:#f28f8f"/><path d="m386.21 231.1 4.61 2.66-4.61 2.67-4.61-2.67 4.61-2.66z" style="fill:#f0f0f0;opacity:.6000000000000001"/><path d="m380.31 234.51 4.61 2.66-4.61 2.67-4.62-2.67 4.62-2.66z" style="fill:#f28f8f"/><path d="m380.31 234.51 4.61 2.66-4.61 2.67-4.62-2.67 4.62-2.66z" style="fill:#f0f0f0;opacity:.5"/><path d="m374.4 237.92 4.61 2.66-4.61 2.66-4.61-2.66 4.61-2.66z" style="fill:#f28f8f"/><path d="m374.4 237.92 4.61 2.66-4.61 2.66-4.61-2.66 4.61-2.66z" style="fill:#f0f0f0;opacity:.4"/><path d="m368.5 241.33 4.61 2.66-4.61 2.66-4.62-2.66 4.62-2.66zM392.12 227.69l4.61 2.66-4.61 2.67-4.62-2.67 4.62-2.66z" style="fill:#f28f8f"/><path d="m392.12 227.69 4.61 2.66-4.61 2.67-4.62-2.67 4.62-2.66z" style="fill:#f0f0f0;opacity:.8"/><path d="M397.56 223.65a1 1 0 0 0 .93 0 .28.28 0 0 0 0-.54 1 1 0 0 0-.93 0 .28.28 0 0 0 0 .54Z" style="fill:#263238"/><path d="M352.4 235.41c0-.08.07-.16.21-.21l45.6-15.2a.59.59 0 0 1 .57.09l5.46 5.45a.15.15 0 0 1 .05.13v1.14c0 .09-.07.17-.21.22l-45.6 15.2a.59.59 0 0 1-.57-.09l-5.46-5.45a.21.21 0 0 1-.05-.13Z" style="fill:#f0f0f0"/><path d="M358.15 241.09v1.16a.62.62 0 0 0 .33 0l45.6-15.2c.14-.05.22-.13.21-.22v-1.14c0 .08-.08.16-.21.2l-45.6 15.21a.62.62 0 0 1-.33-.01Z" style="fill:#e0e0e0"/><path d="m398.21 220-45.6 15.2c-.2.07-.27.22-.16.33l5.46 5.46a.61.61 0 0 0 .57.08l45.6-15.2c.2-.06.27-.21.16-.33l-5.46-5.45a.59.59 0 0 0-.57-.09Z" style="fill:#fafafa"/><path d="m397.62 221.94 3.26 3.26-5.65 1.88-3.26-3.26 5.65-1.88zM383.16 226.76l3.26 3.26-5.65 1.88-3.26-3.26 5.65-1.88z" style="fill:#ba68c8"/><path d="m383.16 226.76 3.26 3.26-5.65 1.88-3.26-3.26 5.65-1.88z" style="opacity:.25"/><path d="m375.92 229.17 3.27 3.26-5.65 1.88-3.27-3.26 5.65-1.88z" style="fill:#ba68c8"/><path d="m375.92 229.17 3.27 3.26-5.65 1.88-3.27-3.26 5.65-1.88z" style="opacity:.35000000000000003"/><path d="m368.69 231.58 3.26 3.26-5.65 1.89-3.26-3.26 5.65-1.89z" style="fill:#ba68c8"/><path d="m368.69 231.58 3.26 3.26-5.65 1.89-3.26-3.26 5.65-1.89z" style="opacity:.35000000000000003"/><path d="m361.46 233.99 3.26 3.26-5.65 1.89-3.26-3.26 5.65-1.89z" style="fill:#ba68c8"/><path d="m361.46 233.99 3.26 3.26-5.65 1.89-3.26-3.26 5.65-1.89z" style="opacity:.5"/><path d="m390.39 224.35 3.26 3.26-5.65 1.88-3.26-3.26 5.65-1.88z" style="fill:#ba68c8"/><path d="m390.39 224.35 3.26 3.26-5.65 1.88-3.26-3.26 5.65-1.88z" style="opacity:.15"/><path d="M397.45 221.26a.93.93 0 0 0 .9.14c.32-.1.43-.34.25-.52a1 1 0 0 0-.91-.14c-.31.11-.42.34-.24.52Z" style="fill:#263238"/><path d="M347.51 225.84c0-.1.12-.2.31-.23l50.87-7.86a.49.49 0 0 1 .51.17L402 224a.13.13 0 0 1 0 .06v1.16c0 .1-.12.2-.3.23l-50.87 7.87a.51.51 0 0 1-.51-.17l-2.83-6.08a.2.2 0 0 1 0-.07Z" style="fill:#f0f0f0"/><path d="M350.61 232.16v1.14a.52.52 0 0 0 .25 0l50.87-7.86c.18 0 .31-.13.31-.23v-1.16c0 .1-.13.2-.31.23l-50.87 7.87Z" style="fill:#e0e0e0"/><path d="m398.69 217.75-50.87 7.86c-.22 0-.36.17-.3.3l2.83 6.08a.49.49 0 0 0 .51.17l50.87-7.87c.22 0 .35-.16.29-.29l-2.82-6.08a.49.49 0 0 0-.51-.17Z" style="fill:#fafafa"/><path d="m397.25 219.53 1.68 3.64-6.3.97-1.69-3.64 6.31-.97z" style="fill:#ba68c8"/><path d="m397.25 219.53 1.68 3.64-6.3.97-1.69-3.64 6.31-.97z" style="fill:#fff;opacity:.9"/><path d="m381.11 222.02 1.69 3.64-6.3.98-1.69-3.64 6.3-.98z" style="fill:#ba68c8"/><path d="m381.11 222.02 1.69 3.64-6.3.98-1.69-3.64 6.3-.98z" style="fill:#fff;opacity:.75"/><path d="m373.05 223.27 1.68 3.64-6.3.97-1.68-3.63 6.3-.98z" style="fill:#ba68c8"/><path d="m373.05 223.27 1.68 3.64-6.3.97-1.68-3.63 6.3-.98z" style="fill:#fff;opacity:.7000000000000001"/><path d="m364.98 224.52 1.69 3.64-6.3.97-1.69-3.64 6.3-.97z" style="fill:#ba68c8"/><path d="m364.98 224.52 1.69 3.64-6.3.97-1.69-3.64 6.3-.97z" style="fill:#fff;opacity:.6000000000000001"/><path d="m356.91 225.77 1.69 3.64-6.3.97-1.69-3.64 6.3-.97zM389.18 220.78l1.69 3.63-6.31.98-1.68-3.64 6.3-.97z" style="fill:#ba68c8"/><path d="m389.18 220.78 1.69 3.63-6.31.98-1.68-3.64 6.3-.97z" style="fill:#fff;opacity:.8"/><path d="M397.38 218.85a.82.82 0 0 0 .81.27c.36-.05.57-.26.47-.47a.81.81 0 0 0-.81-.27c-.35.06-.56.27-.47.47Z" style="fill:#263238"/><path d="M329.86 276.5c4.47-2 11.59-2 15.91 0s4.32 5.23 0 7.22-11.44 2-15.91 0-4.46-5.22 0-7.22Z" style="opacity:.15"/><path d="M326.9 253.2h21.72L347 278.81c-.1.93-1 1.85-2.63 2.56a19.19 19.19 0 0 1-13 0c-1.71-.71-2.61-1.63-2.72-2.56Z" style="fill:#fafafa"/><path d="m348.62 253.23-.33 5.19a9.06 9.06 0 0 1-1.82 1c-4.69 1.95-12.44 1.95-17.3 0-.21-.08-.38-.17-.57-.26a10.05 10.05 0 0 1-1.37-.77l-.33-5.16Z" style="fill:#e0e0e0"/><path d="M326.51 254.07v-3.6h2.33c.31-.16.65-.32 1-.47 4.47-1.79 11.59-1.79 15.91 0 .36.15.68.31 1 .47H349v3.6c0 1.17-1.08 2.34-3.24 3.24-4.32 1.78-11.44 1.78-15.91 0-2.22-.9-3.34-2.07-3.34-3.24Z" style="fill:#ba68c8"/><path d="M326.51 254.07v-3.6h2.33c.31-.16.65-.32 1-.47 4.47-1.79 11.59-1.79 15.91 0 .36.15.68.31 1 .47H349v3.6c0 1.17-1.08 2.34-3.24 3.24-4.32 1.78-11.44 1.78-15.91 0-2.22-.9-3.34-2.07-3.34-3.24Z" style="opacity:.2"/><path d="M329.86 247.23c4.47-1.78 11.59-1.78 15.91 0s4.32 4.69 0 6.48-11.44 1.79-15.91 0-4.46-4.71 0-6.48Z" style="fill:#ba68c8"/><path d="m329.39 249.46.9-2.4h15l.9 2.4c.33.93-.45 1.91-2.36 2.63a20 20 0 0 1-12 0c-1.98-.72-2.83-1.7-2.44-2.63Z" style="fill:#ba68c8"/><path d="m329.39 249.46.9-2.4h15l.9 2.4c.33.93-.45 1.91-2.36 2.63a20 20 0 0 1-12 0c-1.98-.72-2.83-1.7-2.44-2.63Z" style="opacity:.2"/><path d="M332.48 245.38a17.87 17.87 0 0 1 10.64 0c2.89 1.09 2.89 2.85 0 3.94a17.87 17.87 0 0 1-10.64 0c-2.99-1.09-2.99-2.85 0-3.94Z" style="fill:#ba68c8"/><g style="opacity:.30000000000000004"><path d="M332.48 245.38a17.87 17.87 0 0 1 10.64 0c2.89 1.09 2.89 2.85 0 3.94a17.87 17.87 0 0 1-10.64 0c-2.99-1.09-2.99-2.85 0-3.94Z" style="fill:#fff"/></g><path d="M331.28 247.35c0 .05.08.19.33.38a5.28 5.28 0 0 0 1.22.62 15.69 15.69 0 0 0 5 .75 14.67 14.67 0 0 0 4.92-.75 4.48 4.48 0 0 0 1.18-.62c.24-.2.31-.34.31-.38s-.26-.53-1.49-1a14.93 14.93 0 0 0-4.92-.75 15.4 15.4 0 0 0-5 .76c-1.24.45-1.55.9-1.55.99Z" style="fill:#ba68c8"/><path d="M331.28 247.35c0 .05.08.19.33.38a5.28 5.28 0 0 0 1.22.62 15.69 15.69 0 0 0 5 .75 14.67 14.67 0 0 0 4.92-.75 4.48 4.48 0 0 0 1.18-.62c.24-.2.31-.34.31-.38s-.26-.53-1.49-1a14.93 14.93 0 0 0-4.92-.75 15.4 15.4 0 0 0-5 .76c-1.24.45-1.55.9-1.55.99Z" style="opacity:.2"/><path d="M331.61 247.73a5.28 5.28 0 0 0 1.22.62 15.69 15.69 0 0 0 5 .75 14.67 14.67 0 0 0 4.92-.75 4.48 4.48 0 0 0 1.18-.62 4.16 4.16 0 0 0-1.18-.63 14.93 14.93 0 0 0-4.92-.75 15.4 15.4 0 0 0-5 .76 4.58 4.58 0 0 0-1.22.62Z" style="fill:#ba68c8"/><path d="M334.6 247.79a1.55 1.55 0 0 0-1.18-.22c-.22.12 0 .42.39.67a1.52 1.52 0 0 0 1.18.23c.22-.13.01-.47-.39-.68Z"/><path d="M347.66 273c0 .95-1 1.9-2.85 2.62a23.07 23.07 0 0 1-14 0c-2-.72-2.94-1.67-2.94-2.62l-.61-9.25c0 1 1 2 3.13 2.78a24.44 24.44 0 0 0 14.85 0c2-.77 3-1.78 3-2.78Z" style="fill:#ffbda7"/><path d="M334.39 273.5a14.82 14.82 0 0 1-.83-1.58 4.7 4.7 0 0 0-2.42-2.13.32.32 0 0 0-.38.14 3.63 3.63 0 0 0 4.52 4.57c.06 0 .08-.15 0-.18a3.22 3.22 0 0 1-.89-.82ZM331.72 269.5a5 5 0 0 1 1.53.94 4.59 4.59 0 0 1 1.1 1.51 4.52 4.52 0 0 0 1.39 1.84.3.3 0 0 0 .42-.06 3.19 3.19 0 0 0-.75-3.9 3.29 3.29 0 0 0-3.73-.86.3.3 0 0 0 .04.53Z" style="fill:#b16668"/><path d="M223.81 127.71c-6.58 3.8-6.58 10 0 13.76s17.25 3.8 23.84 0 6.58-10 0-13.76-17.26-3.8-23.84 0Z" style="opacity:.15"/><path d="M250.78 130.1a9.51 9.51 0 0 0-4-4c-6.09-3.51-16-3.51-22 0a9.54 9.54 0 0 0-4 4h-.52v2.32c0 2.3 1.52 4.6 4.56 6.36 6.08 3.51 15.95 3.51 22 0 3-1.76 4.56-4.06 4.56-6.36v-2.32Z" style="fill:#ba68c8"/><path d="M250.78 130.1a9.51 9.51 0 0 0-4-4c-6.09-3.51-16-3.51-22 0a9.54 9.54 0 0 0-4 4h-.52v2.32c0 2.3 1.52 4.6 4.56 6.36 6.08 3.51 15.95 3.51 22 0 3-1.76 4.56-4.06 4.56-6.36v-2.32Z" style="opacity:.5"/><path d="M224.71 136.46c-6.09-3.51-6.09-9.21 0-12.72s15.95-3.51 22 0 6.08 9.21 0 12.72-15.92 3.54-22 0Z" style="fill:#ba68c8"/><path d="M224.71 136.46c-6.09-3.51-6.09-9.21 0-12.72s15.95-3.51 22 0 6.08 9.21 0 12.72-15.92 3.54-22 0Z" style="opacity:.2"/><path d="m239.11 128.71-2.92-1c12.5-35.64-16.7-47-17.94-47.5l1.08-2.9c.33.1 33.3 12.86 19.78 51.4Z" style="fill:#ba68c8"/><path d="M241.74 130.1a6 6 0 0 0-12 0 3 3 0 0 0 1.76 2.46 9.43 9.43 0 0 0 8.5 0 3 3 0 0 0 1.76-2.46Z" style="fill:#37474f"/><path d="M239.73 129.74c-.42 2.5-5.55 3.74-7.63 3.12a9.49 9.49 0 0 0 7.88-.3 3 3 0 0 0 1.76-2.46 6 6 0 0 0-6-6c1.45-.01 4.42 3.13 3.99 5.64Z" style="fill:#263238"/><path d="m219 78.1-1-1.2 3.66-3.18a.79.79 0 0 1 1.12.08.79.79 0 0 1-.08 1.12Z"/><path d="M221.24 80.12c.87-1.1.11-3.12-.9-4.28s-2.9-2.19-4.11-1.47-3.6 2.46-3.6 2.46l5.67 6.52s2.06-2.13 2.94-3.23Z" style="fill:#37474f"/><path d="M218.46 74.45c1.28 1.48 1.81 4.28-2 6.84l1.79 2.06s2.06-2.13 2.94-3.23.11-3.12-.9-4.28a5.72 5.72 0 0 0-1.83-1.39Z" style="fill:#263238"/><path d="M209.37 106.05c4.88-4.24 12.8-20.32 7.12-26.85s-22.71-.89-27.58 3.35" style="fill:#ba68c8"/><path d="M209.37 106.05c4.88-4.24 12.8-20.32 7.12-26.85s-22.71-.89-27.58 3.35" style="opacity:.2"/><path d="M187.86 89.52c-1.76-6.54 1.86-9.69 8.09-7s12.71 10.09 14.47 16.62-1.86 9.69-8.09 7-12.71-10.09-14.47-16.62Z" style="fill:#ba68c8"/><path d="M187.86 89.52c-1.76-6.54 1.86-9.69 8.09-7s12.71 10.09 14.47 16.62-1.86 9.69-8.09 7-12.71-10.09-14.47-16.62Z" style="opacity:.5"/><path d="m208.17 94.78.32-.31a31.13 31.13 0 0 0-8.34-9.53l-.32.26a6.35 6.35 0 1 0 8.34 9.58Z" style="fill:#ba68c8"/><path d="m208.17 94.78.32-.31a31.13 31.13 0 0 0-8.34-9.53l-.32.26a6.35 6.35 0 1 0 8.34 9.58Z" style="fill:#fff;opacity:.7000000000000001"/><path d="m336.75 72.85 47.77 27.59a2.45 2.45 0 0 1 1.12 1.93v45.52a2.45 2.45 0 0 1-1.12 1.93l-.71.41a2.44 2.44 0 0 1-2.23 0l-47.78-27.59a2.47 2.47 0 0 1-1.11-1.93V75.19a2.46 2.46 0 0 1 1.12-1.93l.71-.41a2.44 2.44 0 0 1 2.23 0Z" style="fill:#e0e0e0"/><path d="M332.73 74.86c.14-.46.57-.61 1.08-.31l47.77 27.59a2.26 2.26 0 0 1 .79.83l2.94-1.7a2.26 2.26 0 0 0-.79-.83l-47.77-27.59a2.52 2.52 0 0 0-2.24 0l-.7.41a2.43 2.43 0 0 0-1.08 1.6Z" style="fill:#fff"/><path d="m333.81 74.55 47.77 27.59a2.45 2.45 0 0 1 1.12 1.93v45.52c0 .71-.5 1-1.12.64l-47.78-27.59a2.47 2.47 0 0 1-1.11-1.93V75.19c0-.71.5-1 1.12-.64Z" style="fill:#f5f5f5"/><path d="M379.75 104.48 335.63 79v40.79l44.12 25.48v-40.79z" style="fill:#ba68c8"/><path d="M379.75 104.48 335.63 79v40.79l44.12 25.48v-40.79z" style="fill:#fff;opacity:.75"/><path d="m379.75 131.67-12.54-21.66-17.18 12.81 4.18-4.63-9.11-12.07-9.47 6.01v7.66l44.12 25.48v-13.6zM348.89 93.89a6.52 6.52 0 0 1 2.94 5.1c0 1.88-1.32 2.64-2.94 1.7a6.5 6.5 0 0 1-2.95-5.1c0-1.88 1.32-2.59 2.95-1.7ZM423.66 157.71a5.55 5.55 0 0 1 2.32 4.43c0 1.52-.83 2.3-1.91 1.93v32.26l11.76-24.67a2.12 2.12 0 0 0 0-1.51 75.19 75.19 0 0 1-5.91-22.54 1.77 1.77 0 0 0-.79-1.24l-11-6.34a.49.49 0 0 0-.8.41c-.73 6.87-2.84 12-5.69 15.39a1.72 1.72 0 0 0-.3 1.42c1.66 5.37 11.18 36.35 11.88 38.61V163.6a5.74 5.74 0 0 1-1.91-4.14c.04-1.71 1.07-2.46 2.35-1.75Z" style="fill:#ba68c8"/><path d="M406 160.35 417.88 199l.81-.47v.94l5.38-3.1 11.76-24.67a2.12 2.12 0 0 0 0-1.51 75.19 75.19 0 0 1-5.91-22.54 1.77 1.77 0 0 0-.79-1.24l-11-6.34a1.57 1.57 0 0 0-1.43 0l-3.95 2.28a1.85 1.85 0 0 0-.8 1.23c-.73 6.88-2.84 12-5.68 15.4a1.67 1.67 0 0 0-.27 1.37Z" style="fill:#ba68c8"/><path d="M416 162.57a5.74 5.74 0 0 0 1.91 4.14V199l.81-.47v-31.35c1.08.37 1.91-.42 1.91-1.94a5.57 5.57 0 0 0-2.32-4.43c-1.31-.73-2.31.05-2.31 1.76Z" style="opacity:.2"/><path d="M406 160.35 417.88 199v-32.29a5.74 5.74 0 0 1-1.91-4.14c0-1.71 1-2.49 2.31-1.76a5.57 5.57 0 0 1 2.32 4.43c0 1.52-.83 2.31-1.91 1.94v32.25l11.75-24.66a2.07 2.07 0 0 0 0-1.51 75.25 75.25 0 0 1-5.91-22.55 1.79 1.79 0 0 0-.79-1.24l-11-6.34a.5.5 0 0 0-.8.41c-.73 6.88-2.84 12-5.68 15.4a1.67 1.67 0 0 0-.26 1.41Z" style="fill:#ba68c8"/><path d="M424.34 150.08a1.59 1.59 0 0 1 .22.63 75.25 75.25 0 0 0 5.91 22.55 2 2 0 0 1 .13.83L436 171a2 2 0 0 0-.13-.83 75.26 75.26 0 0 1-5.91-22.54 1.63 1.63 0 0 0-.22-.64Z" style="opacity:.1"/><path d="M412 143.43a.48.48 0 0 1 .77-.3l11 6.35a1.65 1.65 0 0 1 .57.6l5.38-3.11a1.81 1.81 0 0 0-.56-.6l-11-6.34a1.57 1.57 0 0 0-1.43 0l-3.95 2.28a1.8 1.8 0 0 0-.78 1.12Z" style="opacity:.30000000000000004"/><path d="m432.36 136.52-17.39-10a1.59 1.59 0 0 0-1.44 0l-3.95 2.28a1.59 1.59 0 0 0-.71 1.24v7.66a1.57 1.57 0 0 0 .71 1.24L427 149a1.57 1.57 0 0 0 1.43 0l3.95-2.28a1.6 1.6 0 0 0 .72-1.24v-7.67a1.61 1.61 0 0 0-.74-1.29Z" style="fill:#ba68c8"/><path d="M408.87 129.88c.05-.37.35-.5.72-.29l17.39 10a1.42 1.42 0 0 1 .5.53l5.39-3.1a1.56 1.56 0 0 0-.51-.54l-17.39-10a1.59 1.59 0 0 0-1.44 0l-3.94 2.28a1.6 1.6 0 0 0-.72 1.12Z" style="fill:#fff;opacity:.5"/><path d="M427.09 149h.45a1.5 1.5 0 0 0 .87-.16l3.95-2.28a1.6 1.6 0 0 0 .72-1.24v-7.67a1.45 1.45 0 0 0-.21-.7l-5.39 3.1a1.4 1.4 0 0 1 .22.71v7.66c0 .33-.17.52-.4.52h-.1a.23.23 0 0 1-.11.06ZM418.69 199.43l5.38-3.1 11.75-24.67a2 2 0 0 0 .18-.66l-5.38 3.11a1.79 1.79 0 0 1-.16.68Z" style="opacity:.2"/><path d="M417.88 166.71V199l.81-.47v-31.35c1.08.37 1.91-.41 1.91-1.93v-.11Z" style="opacity:.15"/><path d="M393 157.43c0-.87.62-1.23 1.38-.79a3.05 3.05 0 0 1 1.37 2.38c0 .71-.41 1.07-1 .95.77 16.2 12.11 35.3 25.95 43.28 6.87 4 13.32 4.62 18.14 1.84 4.56-2.64 7.18-8.05 7.46-15.33a3.11 3.11 0 0 1-1-2.08c0-.88.62-1.23 1.37-.8a3.05 3.05 0 0 1 1.38 2.38c0 .75-.45 1.12-1.05.93-.37 7.34-3.11 12.82-7.81 15.53a13.88 13.88 0 0 1-7 1.8 24.23 24.23 0 0 1-11.88-3.63c-14.15-8.17-25.73-27.81-26.33-44.33a3 3 0 0 1-.98-2.13Z" style="fill:#455a64"/><path d="M394.39 186.94a3 3 0 0 1 1.31 1.92l49.74 28.72c.18-.54.69-.71 1.3-.36a3.05 3.05 0 0 1 1.38 2.38c0 .88-.62 1.24-1.38.8a3.07 3.07 0 0 1-1.33-2l-49.71-28.69c-.16.57-.68.76-1.31.4a3 3 0 0 1-1.38-2.38c-.01-.88.62-1.23 1.38-.79ZM444.83 188.45a1.95 1.95 0 1 0 1.95-1.95 1.95 1.95 0 0 0-1.95 1.95Z" style="fill:#455a64"/><path d="M444.9 218.77a2 2 0 1 0 2-2 2 2 0 0 0-2 2ZM392.32 188.57a2 2 0 1 0 2-1.95 2 2 0 0 0-2 1.95ZM392.5 158.19a2 2 0 1 0 2-2 2 2 0 0 0-2 2Z" style="fill:#455a64"/><path d="M207.57 328.28c-1.24 1.77-.8 5.75-1 7.42s-.17 3.32-.33 4.95c-.19 1.85-.36 3.39.62 5.11a8.62 8.62 0 0 0 6.4 3.89 19.19 19.19 0 0 0 7.66-.86 68 68 0 0 1 7.51-2c6.4-1 12.72.85 19.07-1.11a45 45 0 0 0 4.36-1.67 31.53 31.53 0 0 0 3.8-1.82c3-1.83 7.32-5.72 6.9-9.55-.37-3.43-2.53-5.74-6.55-5.56-5.18.22-10.31 1.4-15.49 1.28a66.77 66.77 0 0 1-9.8-.8c-3.58-.63-6.78-1.49-7.18-3.47-.63-3.13-7.55.1-10.32 1.45-.89.43-1.72 1-2.61 1.41a13.46 13.46 0 0 1-2.06.51 1.91 1.91 0 0 0-.98.82Z" style="fill:#263238"/><path d="m205 317.47 17.66-5.58s.21 9.27 1.06 11.5 3.45 3.58 7 4.21a66.77 66.77 0 0 0 9.8.8 41.8 41.8 0 0 0 4.19-.14c4.61-.48 9.51 3.45 2.85 6.62-6 2.85-14.43 2.43-21 2.8s-17.44-2.86-19.09-7.74Z" style="fill:#ffa8a7"/><path d="M218.14 253.41c4 16.28 4.88 65.67 4.88 65.67s-9.02 4.83-17.33 1.92L191 263.84Z" style="fill:#37474f"/><path d="M246.84 351.21c-1.23 1.78-.8 5.76-1 7.42s-.17 3.33-.34 4.95c-.18 1.86-.36 3.4.63 5.11a8.58 8.58 0 0 0 6.4 3.9 19.42 19.42 0 0 0 7.66-.86 69.51 69.51 0 0 1 7.5-2c6.41-1 12.73.86 19.08-1.1 1.48-.46 2.92-1.07 4.35-1.67a28.88 28.88 0 0 0 3.8-1.83c3-1.83 7.32-5.71 6.91-9.55-.38-3.42-2.53-5.73-6.56-5.56-5.18.23-10.3 1.4-15.48 1.28a67 67 0 0 1-9.81-.79c-3.58-.63-6.78-1.49-7.18-3.47-.63-3.14-7.54.09-10.32 1.45-.88.43-1.72 1-2.6 1.41a14.87 14.87 0 0 1-2.07.51 2 2 0 0 0-.97.8Z" style="fill:#263238"/><path d="m243.89 336.63 15.48-5.54 3.45 16c.4 2 3.6 2.84 7.18 3.47a67 67 0 0 0 9.81.79 39.1 39.1 0 0 0 4.19-.13c4.62-.47 9.52 3.46 2.85 6.63-6 2.84-14.43 2.43-21 2.8s-20.11-.72-19.08-7.74Z" style="fill:#ffa8a7"/><path d="M252 268c6.83 9.67 9.71 73.34 9.71 73.34s-8.19 8.53-16 5.5l-19.6-55.48Z" style="fill:#455a64"/><path d="M227.05 293.9s14.33-5.31 17.72-9.15c0 0-7.35 10.56-16.33 12.87Z" style="opacity:.15"/><path d="M170 436.66a1.62 1.62 0 0 0 1.62-1.63V330.69a1.62 1.62 0 1 0-3.24 0V435a1.62 1.62 0 0 0 1.62 1.66ZM105.39 398.68a1.63 1.63 0 0 0 1.51-1l32-81a1.62 1.62 0 1 0-3-1.19l-32 81a1.63 1.63 0 0 0 1.51 2.22Z" style="fill:#455a64"/><path d="M109.23 389a1.61 1.61 0 0 0 1.18-.51l59.54-63 59.43 62.73a1.62 1.62 0 1 0 2.36-2.23l-60.61-64a1.66 1.66 0 0 0-1.18-.51 1.64 1.64 0 0 0-1.18.51l-60.72 64.25a1.62 1.62 0 0 0 1.18 2.74Z" style="fill:#455a64"/><path d="M234.51 398.68a1.52 1.52 0 0 0 .59-.12 1.62 1.62 0 0 0 .92-2.1l-32-81a1.62 1.62 0 0 0-3 1.19l32 81a1.62 1.62 0 0 0 1.49 1.03Z" style="fill:#455a64"/><path d="M235.29 294.9c1.16-6.54-4.17-11.65-14.2-18.42A236.54 236.54 0 0 0 192 260.15c-8.39-3.85-17-3.5-27.72 2-14.93 7.67-59.85 34.91-59.85 34.91s67.18 37.94 80.1 36.24 45.22-22.7 47.78-30.1 2.98-8.3 2.98-8.3Z" style="fill:#ba68c8"/><path d="M235.29 294.9c1.16-6.54-4.17-11.65-14.2-18.42A236.54 236.54 0 0 0 192 260.15c-8.39-3.85-17-3.5-27.72 2-14.93 7.67-59.85 34.91-59.85 34.91s67.18 37.94 80.1 36.24 45.22-22.7 47.78-30.1 2.98-8.3 2.98-8.3Z" style="opacity:.4"/><path d="M178.05 325.33c9.64 8.72 19.72 1.21 35.66-9.14 18-11.7 21.58-21.29 21.58-21.29s0 7.18-1.35 10.55-4.26 7.18-17.27 16.15-22.44 13.46-31.19 15.13l-6.9-1" style="fill:#ba68c8"/><path d="M213.71 316.19c18-11.7 21.58-21.29 21.58-21.29s0 7.18-1.35 10.55-4.26 7.18-17.27 16.15-22.44 13.46-31.19 15.13l-6.9-1-.53-10.44c9.64 8.76 19.72 1.25 35.66-9.1Z" style="opacity:.5"/><path d="m107.59 386.45-4.23 11.16a1.43 1.43 0 0 0 0 .29.67.67 0 0 0 0 .2 1.25 1.25 0 0 0 .63.7 2.8 2.8 0 0 0 2.58 0 1.12 1.12 0 0 0 .5-.52v-.15l3.93-10.49ZM232.3 386.45l4.23 11.16a1 1 0 0 1 0 .29.67.67 0 0 1 0 .2 1.31 1.31 0 0 1-.64.7 2.78 2.78 0 0 1-2.57 0 1.07 1.07 0 0 1-.5-.52v-.15l-3.92-10.47ZM168.08 427v9.23a.92.92 0 0 0 .54.76 2.88 2.88 0 0 0 2.65 0 .91.91 0 0 0 .55-.76V427a3.94 3.94 0 0 0-3.74 0Z" style="fill:#ba68c8"/><path d="M124.83 273.93s42-18 50.58-22.26 24.13-10.6 32.26-8.49c5.49 1.43 8.64 3.38 10.58 10.61.37 1.35 2.12 14.21 2.12 14.21s-23.37 11-44 15.12-51.54-9.19-51.54-9.19Z" style="fill:#37474f"/><path d="M124.83 273.93c-5.2 21.87 8.43 34.13 16.6 38.85 7.17 4.14 25.92 14.14 45.9 6.09 13.34-5.38 49.33-29.12 49.33-29.12 3.89-6.32 18.83-8.38 17.72-13.44-.27-1.27-.38-2.63-.75-4-1.82-6.88-8.31-16.48-22.79-13.16-8.89 2-25.49 8-40.2 12.63-3.36 1.05-8.25-3.52-11-2.53-6.46 2.37-8.1 13.4-8.1 13.4Z" style="fill:#455a64"/><path d="m173.85 178.01-2.42 22.33-19.63-1.52 1.92-24.78 20.13 3.97z" style="fill:#ffa8a7"/><path d="M130.07 263.63c2.14-4.63 4.1-10.21 9.76-19.21-8-25.59-9.17-33.34-8.81-45 .2-6.25 9-16.73 16.6-15.43 2 .34 3.41.43 5.27.78.23 5.13 10.24 6.62 19.85 3.38a80.13 80.13 0 0 1 8.6 2.1c3.5 1.3 18.8 17.71 19.93 29.37.91 9.48-8.77 17.34-8.77 17.34.53 10 .2 23.6 0 41.74 0 0-3 1.09-7.72-1-4.87 7.77-18.36 20.23-33.17 18.57-25.61-2.87-24.86-21.71-24.86-21.71s1.83-7.72 3.32-10.93Z" style="fill:#ba68c8"/><path d="M130.07 263.63c2.14-4.63 4.1-10.21 9.76-19.21-8-25.59-9.17-33.34-8.81-45 .2-6.25 9-16.73 16.6-15.43 2 .34 3.41.43 5.27.78.23 5.13 10.24 6.62 19.85 3.38a80.13 80.13 0 0 1 8.6 2.1c3.5 1.3 18.8 17.71 19.93 29.37.91 9.48-8.77 17.34-8.77 17.34.53 10 .2 23.6 0 41.74 0 0-3 1.09-7.72-1-4.87 7.77-18.36 20.23-33.17 18.57-25.61-2.87-24.86-21.71-24.86-21.71s1.83-7.72 3.32-10.93Z" style="opacity:.7000000000000001"/><path d="M188.93 151.62s5.56 8.91 4.78 9.81-4.49 1.8-4.49 1.8Z" style="fill:#f28f8f"/><path d="M175.84 130.61c4.37 2.4 11.9 6.83 13.43 23.18 1.57 16.78-2.31 22.49-4.65 24.62-1.58 1.44-9.54 1.77-13.64.37-5.14-1.75-16.23-7.6-21.26-16.37-5.92-10.32-6.84-23.9.45-29 10.26-7.21 21.98-4.83 25.67-2.8Z" style="fill:#ffa8a7"/><path d="M173.7 179.4a21.53 21.53 0 0 0 10-.5 21.67 21.67 0 0 1-9.78-2.25Z" style="fill:#f28f8f"/><path d="M193.37 128.85a8.15 8.15 0 0 0-8.37-4.55 8.93 8.93 0 0 0-4.95-9.77 11.67 11.67 0 0 0-6.87-.55 34.85 34.85 0 0 0-6.62 2.23c-4.9 2-9.77 4.12-14.71 6.07a43.71 43.71 0 0 0-7.09 3.27 20.79 20.79 0 0 0-9.3 12.08 26.75 26.75 0 0 0-.78 9.3 38.48 38.48 0 0 0 3.11 11.68 45.13 45.13 0 0 0 6.43 10 71.62 71.62 0 0 0 9.2 9c5.87 2.81 12.74.91 12.74.91a47.29 47.29 0 0 0 8.8-12.8 7.32 7.32 0 0 1-3.5.3 8.35 8.35 0 0 1-4.43-2.24c-4-3.62-4.25-10.5 1-12.07s7.06 5.64 7.06 5.64c3.32-1.43 2.36-5.63 2.76-8a16.59 16.59 0 0 0 7.73-9.37 28 28 0 0 1 1.84 4.34c2-1.71 4.06-3.38 5.38-5.69a10.73 10.73 0 0 0 .57-9.78Z" style="fill:#ba68c8"/><path d="M193.37 128.85a8.15 8.15 0 0 0-8.37-4.55 8.93 8.93 0 0 0-4.95-9.77 11.67 11.67 0 0 0-6.87-.55 34.85 34.85 0 0 0-6.62 2.23c-4.9 2-9.77 4.12-14.71 6.07a43.71 43.71 0 0 0-7.09 3.27 20.79 20.79 0 0 0-9.3 12.08 26.75 26.75 0 0 0-.78 9.3 38.48 38.48 0 0 0 3.11 11.68 45.13 45.13 0 0 0 6.43 10 71.62 71.62 0 0 0 9.2 9c5.87 2.81 12.74.91 12.74.91a47.29 47.29 0 0 0 8.8-12.8 7.32 7.32 0 0 1-3.5.3 8.35 8.35 0 0 1-4.43-2.24c-4-3.62-4.25-10.5 1-12.07s7.06 5.64 7.06 5.64c3.32-1.43 2.36-5.63 2.76-8a16.59 16.59 0 0 0 7.73-9.37 28 28 0 0 1 1.84 4.34c2-1.71 4.06-3.38 5.38-5.69a10.73 10.73 0 0 0 .57-9.78Z" style="opacity:.4"/><path d="M178.58 335.77c-5.49-.27-9.79-4.3-22.84-9.74-24.11-10-42.18-18.08-49.07-30.71s-11.77-49.06-10-64.85a20.37 20.37 0 0 1 1.18-5.23l-1.7-.25 4.39-3.73c4.51-3.68 11.84-.4 17.36 2.6 15.78 8.59 28.12 16.93 37.88 47.06 7.34 22.67 12.18 43.34 22.31 54.4" style="fill:#ba68c8"/><path d="m97.81 225.24-1.7-.25 4.39-3.73c4.51-3.68 11.84-.4 17.36 2.6 15.78 8.59 28.12 16.93 37.88 47.06 7.34 22.67 12.18 43.34 22.31 54.4l.53 10.44c-5.49-.27-9.79-4.3-22.84-9.74-24.11-10-42.18-18.08-49.07-30.71s-11.77-49.06-10-64.85a20.37 20.37 0 0 1 1.14-5.22Z" style="opacity:.30000000000000004"/><path d="M113.29 227.75c15.78 8.59 28.12 16.93 37.87 47.06s15.1 56.75 34.32 61.92c0 0-8.69 3.45-35.33-7.81-8.48-3.59-18.76-10.13-25.52-13.92-13.24-7.43-21.26-13.52-22.53-15.79-7-12.57-11.77-49.07-10-64.86s13.28-10.9 21.19-6.6Z" style="fill:#ba68c8"/><path d="M271.68 237.83a.24.24 0 0 0 .27-.1l1.2-2a.24.24 0 0 0-.41-.25l-1.2 2a.23.23 0 0 0 .08.32Z" style="fill:#263238"/><path d="m277.37 233.45-4.16 3.21a.81.81 0 0 1-1.27-.85l1.36-5.11Z" style="fill:#ba68c8"/><path d="m277.37 233.45-4.16 3.21a.81.81 0 0 1-1.27-.85l1.36-5.11Z" style="opacity:.2"/><path d="M290.07 205.44a1.26 1.26 0 0 1 1.39-.32c1.5.39 3.46 2.15 2.61 3.22l-16.7 25.11a3.19 3.19 0 0 1-2.88-.8 3.12 3.12 0 0 1-1.19-2Z" style="fill:#ba68c8"/><path d="M290.07 205.44a1.26 1.26 0 0 1 1.39-.32c1.5.39 3.46 2.15 2.61 3.22l-16.7 25.11a3.19 3.19 0 0 1-2.88-.8 3.12 3.12 0 0 1-1.19-2Z" style="fill:#ba68c8"/><path d="M291.46 205.12a1.26 1.26 0 0 0-1.39.32c-.25.38.12 1.45 1.26 2.24 1.39.95 2.49 1 2.81.55.65-1.08-1.23-2.73-2.68-3.11Z" style="fill:#ba68c8"/><path d="M291.46 205.12a1.26 1.26 0 0 0-1.39.32c-.25.38.12 1.45 1.26 2.24 1.39.95 2.49 1 2.81.55.65-1.08-1.23-2.73-2.68-3.11Z" style="opacity:.2"/><path d="M292.82 203.87a1 1 0 1 1 1.74 1.13l-1.33 2a.5.5 0 0 1-.49.19 1.59 1.59 0 0 1-1.23-.8.49.49 0 0 1 0-.52Z" style="fill:#37474f"/><path d="M283.45 224.31s-1 1.58-1.89 2.84c-.71 1-1.1 1.5-1.61 1.62a4.34 4.34 0 0 1-4.06-2l1.31-2a11.4 11.4 0 0 0-4 .12 8.71 8.71 0 0 0-5.44 4.93c-2 4.56-1.62 5.27-7.28 5.68s-35.57.9-35.57.9c-3.56-4.13-16.68-19.36-21.74-25.39-5.88-7-17-22.39-21.81-20.83s-9.3 16.21-2.8 27.5c5.76 10 25.73 27.74 33.88 34.93.87.8 1.66 1.49 2.38 2.09l.14.13c5 4.07 7.16 3.57 13.14 2.42 7.14-1.37 40.85-8.21 47.6-11.2s12.87-11.1 12.85-15.21-5.1-6.53-5.1-6.53Z" style="fill:#ffa8a7"/><path d="M75.23 47.88a8.29 8.29 0 0 0-3.75-6.49 8.24 8.24 0 0 0-7.49 0L35.51 57.7a8.28 8.28 0 0 0-3.75 6.49v30.74a8.31 8.31 0 0 0 3.75 6.5 8.3 8.3 0 0 0 7.49 0l28.83-16.57c3.37-1.92 3.4-3.84 3.4-6.24Z" style="fill:#37474f"/><path d="M31.76 94.93a8.31 8.31 0 0 0 3.75 6.5 8.34 8.34 0 0 0 6.85.31c-1.76.67-3.1-.34-3.1-2.48V68.51a7.73 7.73 0 0 1 1.09-3.69l-7.49-4.32a7.63 7.63 0 0 0-1.1 3.69Z" style="fill:#263238"/><path d="M75.11 46.82c-.44-1.59-1.89-2.1-3.62-1.1L43 62a7.52 7.52 0 0 0-2.64 2.8l-7.49-4.31a7.52 7.52 0 0 1 2.64-2.8L64 41.4a8.32 8.32 0 0 1 7.5 0 8.27 8.27 0 0 1 3.61 5.42Z" style="fill:#455a64"/><path d="M67.57 55.55a5 5 0 0 1-2.07 4.16c-1.22.7-2-.16-2-1.81a4.82 4.82 0 0 1 2-4.17c1.27-.73 2.04.12 2.07 1.82ZM67.44 60.93l-.35 19.24-4.02 2.32.36-19.25 4.01-2.31zM56.48 60l-5 2.92-5.27 29.29 4-2.31 1.23-7.43 4.87-2.82 1.32 6 4.14-2.39ZM52 77.7s1.54-10 1.79-11.67c.25 1.43 1.93 9.52 1.93 9.52Z" style="fill:#ba68c8"/><path d="M173.51 48.57a8.28 8.28 0 0 0-3.75-6.49 8.32 8.32 0 0 0-7.5 0l-28.47 16.3a8.31 8.31 0 0 0-3.75 6.5v30.74a8.28 8.28 0 0 0 3.75 6.49 8.26 8.26 0 0 0 7.5 0l28.83-16.55c3.37-1.92 3.4-3.85 3.4-6.24Z" style="fill:#37474f"/><path d="M130 95.62a8.28 8.28 0 0 0 3.75 6.49 8.36 8.36 0 0 0 6.86.32c-1.76.67-3.11-.34-3.11-2.48V69.2a7.6 7.6 0 0 1 1.1-3.69l-7.49-4.33a7.67 7.67 0 0 0-1.1 3.7Z" style="fill:#263238"/><path d="M173.38 47.5c-.43-1.59-1.88-2.09-3.62-1.1l-28.48 16.31a7.44 7.44 0 0 0-2.64 2.8l-7.49-4.32a7.6 7.6 0 0 1 2.64-2.8l28.47-16.31a8.39 8.39 0 0 1 7.5 0 8.25 8.25 0 0 1 3.62 5.42Z" style="fill:#455a64"/><path d="M167.28 74.54a10.31 10.31 0 0 1-5.16 8.91 5.62 5.62 0 0 1-3.84.94l.66-4.46a4.33 4.33 0 0 0 3.18-.46A2.76 2.76 0 0 0 163.7 77c0-.93-.36-1.16-1.74-1.09-2.47.16-3.42-1.36-3.39-3.55a10.51 10.51 0 0 1 4.84-8.79 5.4 5.4 0 0 1 3.36-.89l-.65 4.32a3.64 3.64 0 0 0-2.58.44 2.66 2.66 0 0 0-1.41 2.31c0 .86.46 1 1.91 1 2.27-.11 3.21 1.11 3.24 3.79ZM155.81 63.19c-1.09-.72-2.72-.45-5 .87a36.06 36.06 0 0 0-5 3.42v24.91l3.67-2.11v-9a8.68 8.68 0 0 0 1.27-.63 13.29 13.29 0 0 0 5.32-5.73 15.74 15.74 0 0 0 1.5-6.92c0-2.45-.7-4.15-1.76-4.81Zm-5.11 13.06a5 5 0 0 1-1.23.57v-7.45a7.42 7.42 0 0 1 1.53-1.11c1.86-1.07 2.9-.29 2.91 2a6.76 6.76 0 0 1-3.21 5.99Z" style="fill:#ba68c8;fill-rule:evenodd"/><path d="M113.77 102.15a8.28 8.28 0 0 0-3.77-6.49 8.32 8.32 0 0 0-7.5 0L74.05 112a8.28 8.28 0 0 0-3.75 6.49v30.71a8.28 8.28 0 0 0 3.75 6.49 8.32 8.32 0 0 0 7.5 0l28.83-16.56c3.37-1.92 3.4-3.85 3.4-6.24Z" style="fill:#37474f"/><path d="M70.3 149.2a8.28 8.28 0 0 0 3.75 6.49 8.4 8.4 0 0 0 6.86.31c-1.76.67-3.11-.34-3.11-2.48v-30.74a7.63 7.63 0 0 1 1.1-3.69l-7.49-4.32a7.6 7.6 0 0 0-1.1 3.69Z" style="fill:#263238"/><path d="M113.64 101.09c-.43-1.59-1.88-2.1-3.62-1.11l-28.48 16.31a7.44 7.44 0 0 0-2.64 2.8l-7.49-4.32a7.49 7.49 0 0 1 2.64-2.77l28.47-16.31a8.32 8.32 0 0 1 7.5 0 8.25 8.25 0 0 1 3.62 5.4Z" style="fill:#455a64"/><path d="M88.94 120.57v5.95l4.96-10.05-4.96 4.1zM102.22 112.76l-5.52 1.81 5.52 4.81v-6.62zM101.81 120.53l-6.05-5.28-6.06 12.28.45-.26 5.14-2.97 6.52-3.77zM84.97 131.57l8.45 8.51-5.28-10.34-3.17 1.83zM98.95 134.41l6.89-14.89-2.58 1.49-4.31 13.4zM95.46 141.57l6.33-19.71-12.67 7.32 6.34 12.39zM87.8 123.33l-2.64 6.82 2.59-1.5.05-.02v-5.3zM103.47 119.58l2.82-1.63-2.94-4.18v5.88l.12-.07z" style="fill:#ba68c8"/></svg>