<svg xmlns="http://www.w3.org/2000/svg" viewBox="0 0 500 500"><path d="M76.35 452.7c-95.9-55.37-95.9-145.14 0-200.51s251.39-55.37 347.3 0 95.9 145.14 0 200.51-251.4 55.37-347.3 0Z" style="fill:#fafafa"/><path d="M454.94 400.17a.5.5 0 0 1-.17 0l-4.9-1.26a.46.46 0 0 1-.29-.27c-.05-.13-4.31-12.88 4.78-30.17 6.48-12.34 16.63-20.36 23.09-18.25a7.2 7.2 0 0 1 5 5.13 8.35 8.35 0 0 1-2.63 7.79c-.51.49-1.3 1.16-2.3 2-6.19 5.27-20.69 17.6-22.26 34.65a.46.46 0 0 1-.36.38Zm-4.63-2 4.2 1.08c1.82-17.13 16.29-29.44 22.5-34.72 1-.84 1.77-1.51 2.26-2a7.53 7.53 0 0 0 2.4-7 6.31 6.31 0 0 0-4.48-4.52c-6.09-2-15.79 5.86-22.09 17.84-8.26 15.74-5.29 27.58-4.79 29.29Z" style="fill:#ba68c8"/><path d="M452.16 399.45h-.06a.43.43 0 0 1-.43-.42c-.36-19.91 13.42-39.09 22.69-43a.42.42 0 0 1 .55.23.41.41 0 0 1-.22.55c-9.17 3.91-22.52 23.37-22.17 42.25a.43.43 0 0 1-.36.39Z" style="fill:#ba68c8"/><path d="M450 398.91a.37.37 0 0 1-.18 0l-3.33-1a.43.43 0 0 1-.28-.28c-.06-.19-5.91-19.21-1.6-44.83 2.2-13 9.81-25.78 18.09-30.27 4-2.15 7.9-2.42 11.64-.8a6.4 6.4 0 0 1 3.93 4c1.37 4.85-3.66 12.06-9 19.7-3.73 5.35-7.58 10.88-9.34 15.76a.42.42 0 0 1-.54.25.42.42 0 0 1-.26-.54c1.8-5 5.69-10.56 9.45-16 5.21-7.47 10.13-14.53 8.87-19a5.48 5.48 0 0 0-3.46-3.48 11.92 11.92 0 0 0-10.89.77c-8.08 4.37-15.5 16.85-17.66 29.66-4 24 .88 42.08 1.51 44.23l3.1.93a.43.43 0 0 1 .28.53.43.43 0 0 1-.33.37Z" style="fill:#ba68c8"/><path d="M449.22 386.79a.43.43 0 0 1-.46-.39c-2.5-30.79 14.68-55.45 19.76-59.68a.42.42 0 1 1 .54.65c-5 4.17-21.93 28.5-19.45 59a.43.43 0 0 1-.39.42ZM42.06 425.29a.45.45 0 0 1-.18-.3c-1.56-17.05-16.06-29.38-22.26-34.65-1-.85-1.79-1.52-2.3-2a8.35 8.35 0 0 1-2.63-7.79 7.2 7.2 0 0 1 5-5.13c6.47-2.11 16.61 5.91 23.1 18.25 9.08 17.29 4.82 30 4.77 30.17a.42.42 0 0 1-.29.27l-4.9 1.26a.39.39 0 0 1-.35-.07Zm0-31.24c-6.3-12-16-19.82-22.09-17.84a6.28 6.28 0 0 0-4.47 4.52 7.49 7.49 0 0 0 2.4 7c.48.47 1.26 1.14 2.25 2 6.21 5.28 20.68 17.59 22.51 34.72l4.19-1.08c.52-1.74 3.49-13.58-4.77-29.32Z" style="fill:#ba68c8"/><path d="M45 424.65a.42.42 0 0 0 .43-.42c.36-19.91-13.41-39.09-22.69-43a.42.42 0 0 0-.33.78c9.17 3.91 22.52 23.37 22.18 42.25a.41.41 0 0 0 .41.39Z" style="fill:#ba68c8"/><path d="M47.14 424.11a.41.41 0 0 0 .19 0l3.32-1a.41.41 0 0 0 .28-.28c.06-.19 5.92-19.21 1.6-44.83-2.2-13.05-9.81-25.78-18.09-30.27a12.79 12.79 0 0 0-11.63-.8 6.39 6.39 0 0 0-3.94 4c-1.37 4.85 3.67 12.06 9 19.7 3.73 5.35 7.59 10.88 9.34 15.76a.43.43 0 0 0 .55.25.42.42 0 0 0 .25-.54c-1.8-5-5.68-10.56-9.44-15.95-5.21-7.47-10.13-14.53-8.87-19a5.49 5.49 0 0 1 3.45-3.48 11.94 11.94 0 0 1 10.9.77c8.07 4.37 15.5 16.85 17.66 29.66 4 24-.89 42.08-1.51 44.23l-3.11.93a.43.43 0 0 0-.28.53.45.45 0 0 0 .33.32Z" style="fill:#ba68c8"/><path d="M48 412a.43.43 0 0 0 .46-.39c2.5-30.79-14.68-55.45-19.76-59.68a.41.41 0 0 0-.59.05.43.43 0 0 0 0 .6c5 4.17 21.93 28.5 19.46 59a.42.42 0 0 0 .43.42Z" style="fill:#ba68c8"/><path d="m287 306.44-20-11.53a4.77 4.77 0 0 0-4.32 0L37.52 425a1.32 1.32 0 0 0 0 2.5l20.16 11.73a4.75 4.75 0 0 0 4.31 0l44.37-25.7a18.94 18.94 0 0 0 1.87 1.24l32.49 18.76a31.27 31.27 0 0 0 28.79 0l62.68-36.19c4.65-2.69 7.32-6.7 7.32-11s-2.67-8.31-7.32-11l-30-17.3L287 308.93a1.31 1.31 0 0 0 0-2.49Z" style="fill:#e0e0e0"/><path d="M268.86 448.65c28-16.19 28-42.43 0-58.61s-73.49-16.19-101.52 0-28 42.43 0 58.61 73.49 16.18 101.52 0ZM452.15 436.28c24-13.84 24-36.28 0-50.12s-62.84-13.84-86.81 0-24 36.28 0 50.12 62.84 13.84 86.81 0ZM267.61 389.11l-41-23.64c-2-1.13-2-3 0-4.09l116.19-67.06a7.82 7.82 0 0 1 7.08 0L390.83 318c2 1.13 2 3 0 4.09L274.7 389.11a7.84 7.84 0 0 1-7.09 0Z" style="fill:#e0e0e0"/><path d="m234.53 364.91 34.9 20.16a5 5 0 0 0 4.54 0L385.1 321a5 5 0 0 0 2.26-3.93v-1.63a5 5 0 0 0-2.27-3.93l-35-20.12a5 5 0 0 0-4.53 0l-111.06 64a5 5 0 0 0-2.26 3.93V361a5.05 5.05 0 0 0 2.29 3.91Z" style="fill:#f0f0f0"/><path d="M345.7 291.33c1.72-1 3.52-.42 5.25.58L384.2 311c1.72 1 1.73 2.62 0 3.63l-109.4 63a6.24 6.24 0 0 1-6.24 0l-33.28-19.03a2.09 2.09 0 0 1 0-3.63Z" style="fill:#fafafa"/><path d="M235.27 357.4a1.22 1.22 0 0 1 .44-1.67l110.42-63.65c1.17-.67 2.53-.49 4.39.59l33.24 19.12a2 2 0 0 1 .75.68c.39.67-.4 1.22-.75 1.43L274.36 377a5.42 5.42 0 0 1-5.37 0l-33.28-19.12a1.16 1.16 0 0 1-.44-.44m-.76.43a2.1 2.1 0 0 0 .77.77l33.27 19.12a6.24 6.24 0 0 0 6.24 0l109.4-63c1.24-.71 1.59-1.74 1.08-2.63a2.9 2.9 0 0 0-1.07-1L351 291.91c-1.73-1-3.53-1.58-5.25-.58L235.28 355a2.1 2.1 0 0 0-.77 2.86Z" style="fill:#e0e0e0"/><path d="m234.5 355.42.77-.45a2.1 2.1 0 0 0 0 3.63l33.27 19.11a6.12 6.12 0 0 0 3.12.84h.08v7.08a4.66 4.66 0 0 1-2.32-.55l-34.9-20.16a5.06 5.06 0 0 1-2.28-3.93v-1.63a5 5 0 0 1 2.26-3.94Z" style="fill:#e6e6e6"/><path d="m267 358.75 11.9-1.32 4.35 2.51-22.94 2.67 4.59-13.27 4.38 2.53ZM291.82 344.47l-11.94 1.33-4.34-2.5 22.93-2.67-4.58 13.26-4.38-2.53ZM301.55 327.81l45.89-26.5a3.64 3.64 0 0 1 3.29-.05c.89.51.85 1.36-.09 1.9l-45.92 26.48a3.62 3.62 0 0 1-3.28.06c-.87-.51-.83-1.35.11-1.89ZM309.49 332.39l45.9-26.5a3.64 3.64 0 0 1 3.29-.05c.88.51.84 1.36-.09 1.9l-45.92 26.48a3.65 3.65 0 0 1-3.28.06c-.88-.51-.83-1.36.1-1.89ZM317.44 337l45.89-26.49a3.63 3.63 0 0 1 3.3-.05c.88.51.84 1.36-.09 1.9l-45.93 26.47a3.6 3.6 0 0 1-3.27.06c-.88-.54-.83-1.39.1-1.89Z" style="fill:#e0e0e0"/><path d="M162 78.41a1.7 1.7 0 0 1 2.12-.14l2.39 1.8a1.36 1.36 0 0 0 1.92-.29l4.57-6.36a2.17 2.17 0 0 0 .07-2.29l-1.85-2.86a2.73 2.73 0 0 1-.13-2.41c.59-1.23 1.12-2.49 1.59-3.76a4 4 0 0 1 1.7-1.93l4.51-2.24a3 3 0 0 0 1.45-2l.95-6.66a.9.9 0 0 0-.37-1h-.06l-5.53-3.2a1 1 0 0 0-.76-.09l-.52.12a3.31 3.31 0 0 1 .4-1.75l3.82-6a1.92 1.92 0 0 0-.2-2.2l-2.45-2.66a1 1 0 0 0-.34-.25L169.73 29a1.16 1.16 0 0 0-1.47.31l-3.59 4.32.14-2.4a.88.88 0 0 0-.4-.88l-5.59-3.23a.94.94 0 0 0-.81 0l-4.87 1.8a2.83 2.83 0 0 0-1.61 1.83l-1.39 6.22a4.23 4.23 0 0 1-1.44 2.15 32.18 32.18 0 0 0-2.7 2.18 1.7 1.7 0 0 1-.89.41l-3.77-2.18a1.37 1.37 0 0 0-1.77.39L135 46.28a2.17 2.17 0 0 0-.06 2.29l1.85 2.86a2.76 2.76 0 0 1 .13 2.41 41.08 41.08 0 0 0-1.59 3.76 4 4 0 0 1-1.7 1.93l-4.52 2.25a2.94 2.94 0 0 0-1.44 2l-1 6.66a.92.92 0 0 0 .4 1l5.58 3.22a1.06 1.06 0 0 0 .76.08l.51-.12a3.22 3.22 0 0 1-.4 1.75l-3.82 6a1.92 1.92 0 0 0 .2 2.2l2.45 2.66a1.42 1.42 0 0 0 .31.25l5.56 3.22a1.16 1.16 0 0 0 1.53-.26l3.59-4.32-.14 2.41a.88.88 0 0 0 .4.88l5.55 3.21a1 1 0 0 0 .84 0l4.87-1.8a2.83 2.83 0 0 0 1.63-1.82l1.39-6.22a4.17 4.17 0 0 1 1.44-2.15 34 34 0 0 0 2.68-2.22Zm-1-30.55a11.65 11.65 0 0 1 .68 6.55c-1 7.23-6.53 14.8-12.27 16.91a9.13 9.13 0 0 1-2.25.54 11.53 11.53 0 0 1-.68-6.57c1-7.23 6.53-14.8 12.26-16.91a9.25 9.25 0 0 1 2.19-.52Z" style="fill:#ba68c8"/><path d="M162 78.41a1.7 1.7 0 0 1 2.12-.14l2.39 1.8a1.36 1.36 0 0 0 1.92-.29l4.57-6.36a2.17 2.17 0 0 0 .07-2.29l-1.85-2.86a2.73 2.73 0 0 1-.13-2.41c.59-1.23 1.12-2.49 1.59-3.76a4 4 0 0 1 1.7-1.93l4.51-2.24a3 3 0 0 0 1.45-2l.95-6.66a.9.9 0 0 0-.37-1h-.06l-5.53-3.2a1 1 0 0 0-.76-.09l-.52.12a3.31 3.31 0 0 1 .4-1.75l3.82-6a1.92 1.92 0 0 0-.2-2.2l-2.45-2.66a1 1 0 0 0-.34-.25L169.73 29a1.16 1.16 0 0 0-1.47.31l-3.59 4.32.14-2.4a.88.88 0 0 0-.4-.88l-5.59-3.23a.94.94 0 0 0-.81 0l-4.87 1.8a2.83 2.83 0 0 0-1.61 1.83l-1.39 6.22a4.23 4.23 0 0 1-1.44 2.15 32.18 32.18 0 0 0-2.7 2.18 1.7 1.7 0 0 1-.89.41l-3.77-2.18a1.37 1.37 0 0 0-1.77.39L135 46.28a2.17 2.17 0 0 0-.06 2.29l1.85 2.86a2.76 2.76 0 0 1 .13 2.41 41.08 41.08 0 0 0-1.59 3.76 4 4 0 0 1-1.7 1.93l-4.52 2.25a2.94 2.94 0 0 0-1.44 2l-1 6.66a.92.92 0 0 0 .4 1l5.58 3.22a1.06 1.06 0 0 0 .76.08l.51-.12a3.22 3.22 0 0 1-.4 1.75l-3.82 6a1.92 1.92 0 0 0 .2 2.2l2.45 2.66a1.42 1.42 0 0 0 .31.25l5.56 3.22a1.16 1.16 0 0 0 1.53-.26l3.59-4.32-.14 2.41a.88.88 0 0 0 .4.88l5.55 3.21a1 1 0 0 0 .84 0l4.87-1.8a2.83 2.83 0 0 0 1.63-1.82l1.39-6.22a4.17 4.17 0 0 1 1.44-2.15 34 34 0 0 0 2.68-2.22Zm-1-30.55a11.65 11.65 0 0 1 .68 6.55c-1 7.23-6.53 14.8-12.27 16.91a9.13 9.13 0 0 1-2.25.54 11.53 11.53 0 0 1-.68-6.57c1-7.23 6.53-14.8 12.26-16.91a9.25 9.25 0 0 1 2.19-.52Z" style="fill:#fff;opacity:.2"/><path d="M167.21 38.45a2.36 2.36 0 0 0 2.2-.64l4.41-5.31a1.15 1.15 0 0 1 1.41-.34L169.72 29a1.17 1.17 0 0 0-1.47.31l-3.59 4.32-.19 3.2a1.35 1.35 0 0 0 1.31 1.41 8.37 8.37 0 0 1 1.43.21Zm8.15 6.62a1 1 0 0 0-.76-.09l-.52.12a2.5 2.5 0 0 0 .1.74 15.3 15.3 0 0 1 .46 2.24 1.21 1.21 0 0 0 1.5 1.07l4-.95a.93.93 0 0 1 .75.08ZM167.18 57.63c.89-6.23-1.81-10.17-6.26-9.76a11.51 11.51 0 0 1 .69 6.54c-1 7.23-6.52 14.8-12.27 16.91a8.68 8.68 0 0 1-2.24.53c1.33 2.86 4.19 4 7.81 2.69 5.74-2.11 11.23-9.68 12.27-16.91Z" style="opacity:.1"/><path d="M142.67 55.59a2.11 2.11 0 0 0-.33-.93l-1.84-2.87a2.2 2.2 0 0 1-.26-1.48l-5.57-3.22a2.14 2.14 0 0 0 .26 1.48l1.85 2.87a2.27 2.27 0 0 1 .3.94Zm-10 19a.91.91 0 0 1-.4-1l1-6.65a2.73 2.73 0 0 1 .76-1.45l-5.57-3.22a2.84 2.84 0 0 0-.76 1.45l-1 6.67a.9.9 0 0 0 .4 1Zm23.06-34.57 1.37-6.14a2.62 2.62 0 0 1 .78-1.29l-5.56-3.22a2.8 2.8 0 0 0-.79 1.29l-1.37 6.15Zm-17.49 50.69a2.21 2.21 0 0 1-.3-.25l-2.45-2.66a1.92 1.92 0 0 1-.2-2.2l3.82-6a2.88 2.88 0 0 0 .36-1.07l-5.57-3.22a2.88 2.88 0 0 1-.36 1.07l-3.82 6a1.93 1.93 0 0 0 .2 2.19l2.45 2.66a1 1 0 0 0 .31.25Zm10.93 1.9a.65.65 0 0 1-.17-.16.69.69 0 0 1-.18-.35 1.5 1.5 0 0 1 0-.38l.32-5.6a.87.87 0 0 0 0-.37 1.16 1.16 0 0 0-.29-.56 1.34 1.34 0 0 0-.39-.31l-.24-.11-.35-.07a7.94 7.94 0 0 1-1.42-.23 2.34 2.34 0 0 0-2.22.64l-.81 1-.15 2.41a.92.92 0 0 0 .41.89Z" style="fill:#ba68c8"/><path d="M142.67 55.59a2.11 2.11 0 0 0-.33-.93l-1.84-2.87a2.2 2.2 0 0 1-.26-1.48l-5.57-3.22a2.14 2.14 0 0 0 .26 1.48l1.85 2.87a2.27 2.27 0 0 1 .3.94Zm-10 19a.91.91 0 0 1-.4-1l1-6.65a2.73 2.73 0 0 1 .76-1.45l-5.57-3.22a2.84 2.84 0 0 0-.76 1.45l-1 6.67a.9.9 0 0 0 .4 1Zm23.06-34.57 1.37-6.14a2.62 2.62 0 0 1 .78-1.29l-5.56-3.22a2.8 2.8 0 0 0-.79 1.29l-1.37 6.15Zm-17.49 50.69a2.21 2.21 0 0 1-.3-.25l-2.45-2.66a1.92 1.92 0 0 1-.2-2.2l3.82-6a2.88 2.88 0 0 0 .36-1.07l-5.57-3.22a2.88 2.88 0 0 1-.36 1.07l-3.82 6a1.93 1.93 0 0 0 .2 2.19l2.45 2.66a1 1 0 0 0 .31.25Zm10.93 1.9a.65.65 0 0 1-.17-.16.69.69 0 0 1-.18-.35 1.5 1.5 0 0 1 0-.38l.32-5.6a.87.87 0 0 0 0-.37 1.16 1.16 0 0 0-.29-.56 1.34 1.34 0 0 0-.39-.31l-.24-.11-.35-.07a7.94 7.94 0 0 1-1.42-.23 2.34 2.34 0 0 0-2.22.64l-.81 1-.15 2.41a.92.92 0 0 0 .41.89Z" style="fill:#fff;opacity:.7000000000000001"/><path d="m156.49 89 1.39-6.22a4.17 4.17 0 0 1 1.44-2.15 34 34 0 0 0 2.68-2.22 1.7 1.7 0 0 1 2.12-.14l2.39 1.8a1.36 1.36 0 0 0 1.92-.29l4.57-6.36a2.17 2.17 0 0 0 .07-2.29l-1.85-2.86a2.73 2.73 0 0 1-.13-2.41c.59-1.23 1.12-2.49 1.59-3.76a4 4 0 0 1 1.7-1.93l4.51-2.24a3 3 0 0 0 1.45-2l.95-6.66a.88.88 0 0 0-1.15-1.06l-4 .95a1.21 1.21 0 0 1-1.5-1.07 16.73 16.73 0 0 0-.46-2.24 3.47 3.47 0 0 1 .3-2.49l3.82-6a1.92 1.92 0 0 0-.2-2.2l-2.45-2.66a1.17 1.17 0 0 0-1.82 0l-4.41 5.3a2.31 2.31 0 0 1-2.2.64 10.94 10.94 0 0 0-1.43-.23 1.36 1.36 0 0 1-1.31-1.41l.33-5.6a.84.84 0 0 0-1.22-.91l-4.87 1.79a2.87 2.87 0 0 0-1.61 1.84l-1.39 6.22a4.23 4.23 0 0 1-1.44 2.15 34.12 34.12 0 0 0-2.67 2.22 1.7 1.7 0 0 1-2.11.13l-2.39-1.79a1.37 1.37 0 0 0-1.93.29l-4.61 6.36a2.17 2.17 0 0 0-.06 2.29l1.85 2.86a2.76 2.76 0 0 1 .13 2.41 41.08 41.08 0 0 0-1.59 3.76 4 4 0 0 1-1.7 1.93L134.67 65a3 3 0 0 0-1.44 2l-1 6.66a.89.89 0 0 0 1.16 1.06l4-.95a1.21 1.21 0 0 1 1.61 1.06 17.06 17.06 0 0 0 .47 2.24 3.47 3.47 0 0 1-.31 2.49l-3.82 6a1.92 1.92 0 0 0 .2 2.2l2.45 2.66a1.18 1.18 0 0 0 1.83 0l4.4-5.31a2.33 2.33 0 0 1 2.21-.64 10.94 10.94 0 0 0 1.43.24 1.35 1.35 0 0 1 1.3 1.41l-.32 5.6a.84.84 0 0 0 1.22.91l4.87-1.79a2.87 2.87 0 0 0 1.56-1.84Zm-1.58-14.46c-5.73 2.11-9.54-2-8.5-9.25s6.53-14.8 12.26-16.91 9.55 2 8.51 9.25-6.53 14.79-12.27 16.91Z" style="fill:#ba68c8"/><g style="opacity:.55"><path d="m156.49 89 1.39-6.22a4.17 4.17 0 0 1 1.44-2.15 34 34 0 0 0 2.68-2.22 1.7 1.7 0 0 1 2.12-.14l2.39 1.8a1.36 1.36 0 0 0 1.92-.29l4.57-6.36a2.17 2.17 0 0 0 .07-2.29l-1.85-2.86a2.73 2.73 0 0 1-.13-2.41c.59-1.23 1.12-2.49 1.59-3.76a4 4 0 0 1 1.7-1.93l4.51-2.24a3 3 0 0 0 1.45-2l.95-6.66a.88.88 0 0 0-1.15-1.06l-4 .95a1.21 1.21 0 0 1-1.5-1.07 16.73 16.73 0 0 0-.46-2.24 3.47 3.47 0 0 1 .3-2.49l3.82-6a1.92 1.92 0 0 0-.2-2.2l-2.45-2.66a1.17 1.17 0 0 0-1.82 0l-4.41 5.3a2.31 2.31 0 0 1-2.2.64 10.94 10.94 0 0 0-1.43-.23 1.36 1.36 0 0 1-1.31-1.41l.33-5.6a.84.84 0 0 0-1.22-.91l-4.87 1.79a2.87 2.87 0 0 0-1.61 1.84l-1.39 6.22a4.23 4.23 0 0 1-1.44 2.15 34.12 34.12 0 0 0-2.67 2.22 1.7 1.7 0 0 1-2.11.13l-2.39-1.79a1.37 1.37 0 0 0-1.93.29l-4.61 6.36a2.17 2.17 0 0 0-.06 2.29l1.85 2.86a2.76 2.76 0 0 1 .13 2.41 41.08 41.08 0 0 0-1.59 3.76 4 4 0 0 1-1.7 1.93L134.67 65a3 3 0 0 0-1.44 2l-1 6.66a.89.89 0 0 0 1.16 1.06l4-.95a1.21 1.21 0 0 1 1.61 1.06 17.06 17.06 0 0 0 .47 2.24 3.47 3.47 0 0 1-.31 2.49l-3.82 6a1.92 1.92 0 0 0 .2 2.2l2.45 2.66a1.18 1.18 0 0 0 1.83 0l4.4-5.31a2.33 2.33 0 0 1 2.21-.64 10.94 10.94 0 0 0 1.43.24 1.35 1.35 0 0 1 1.3 1.41l-.32 5.6a.84.84 0 0 0 1.22.91l4.87-1.79a2.87 2.87 0 0 0 1.56-1.84Zm-1.58-14.46c-5.73 2.11-9.54-2-8.5-9.25s6.53-14.8 12.26-16.91 9.55 2 8.51 9.25-6.53 14.79-12.27 16.91Z" style="fill:#fff"/><path d="M149.59 93.1a1.22 1.22 0 0 1-.71-.22 1.32 1.32 0 0 1-.48-1.18l.33-5.6a1 1 0 0 0-1-1 9.13 9.13 0 0 1-1.48-.24 1.94 1.94 0 0 0-1.82.51l-4.4 5.3a1.57 1.57 0 0 1-2.41.07l-2.45-2.67a2.29 2.29 0 0 1-.24-2.67l3.82-6a3.1 3.1 0 0 0 .25-2.18 17.83 17.83 0 0 1-.47-2.29.89.89 0 0 0-.37-.63.77.77 0 0 0-.65-.11l-4 1a1.38 1.38 0 0 1-1.25-.27 1.34 1.34 0 0 1-.38-1.22l1-6.67a3.35 3.35 0 0 1 1.66-2.28L139 62.4a3.56 3.56 0 0 0 1.5-1.72c.47-1.26 1-2.53 1.61-3.79a2.33 2.33 0 0 0-.11-2L140.17 52a2.56 2.56 0 0 1 .08-2.73l4.61-6.36a1.74 1.74 0 0 1 2.47-.37l2.39 1.79a1.31 1.31 0 0 0 1.62-.1A30.65 30.65 0 0 1 154 42a3.9 3.9 0 0 0 1.29-1.93l1.39-6.21a3.24 3.24 0 0 1 1.85-2.12l4.87-1.8a1.23 1.23 0 0 1 1.75 1.3l-.33 5.6a1 1 0 0 0 .95 1 9.08 9.08 0 0 1 1.49.24 1.92 1.92 0 0 0 1.81-.51l4.41-5.31a1.58 1.58 0 0 1 1.19-.59 1.62 1.62 0 0 1 1.22.53l2.45 2.67a2.27 2.27 0 0 1 .24 2.66l-3.82 6a3.11 3.11 0 0 0-.26 2.18A16.42 16.42 0 0 1 175 48a.91.91 0 0 0 .36.63.8.8 0 0 0 .66.11l4-1a1.38 1.38 0 0 1 1.25.27 1.37 1.37 0 0 1 .38 1.22l-1 6.67a3.34 3.34 0 0 1-1.65 2.28l-4.52 2.25a3.66 3.66 0 0 0-1.51 1.71c-.46 1.27-1 2.54-1.6 3.79a2.35 2.35 0 0 0 .11 2l1.84 2.86a2.56 2.56 0 0 1-.07 2.73L168.73 80a1.75 1.75 0 0 1-1.16.7 1.73 1.73 0 0 1-1.32-.33l-2.39-1.79a1.3 1.3 0 0 0-1.61.1 32.5 32.5 0 0 1-2.7 2.25 3.94 3.94 0 0 0-1.3 1.93l-1.38 6.21A3.23 3.23 0 0 1 155 91.2l-4.86 1.8a1.58 1.58 0 0 1-.55.1Zm-3.74-9.1a2.57 2.57 0 0 1 .62.08 10 10 0 0 0 1.37.22 1.74 1.74 0 0 1 1.66 1.83l-.33 5.6a.47.47 0 0 0 .71.52l4.87-1.8a2.46 2.46 0 0 0 1.36-1.56l1.39-6.21a4.72 4.72 0 0 1 1.58-2.39 29.15 29.15 0 0 0 2.64-2.19 2.1 2.1 0 0 1 2.61-.16l2.39 1.8a1 1 0 0 0 .73.19 1 1 0 0 0 .65-.4l4.61-6.36a1.78 1.78 0 0 0 0-1.85l-1.85-2.86a3.15 3.15 0 0 1-.15-2.79c.59-1.23 1.12-2.48 1.57-3.72a4.42 4.42 0 0 1 1.89-2.15l4.52-2.24a2.57 2.57 0 0 0 1.23-1.7l1-6.67a.62.62 0 0 0-.13-.54.59.59 0 0 0-.55-.08l-4 .95a1.6 1.6 0 0 1-1.27-.23 1.63 1.63 0 0 1-.7-1.16 16.79 16.79 0 0 0-.46-2.2 3.84 3.84 0 0 1 .35-2.8l3.82-6a1.53 1.53 0 0 0-.15-1.73l-2.45-2.66a.9.9 0 0 0-.63-.29.86.86 0 0 0-.62.32l-4.4 5.3a2.67 2.67 0 0 1-2.6.77 8.76 8.76 0 0 0-1.36-.22 1.75 1.75 0 0 1-1.67-1.83l.33-5.6a.53.53 0 0 0-.17-.5.56.56 0 0 0-.53 0l-4.87 1.8a2.44 2.44 0 0 0-1.38 1.51l-1.39 6.22a4.65 4.65 0 0 1-1.59 2.38 32.61 32.61 0 0 0-2.63 2.2 2.1 2.1 0 0 1-2.61.15l-2.39-1.79a1 1 0 0 0-.74-.19.94.94 0 0 0-.64.4l-4.61 6.35a1.8 1.8 0 0 0 0 1.86l1.84 2.86a3.15 3.15 0 0 1 .16 2.79c-.59 1.23-1.12 2.48-1.58 3.72a4.37 4.37 0 0 1-1.89 2.15l-4.52 2.24a2.61 2.61 0 0 0-1.23 1.7l-1 6.67a.57.57 0 0 0 .13.53.56.56 0 0 0 .55.09l4-1a1.57 1.57 0 0 1 1.27.22 1.71 1.71 0 0 1 .7 1.17 16.31 16.31 0 0 0 .45 2.19 3.86 3.86 0 0 1-.35 2.81l-3.82 6a1.55 1.55 0 0 0 .16 1.73l2.45 2.66a.82.82 0 0 0 .63.28.78.78 0 0 0 .61-.31l4.41-5.3a2.58 2.58 0 0 1 2-.78Zm6.22-8.55a5.68 5.68 0 0 1-3.63-1.22c-2.11-1.71-3-5-2.42-9 1.06-7.34 6.67-15.06 12.52-17.21 2.57-1 4.91-.72 6.61.65 2.11 1.71 3 5 2.41 9-1.05 7.33-6.66 15.08-12.51 17.23a8.71 8.71 0 0 1-2.98.57Zm9.44-27.25a8 8 0 0 0-2.7.52c-5.61 2.07-11 9.52-12 16.6-.54 3.74.24 6.77 2.14 8.3 1.47 1.19 3.55 1.38 5.85.53 5.61-2.06 11-9.51 12-16.59.53-3.75-.25-6.77-2.14-8.31a4.91 4.91 0 0 0-3.15-1.03Z" style="fill:#fff"/></g><path d="m82.24 130.38 8.85-5.11a2.38 2.38 0 0 0 1-1.66l.89-9.84a3.3 3.3 0 0 1 .92-1.84 53 53 0 0 0 4.92-5.2 1.66 1.66 0 0 1 1.73-.49l5.68 2a1.4 1.4 0 0 0 1.6-.59l6.5-11.27a1.38 1.38 0 0 0-.28-1.68l-4.56-3.93a1.69 1.69 0 0 1-.39-1.77 53.48 53.48 0 0 0 2.05-6.85 3.25 3.25 0 0 1 1.13-1.72l8.08-5.69a2.39 2.39 0 0 0 .91-1.74V62.78a.75.75 0 0 0-.32-.66l-6.63-3.85a.73.73 0 0 0-.69 0l-4.57 2.06a1.93 1.93 0 0 1 .14-1.08l5.24-10.58a1.19 1.19 0 0 0-.46-1.55l-4.34-2.5-8-4.63a1.2 1.2 0 0 0-1.57.37l-6.53 9.84a1.92 1.92 0 0 1-.89.67l-.49-5a.74.74 0 0 0-.34-.6l-6.64-3.85a.71.71 0 0 0-.72.06l-8.85 5.1a2.42 2.42 0 0 0-1.06 1.66l-.88 9.84a3.3 3.3 0 0 1-.92 1.92 54.13 54.13 0 0 0-4.92 5.2 1.7 1.7 0 0 1-1.74.5l-5.68-2a1.39 1.39 0 0 0-1.59.59l-6.51 11.23a1.4 1.4 0 0 0 .29 1.68l4.56 3.93a1.69 1.69 0 0 1 .44 1.75 51.61 51.61 0 0 0-2.05 6.86 3.26 3.26 0 0 1-1.13 1.71l-8.09 5.69a2.41 2.41 0 0 0-.9 1.74v10.22a.74.74 0 0 0 .3.65l6.65 3.87a.71.71 0 0 0 .68 0l4.57-2.06a1.93 1.93 0 0 1-.14 1.08l-5.24 10.56a1.2 1.2 0 0 0 .47 1.55l6.61 3.83 5.7 3.29a1.19 1.19 0 0 0 1.56-.37l6.55-9.84A1.94 1.94 0 0 1 74 121l.5 5a.74.74 0 0 0 .34.59l6.64 3.86a.73.73 0 0 0 .76-.07ZM94.9 68.71c1.51 1.61 2.36 4.28 2.36 8 0 9.54-6.69 21.13-14.94 25.89-3 1.75-5.68 2.5-7.84 2.29-1.74-1.82-2.76-4.67-2.76-8.4 0-9.54 6.69-21.13 14.94-25.89 3.05-1.75 5.87-2.33 8.24-1.89Z" style="fill:#ba68c8"/><path d="m82.24 130.38 8.85-5.11a2.38 2.38 0 0 0 1-1.66l.89-9.84a3.3 3.3 0 0 1 .92-1.84 53 53 0 0 0 4.92-5.2 1.66 1.66 0 0 1 1.73-.49l5.68 2a1.4 1.4 0 0 0 1.6-.59l6.5-11.27a1.38 1.38 0 0 0-.28-1.68l-4.56-3.93a1.69 1.69 0 0 1-.39-1.77 53.48 53.48 0 0 0 2.05-6.85 3.25 3.25 0 0 1 1.13-1.72l8.08-5.69a2.39 2.39 0 0 0 .91-1.74V62.78a.75.75 0 0 0-.32-.66l-6.63-3.85a.73.73 0 0 0-.69 0l-4.57 2.06a1.93 1.93 0 0 1 .14-1.08l5.24-10.58a1.19 1.19 0 0 0-.46-1.55l-4.34-2.5-8-4.63a1.2 1.2 0 0 0-1.57.37l-6.53 9.84a1.92 1.92 0 0 1-.89.67l-.49-5a.74.74 0 0 0-.34-.6l-6.64-3.85a.71.71 0 0 0-.72.06l-8.85 5.1a2.42 2.42 0 0 0-1.06 1.66l-.88 9.84a3.3 3.3 0 0 1-.92 1.92 54.13 54.13 0 0 0-4.92 5.2 1.7 1.7 0 0 1-1.74.5l-5.68-2a1.39 1.39 0 0 0-1.59.59l-6.51 11.23a1.4 1.4 0 0 0 .29 1.68l4.56 3.93a1.69 1.69 0 0 1 .44 1.75 51.61 51.61 0 0 0-2.05 6.86 3.26 3.26 0 0 1-1.13 1.71l-8.09 5.69a2.41 2.41 0 0 0-.9 1.74v10.22a.74.74 0 0 0 .3.65l6.65 3.87a.71.71 0 0 0 .68 0l4.57-2.06a1.93 1.93 0 0 1-.14 1.08l-5.24 10.56a1.2 1.2 0 0 0 .47 1.55l6.61 3.83 5.7 3.29a1.19 1.19 0 0 0 1.56-.37l6.55-9.84A1.94 1.94 0 0 1 74 121l.5 5a.74.74 0 0 0 .34.59l6.64 3.86a.73.73 0 0 0 .76-.07ZM94.9 68.71c1.51 1.61 2.36 4.28 2.36 8 0 9.54-6.69 21.13-14.94 25.89-3 1.75-5.68 2.5-7.84 2.29-1.74-1.82-2.76-4.67-2.76-8.4 0-9.54 6.69-21.13 14.94-25.89 3.05-1.75 5.87-2.33 8.24-1.89Z" style="fill:#fff;opacity:.2"/><path d="M98.46 54.9a2.17 2.17 0 0 0 1.72-.85l6.54-9.84a1.17 1.17 0 0 1 1.56-.36l1.35.77-8-4.63a1.21 1.21 0 0 0-1.58.37l-6.51 9.84a1.93 1.93 0 0 1-.89.68L93 54.5a.93.93 0 0 0 1.18.83 18.33 18.33 0 0 1 4.28-.43Zm15.86 3.37a.71.71 0 0 0-.68 0l-4.58 2.06a1.94 1.94 0 0 0 .27.82 18.39 18.39 0 0 1 1.75 3.91.94.94 0 0 0 1.32.61l7.87-3.55a.86.86 0 0 1 .62-.05ZM86.66 105.12c8.26-4.76 15-16.35 15-25.88 0-6-2.67-9.79-6.72-10.54 1.52 1.6 2.37 4.29 2.38 8 0 9.54-6.7 21.13-15 25.89-3 1.75-5.67 2.51-7.82 2.3 2.69 2.85 7.14 3.11 12.16.23Z" style="opacity:.1"/><path d="M59.22 128.52a1.23 1.23 0 0 1-.34-1.46l5.25-10.58a1.61 1.61 0 0 0 .16-.59L57.65 112a1.83 1.83 0 0 1-.15.59l-5.24 10.61a1.19 1.19 0 0 0 .45 1.55Zm22.29 1.91a.46.46 0 0 1-.18-.16.52.52 0 0 1-.13-.23 1.3 1.3 0 0 1 0-.21l-.86-8.6a.54.54 0 0 0 0-.22.83.83 0 0 0-.26-.41.92.92 0 0 0-.25-.15h-.15a1.24 1.24 0 0 0-.47 0h-.2a18.13 18.13 0 0 1-4.06.4 2.3 2.3 0 0 0-.95.15l.5 5a.74.74 0 0 0 .33.6Zm-29.19-16.85a.81.81 0 0 1-.26-.63v-10.22a2.26 2.26 0 0 1 .47-1.31l-6.63-3.84a2.39 2.39 0 0 0-.48 1.3v10.22a.71.71 0 0 0 .3.65ZM80 62.84a2.66 2.66 0 0 0 .3-.84l.89-9.85a1.87 1.87 0 0 1 .25-.78l-6.62-3.87a2.16 2.16 0 0 0-.27.77l-.88 9.85a3.1 3.1 0 0 1-.26.86ZM58.91 80.61a1.34 1.34 0 0 1 0-1.23l6.5-11.28a1.38 1.38 0 0 1 .65-.54l-6.64-3.85a1.36 1.36 0 0 0-.64.54l-6.47 11.27a1.41 1.41 0 0 0 0 1.31Z" style="fill:#ba68c8"/><path d="M59.22 128.52a1.23 1.23 0 0 1-.34-1.46l5.25-10.58a1.61 1.61 0 0 0 .16-.59L57.65 112a1.83 1.83 0 0 1-.15.59l-5.24 10.61a1.19 1.19 0 0 0 .45 1.55Zm22.29 1.91a.46.46 0 0 1-.18-.16.52.52 0 0 1-.13-.23 1.3 1.3 0 0 1 0-.21l-.86-8.6a.54.54 0 0 0 0-.22.83.83 0 0 0-.26-.41.92.92 0 0 0-.25-.15h-.15a1.24 1.24 0 0 0-.47 0h-.2a18.13 18.13 0 0 1-4.06.4 2.3 2.3 0 0 0-.95.15l.5 5a.74.74 0 0 0 .33.6Zm-29.19-16.85a.81.81 0 0 1-.26-.63v-10.22a2.26 2.26 0 0 1 .47-1.31l-6.63-3.84a2.39 2.39 0 0 0-.48 1.3v10.22a.71.71 0 0 0 .3.65ZM80 62.84a2.66 2.66 0 0 0 .3-.84l.89-9.85a1.87 1.87 0 0 1 .25-.78l-6.62-3.87a2.16 2.16 0 0 0-.27.77l-.88 9.85a3.1 3.1 0 0 1-.26.86ZM58.91 80.61a1.34 1.34 0 0 1 0-1.23l6.5-11.28a1.38 1.38 0 0 1 .65-.54l-6.64-3.85a1.36 1.36 0 0 0-.64.54l-6.47 11.27a1.41 1.41 0 0 0 0 1.31Z" style="fill:#fff;opacity:.7000000000000001"/><path d="m92.14 123.61.89-9.84a3.3 3.3 0 0 1 .92-1.84 53 53 0 0 0 4.92-5.2 1.66 1.66 0 0 1 1.73-.49l5.68 2a1.4 1.4 0 0 0 1.6-.59l6.5-11.27a1.38 1.38 0 0 0-.28-1.68l-4.56-3.93a1.69 1.69 0 0 1-.44-1.77 53.48 53.48 0 0 0 2.05-6.85 3.25 3.25 0 0 1 1.13-1.72l8.08-5.69a2.39 2.39 0 0 0 .91-1.74V62.78a.66.66 0 0 0-1-.65l-7.88 3.55a.93.93 0 0 1-1.31-.61 18.08 18.08 0 0 0-1.75-3.9 2.18 2.18 0 0 1-.12-1.91l5.24-10.58a1.19 1.19 0 0 0-.46-1.55l-5.7-3.28a1.17 1.17 0 0 0-1.56.36l-6.55 9.84a2.14 2.14 0 0 1-1.71.85 18.28 18.28 0 0 0-4.26.43.93.93 0 0 1-1.21-.83l-.86-8.59a.66.66 0 0 0-1.07-.55l-8.85 5.11a2.34 2.34 0 0 0-1 1.65L80.3 62a3.31 3.31 0 0 1-.92 1.83A54.25 54.25 0 0 0 74.46 69a1.68 1.68 0 0 1-1.73.49l-5.68-2a1.38 1.38 0 0 0-1.6.59L59 79.37a1.38 1.38 0 0 0 .28 1.68L63.79 85a1.7 1.7 0 0 1 .44 1.75 55.27 55.27 0 0 0-2.05 6.86 3.32 3.32 0 0 1-1.13 1.72L53 101a2.39 2.39 0 0 0-.91 1.74V113a.66.66 0 0 0 1 .65l7.91-3.6a.94.94 0 0 1 1.31.61 17.87 17.87 0 0 0 1.75 3.9 2.18 2.18 0 0 1 .12 1.91l-5.25 10.59a1.19 1.19 0 0 0 .47 1.54l5.7 3.29a1.18 1.18 0 0 0 1.56-.37l6.55-9.84a2.2 2.2 0 0 1 1.71-.85 17.26 17.26 0 0 0 4.26-.43.94.94 0 0 1 1.18.83l.86 8.6a.66.66 0 0 0 1.07.55l8.85-5.11a2.38 2.38 0 0 0 1-1.66Zm-5.48-18.48c-8.25 4.76-14.94.9-14.94-8.63s6.69-21.13 14.94-25.89 15-.91 15 8.63-6.74 21.12-15 25.89Z" style="fill:#ba68c8"/><g style="opacity:.55"><path d="m92.14 123.61.89-9.84a3.3 3.3 0 0 1 .92-1.84 53 53 0 0 0 4.92-5.2 1.66 1.66 0 0 1 1.73-.49l5.68 2a1.4 1.4 0 0 0 1.6-.59l6.5-11.27a1.38 1.38 0 0 0-.28-1.68l-4.56-3.93a1.69 1.69 0 0 1-.44-1.77 53.48 53.48 0 0 0 2.05-6.85 3.25 3.25 0 0 1 1.13-1.72l8.08-5.69a2.39 2.39 0 0 0 .91-1.74V62.78a.66.66 0 0 0-1-.65l-7.88 3.55a.93.93 0 0 1-1.31-.61 18.08 18.08 0 0 0-1.75-3.9 2.18 2.18 0 0 1-.12-1.91l5.24-10.58a1.19 1.19 0 0 0-.46-1.55l-5.7-3.28a1.17 1.17 0 0 0-1.56.36l-6.55 9.84a2.14 2.14 0 0 1-1.71.85 18.28 18.28 0 0 0-4.26.43.93.93 0 0 1-1.21-.83l-.86-8.59a.66.66 0 0 0-1.07-.55l-8.85 5.11a2.34 2.34 0 0 0-1 1.65L80.3 62a3.31 3.31 0 0 1-.92 1.83A54.25 54.25 0 0 0 74.46 69a1.68 1.68 0 0 1-1.73.49l-5.68-2a1.38 1.38 0 0 0-1.6.59L59 79.37a1.38 1.38 0 0 0 .28 1.68L63.79 85a1.7 1.7 0 0 1 .44 1.75 55.27 55.27 0 0 0-2.05 6.86 3.32 3.32 0 0 1-1.13 1.72L53 101a2.39 2.39 0 0 0-.91 1.74V113a.66.66 0 0 0 1 .65l7.91-3.6a.94.94 0 0 1 1.31.61 17.87 17.87 0 0 0 1.75 3.9 2.18 2.18 0 0 1 .12 1.91l-5.25 10.59a1.19 1.19 0 0 0 .47 1.54l5.7 3.29a1.18 1.18 0 0 0 1.56-.37l6.55-9.84a2.2 2.2 0 0 1 1.71-.85 17.26 17.26 0 0 0 4.26-.43.94.94 0 0 1 1.18.83l.86 8.6a.66.66 0 0 0 1.07.55l8.85-5.11a2.38 2.38 0 0 0 1-1.66Zm-5.48-18.48c-8.25 4.76-14.94.9-14.94-8.63s6.69-21.13 14.94-25.89 15-.91 15 8.63-6.74 21.12-15 25.89Z" style="fill:#fff"/><path d="M65.62 132.36a1.49 1.49 0 0 1-.73-.2l-5.7-3.29a1.51 1.51 0 0 1-.59-2l5.25-10.59a1.85 1.85 0 0 0-.1-1.6 17.84 17.84 0 0 1-1.79-4 .66.66 0 0 0-.36-.42.59.59 0 0 0-.52 0l-7.88 3.55a1 1 0 0 1-1.45-.94v-10.13a2.67 2.67 0 0 1 1-2l8.08-5.69a3 3 0 0 0 1-1.53 52.78 52.78 0 0 1 2.06-6.9 1.39 1.39 0 0 0-.36-1.4L59 81.29a1.69 1.69 0 0 1-.35-2.07L65.18 68a1.7 1.7 0 0 1 2-.73l5.68 2a1.36 1.36 0 0 0 1.39-.4 53.85 53.85 0 0 1 5-5.23 3 3 0 0 0 .75-1.7l.88-9.85a2.71 2.71 0 0 1 1.21-1.89l8.85-5.11a1.06 1.06 0 0 1 1-.08 1 1 0 0 1 .53.86l.86 8.6a.62.62 0 0 0 .25.46.69.69 0 0 0 .55.1 17.77 17.77 0 0 1 4.34-.44 1.9 1.9 0 0 0 1.44-.71l6.54-9.88a1.53 1.53 0 0 1 2-.47l5.7 3.29a1.52 1.52 0 0 1 .59 2l-5.26 10.58a1.87 1.87 0 0 0 .1 1.61 17.76 17.76 0 0 1 1.79 4 .71.71 0 0 0 .36.43.6.6 0 0 0 .52 0l7.88-3.55a1.06 1.06 0 0 1 1 0 1 1 0 0 1 .44.91V73a2.68 2.68 0 0 1-1 2l-8.08 5.69a3 3 0 0 0-1 1.52 52.7 52.7 0 0 1-2 6.9 1.39 1.39 0 0 0 .35 1.41l4.55 3.92a1.71 1.71 0 0 1 .36 2.08l-6.51 11.26a1.69 1.69 0 0 1-2 .74l-5.68-2a1.4 1.4 0 0 0-1.39.4 53.85 53.85 0 0 1-5 5.23 3.09 3.09 0 0 0-.82 1.64l-.88 9.84a2.72 2.72 0 0 1-1.21 1.9l-8.85 5.11a1 1 0 0 1-1.54-.79l-.86-8.6a.66.66 0 0 0-.25-.46.69.69 0 0 0-.55-.09 18.28 18.28 0 0 1-4.34.44 1.89 1.89 0 0 0-1.44.71l-6.54 9.84a1.54 1.54 0 0 1-1.27.67Zm-4.26-22.71a1.24 1.24 0 0 1 .5.1 1.32 1.32 0 0 1 .7.81 17 17 0 0 0 1.72 3.84 2.47 2.47 0 0 1 .14 2.21l-5.25 10.59a.87.87 0 0 0 .34 1.13l5.69 3.29a.88.88 0 0 0 1.15-.27l6.54-9.84a2.46 2.46 0 0 1 2-1 17.42 17.42 0 0 0 4.18-.43 1.35 1.35 0 0 1 1.06.2 1.24 1.24 0 0 1 .5.91l.87 8.6a.41.41 0 0 0 .19.36.41.41 0 0 0 .4-.06l8.84-5.09a2 2 0 0 0 .9-1.4l.89-9.85a3.62 3.62 0 0 1 1-2 53.74 53.74 0 0 0 4.88-5.17 2 2 0 0 1 2.09-.59l5.68 2a1.07 1.07 0 0 0 1.22-.45l6.5-11.27a1.07 1.07 0 0 0-.22-1.28L109.34 91a2 2 0 0 1-.54-2.1 53 53 0 0 0 2-6.81 3.57 3.57 0 0 1 1.26-1.91l8.08-5.69A2 2 0 0 0 121 73V62.78a.42.42 0 0 0-.15-.38.43.43 0 0 0-.41 0l-7.93 3.6a1.26 1.26 0 0 1-1 0 1.29 1.29 0 0 1-.7-.81 17.44 17.44 0 0 0-1.72-3.84 2.47 2.47 0 0 1-.14-2.21l5.25-10.58a.87.87 0 0 0-.34-1.13l-5.69-3.29a.88.88 0 0 0-1.15.27l-6.54 9.84a2.46 2.46 0 0 1-2 1 16.9 16.9 0 0 0-4.18.42 1.3 1.3 0 0 1-1.06-.2 1.22 1.22 0 0 1-.5-.91l-.87-8.59a.35.35 0 0 0-.59-.31l-8.88 5.08a2.07 2.07 0 0 0-.9 1.41L80.61 62a3.59 3.59 0 0 1-1 2 52.72 52.72 0 0 0-4.88 5.18 2 2 0 0 1-2.09.59l-5.68-2a1.09 1.09 0 0 0-1.22.45l-6.5 11.27a1.07 1.07 0 0 0 .22 1.28L64 84.74a2 2 0 0 1 .54 2.1 52.67 52.67 0 0 0-2 6.82 3.55 3.55 0 0 1-1.26 1.9l-8.08 5.69a2.08 2.08 0 0 0-.77 1.48V113a.35.35 0 0 0 .56.37l7.88-3.55a1.32 1.32 0 0 1 .49-.17ZM80 107.49a8 8 0 0 1-4-1c-2.93-1.69-4.54-5.22-4.54-10 0-9.62 6.78-21.36 15.11-26.17 4.09-2.36 8-2.73 10.88-1s4.54 5.22 4.54 9.95c0 9.61-6.78 21.35-15.11 26.16a13.86 13.86 0 0 1-6.88 2.06Zm13.34-38.62a13.33 13.33 0 0 0-6.52 2C78.67 75.59 72 87.08 72 96.5c0 4.49 1.5 7.83 4.22 9.4s6.37 1.2 10.26-1.05c8.15-4.7 14.79-16.2 14.79-25.61 0-4.5-1.5-7.84-4.22-9.41a7.39 7.39 0 0 0-3.71-.96Z" style="fill:#fff"/></g><path d="m229.86 375-32.48-18.76c-6.66-3.85-17.89-4.73-25.08-2l-19.3 7.45a111.11 111.11 0 0 0-24 13.63l-19.62 15.45c-2.82 2.22-4.21 4.92-4.21 7.56v4.48c0 3 1.81 5.88 5.33 7.91l32.5 18.75c6.67 3.85 17.48 3.85 24.14 0l62.68-36.18c3.35-1.94 5-4.47 5-7V382c.04-2.57-1.62-5.09-4.96-7Z" style="fill:#e6e6e6"/><path d="M105.23 402.81c0 3 1.81 5.88 5.33 7.91L143 429.47a24.6 24.6 0 0 0 12.07 2.89v-4.63l-49.89-28.81c.04 1.15.04 3.27.05 3.89Z" style="fill:#e0e0e0"/><path d="M105.23 402.81c0 3 1.81 5.88 5.33 7.91L143 429.47a24.6 24.6 0 0 0 12.07 2.89v-4.63l-49.89-28.81c.04 1.15.04 3.27.05 3.89Z" style="opacity:.1"/><path d="m172.3 354.27-19.3 7.42a111.11 111.11 0 0 0-24 13.63l-19.62 15.45c-6 4.76-5.55 11.74 1.12 15.59l32.5 18.76c6.67 3.84 17.48 3.84 24.14 0l62.68-36.19c6.67-3.85 6.67-10.09 0-13.94l-32.48-18.76c-6.62-3.85-17.85-4.73-25.04-1.96Z" style="fill:#f0f0f0"/><path d="M197.38 356.23c-6.66-3.85-17.89-4.73-25.08-2l-19.3 7.46a111.11 111.11 0 0 0-24 13.63l-19.62 15.45c-2.82 2.22-4.21 4.92-4.21 7.56v4.48c0 3 1.81 5.88 5.33 7.91l18.09 10.45v-4.34l86.85-50.14Z" style="opacity:.1"/><path d="M167 376c0-9.58 3-39.74 9.29-46.79l-20.11-2.23c-9.89 10.46-21.73 35.43-28.9 49.82 0 0 5.9 2.4 13.19 5.41s17.41 3 22.62 0a7 7 0 0 0 3.9-6.21Z" style="fill:#e0e0e0"/><path d="M167 376c0-9.58 3-39.74 9.29-46.79l-20.11-2.23c-9.89 10.46-21.73 35.43-28.9 49.82 0 0 5.9 2.4 13.19 5.41s17.41 3 22.62 0a7 7 0 0 0 3.9-6.21Z" style="opacity:.1"/><path d="M163.19 329.85c3.91 1.61 9.33 1.61 12.13 0s2.79-4.75 0-7l-5.06-4.09a57.93 57.93 0 0 0-14.13 8.19s3.16 1.28 7.06 2.9Z" style="fill:#e0e0e0"/><path d="M53.21 405.14a11.47 11.47 0 0 0 10.36-.2L307 264.38a11.84 11.84 0 0 0 5.35-9.26V30.17a11.47 11.47 0 0 0-5-9.06 11.44 11.44 0 0 0-10.35.19L53.55 161.86a11.84 11.84 0 0 0-5.35 9.26v225a11.46 11.46 0 0 0 5.01 9.02Z" style="fill:#455a64"/><path d="M63.58 404.94 307 264.37a11.82 11.82 0 0 0 5.35-9.26V30.17c0-3.41-2.4-4.79-5.35-3.09L63.58 167.65a11.82 11.82 0 0 0-5.35 9.26v224.94c0 3.41 2.39 4.79 5.35 3.09Z" style="fill:#37474f"/><path d="M58.23 383.66v18.19c0 3.41 2.39 4.79 5.35 3.09L307 264.37a11.82 11.82 0 0 0 5.35-9.26v-18.19Z" style="fill:#ebebeb"/><path d="M65.29 366.74V179.29a7.25 7.25 0 0 1 3.28-5.69L302 38.81c1.81-1 3.28-.19 3.28 1.9v187.46a7.28 7.28 0 0 1-3.28 5.7L68.58 368.64c-1.81 1.05-3.29.2-3.29-1.9Z" style="fill:#fff"/><path d="m49.78 165.84 10 5.78a11.45 11.45 0 0 0-1.58 5.28v225c0 3.11 2.1 4.85 5.34 3.09a11.36 11.36 0 0 1-10.36.2 10.32 10.32 0 0 1-5-8.43V171.12a11 11 0 0 1 1.6-5.28Z" style="fill:#263238"/><path d="M318.28 50.19a1.51 1.51 0 0 0-.06-.37.08.08 0 0 0 0-.08 1.2 1.2 0 0 0-.09-.35 1.87 1.87 0 0 0-.23-.52.85.85 0 0 0-.14-.21.49.49 0 0 0-.11-.14 1.34 1.34 0 0 0-.27-.26A3 3 0 0 0 317 48a2.91 2.91 0 0 0-2.69.35L83.6 181.23c-2.21 1.27-4 4.38-4 8.84v188.79a2.73 2.73 0 0 0 1.4 2.41l.17.11.21.12a1.7 1.7 0 0 0 .34.12 2.22 2.22 0 0 0 .51.06 2.63 2.63 0 0 0 1.33-.38l.1-.06 3.82-2.2 226.83-130.66a8.85 8.85 0 0 0 4-6.93V50.69a3.84 3.84 0 0 0-.03-.5Z" style="fill:#fafafa"/><path d="M316.08 49a1 1 0 0 1 .45.1h.07l.06.05.1.13.08.13a.48.48 0 0 1 .08.16l.1.32v.06a.45.45 0 0 1 0 .11v191.39a7.71 7.71 0 0 1-3.43 5.94L87 378l-3.71 2.15-.1.06-.1.06a1.63 1.63 0 0 1-.7.23h-.4l-.11-.06-.09-.06h-.06a1.58 1.58 0 0 1-.85-1.4V190.07c0-4.33 1.77-6.89 3.43-7.85L314.87 49.37a2.65 2.65 0 0 1 1.21-.39m0-1.14a3.58 3.58 0 0 0-1.77.54L83.6 181.23c-2.21 1.27-4 4.38-4 8.84v188.8a2.73 2.73 0 0 0 1.4 2.4l.17.11.21.12a1.7 1.7 0 0 0 .34.12 2.22 2.22 0 0 0 .51.06h.06a2.63 2.63 0 0 0 1.27-.38l.1-.06 3.82-2.2 226.83-130.66a8.85 8.85 0 0 0 4-6.93V50.69a3.84 3.84 0 0 0 0-.5 1.51 1.51 0 0 0-.06-.37.08.08 0 0 0 0-.08 1.2 1.2 0 0 0-.09-.35 1.87 1.87 0 0 0-.23-.52.85.85 0 0 0-.14-.21.49.49 0 0 0-.11-.14 1.34 1.34 0 0 0-.27-.26A3 3 0 0 0 317 48a2.17 2.17 0 0 0-.92-.19Z" style="fill:#ba68c8"/><path d="M317 48a2.91 2.91 0 0 0-2.69.35L83.6 181.23a8.84 8.84 0 0 0-4 6.93v7.75l-5.11-3v-7.66a8.85 8.85 0 0 1 4-6.92L309.2 45.49a2.8 2.8 0 0 1 2.9-.24c.72.44 4.04 2.34 4.9 2.75Z" style="fill:#ba68c8"/><path d="M318.3 50.66c0-2.53-1.8-3.55-4-2.28L83.6 181.24a8.82 8.82 0 0 0-4 6.92v7.76L318.3 58.46Z" style="fill:#ba68c8"/><g style="opacity:.2"><path d="M314.3 48.38 83.6 181.23a8.41 8.41 0 0 0-2.82 3l-5.08-2.94a8 8 0 0 1 2.79-2.92L309.2 45.49a2.8 2.8 0 0 1 2.9-.24c.72.44 4 2.32 4.88 2.78a2.9 2.9 0 0 0-2.68.35Z" style="fill:#fff"/></g><path d="M74.49 192.94v-7.68a8.24 8.24 0 0 1 1.21-4l5.1 2.93a8 8 0 0 0-1.2 4v7.76Z" style="opacity:.15"/><path d="M300.94 60a4.05 4.05 0 0 0-1.7 3.24c0 1.25.76 1.82 1.7 1.28a4.05 4.05 0 0 0 1.7-3.24c0-1.21-.76-1.78-1.7-1.28ZM307.05 56.5a4.09 4.09 0 0 0-1.7 3.25c0 1.25.76 1.82 1.7 1.28a4.05 4.05 0 0 0 1.7-3.24c0-1.25-.75-1.79-1.7-1.29ZM313.16 53a4.05 4.05 0 0 0-1.7 3.24c0 1.25.76 1.83 1.7 1.29a4.07 4.07 0 0 0 1.7-3.25c0-1.28-.76-1.85-1.7-1.28Z" style="fill:#fafafa"/><path d="m81 381.28-.2-.11-4.22-2.44a4.26 4.26 0 0 1-2.09-3.1 5.83 5.83 0 0 1 0-.59V192.92l5.11 3v182.94a2.62 2.62 0 0 0 1.24 2.27 1 1 0 0 0 .13.09Z" style="fill:#ba68c8"/><path d="m81 381.28-.2-.11-4.22-2.44a4.26 4.26 0 0 1-2.09-3.1 5.83 5.83 0 0 1 0-.59V192.92l5.11 3v182.94a2.62 2.62 0 0 0 1.24 2.27 1 1 0 0 0 .13.09Z" style="fill:#fff;opacity:.5"/><path d="m234.4 285 104.4-60.28c.67-.38 1.22-.07 1.22.71v32.47a2.72 2.72 0 0 1-1.22 2.1l-104.4 60.29c-.67.39-1.22.08-1.22-.7v-32.48a2.72 2.72 0 0 1 1.22-2.11Z" style="opacity:.2"/><path d="M242.28 291.69a3.36 3.36 0 0 1 .16-.33 3.41 3.41 0 0 0-.16.33Z" style="fill:#ebebeb"/><path d="M347.59 231.32a.71.71 0 0 0-.69-.56 1.23 1.23 0 0 0-.62.19l-102.87 59.39a2.81 2.81 0 0 0-1 1l-5-2.89a3 3 0 0 1 .93-1l102.87-59.38a3.06 3.06 0 0 1 2.75 0l2.29 1.28a2.94 2.94 0 0 1 1.34 1.97Z" style="fill:#ba68c8"/><g style="opacity:.2"><path d="M347.59 231.32a.71.71 0 0 0-.69-.56 1.23 1.23 0 0 0-.62.19l-102.87 59.39a2.81 2.81 0 0 0-1 1l-5-2.89a3 3 0 0 1 .93-1l102.87-59.38a3.06 3.06 0 0 1 2.75 0l2.29 1.28a2.94 2.94 0 0 1 1.34 1.97Z" style="fill:#fff"/></g><path d="M243.41 325.57a3.14 3.14 0 0 1-2.74 0l-2.3-1.36a3 3 0 0 1-1.38-2.36v-32a2.87 2.87 0 0 1 .44-1.4l5 2.89a2.74 2.74 0 0 0-.4 1.35v32.07c.02.82.58 1.24 1.38.81Z" style="fill:#ba68c8"/><path d="M243.41 325.57a3.14 3.14 0 0 1-2.74 0l-2.3-1.36a3 3 0 0 1-1.38-2.36v-32a2.87 2.87 0 0 1 .44-1.4l5 2.89a2.74 2.74 0 0 0-.4 1.35v32.07c.02.82.58 1.24 1.38.81Z" style="opacity:.2"/><path d="M346.89 230.76a1.22 1.22 0 0 0-.61.19l-102.87 59.39a3 3 0 0 0-1.36 2.37v32.07c0 .62.3 1 .75 1a1.2 1.2 0 0 0 .61-.19l102.87-59.39a3 3 0 0 0 1.37-2.37v-32.09c0-.62-.31-1-.76-1Z" style="fill:#fafafa"/><path d="M346.57 232v31.79a2 2 0 0 1-.83 1.44L243.12 324.5v-31.79a2 2 0 0 1 .83-1.44L346.57 232m.32-1.26a1.22 1.22 0 0 0-.61.19l-102.87 59.41a3 3 0 0 0-1.36 2.37v32.07c0 .62.3 1 .75 1a1.2 1.2 0 0 0 .61-.19l102.87-59.39a3 3 0 0 0 1.37-2.37v-32.09c0-.62-.31-1-.76-1Z" style="fill:#ba68c8"/><path d="M346.89 231.37c.14 0 .15.31.15.37v32.07a2.42 2.42 0 0 1-1.06 1.84L243.11 325a.63.63 0 0 1-.31.11c-.14 0-.14-.31-.14-.37v-32.03a2.39 2.39 0 0 1 1.06-1.84l102.87-59.39a.61.61 0 0 1 .3-.11m0-.61a1.22 1.22 0 0 0-.61.19l-102.87 59.39a3 3 0 0 0-1.36 2.37v32.07c0 .62.3 1 .75 1a1.2 1.2 0 0 0 .61-.19l102.87-59.39a3 3 0 0 0 1.37-2.37v-32.09c0-.62-.31-1-.76-1Z" style="fill:#ba68c8"/><path d="M263.14 296.53c0 4.41-2.68 9.52-6 11.43s-6-.12-6-4.52 2.68-9.53 6-11.43 6 .11 6 4.52Z" style="fill:#ba68c8"/><path d="M263.14 296.53c0 4.41-2.68 9.52-6 11.43s-6-.12-6-4.52 2.68-9.53 6-11.43 6 .11 6 4.52Z" style="fill:#fff;opacity:.7000000000000001"/><path d="M282 285.65c0 4.4-2.68 9.52-6 11.43s-6-.12-6-4.52 2.68-9.53 6-11.44 6 .12 6 4.53Z" style="fill:#ba68c8"/><path d="M282 285.65c0 4.4-2.68 9.52-6 11.43s-6-.12-6-4.52 2.68-9.53 6-11.44 6 .12 6 4.53Z" style="fill:#fff;opacity:.45"/><ellipse cx="294.85" cy="278.22" rx="9.19" ry="5.2" style="fill:#ba68c8" transform="rotate(-66.95 294.84 278.222)"/><ellipse cx="294.85" cy="278.22" rx="9.19" ry="5.2" style="fill:#fff;opacity:.25" transform="rotate(-66.95 294.84 278.222)"/><path d="M319.68 263.88c0 4.41-2.68 9.53-6 11.44s-6-.12-6-4.53 2.68-9.52 6-11.43 6 .12 6 4.52ZM338.53 253c0 4.41-2.68 9.53-6 11.44s-6-.12-6-4.53 2.68-9.52 6-11.43 6 .12 6 4.52Z" style="fill:#ba68c8"/><path d="M338.53 253c0 4.41-2.68 9.53-6 11.44s-6-.12-6-4.53 2.68-9.52 6-11.43 6 .12 6 4.52ZM234.4 229.51l104.4-60.28c.67-.39 1.22-.07 1.22.71v32.48a2.68 2.68 0 0 1-1.22 2.11l-104.4 60.28c-.67.39-1.22.08-1.22-.7v-32.49a2.72 2.72 0 0 1 1.22-2.11Z" style="opacity:.2"/><path d="M242.28 236.13a3.36 3.36 0 0 1 .16-.33 3.41 3.41 0 0 0-.16.33Z" style="fill:#ebebeb"/><path d="M347.59 175.76a.71.71 0 0 0-.69-.56 1.23 1.23 0 0 0-.62.19l-102.87 59.39a2.81 2.81 0 0 0-1 1l-5-2.89a3 3 0 0 1 .93-1l102.87-59.38a3.06 3.06 0 0 1 2.75 0l2.29 1.28a2.94 2.94 0 0 1 1.34 1.97Z" style="fill:#ba68c8"/><g style="opacity:.2"><path d="M347.59 175.76a.71.71 0 0 0-.69-.56 1.23 1.23 0 0 0-.62.19l-102.87 59.39a2.81 2.81 0 0 0-1 1l-5-2.89a3 3 0 0 1 .93-1l102.87-59.38a3.06 3.06 0 0 1 2.75 0l2.29 1.28a2.94 2.94 0 0 1 1.34 1.97Z" style="fill:#fff"/></g><path d="M243.41 270a3.14 3.14 0 0 1-2.74 0l-2.3-1.36a3 3 0 0 1-1.38-2.35v-32a2.87 2.87 0 0 1 .44-1.4l5 2.89a2.77 2.77 0 0 0-.4 1.35v32.07c.02.8.58 1.28 1.38.8Z" style="fill:#ba68c8"/><path d="M243.41 270a3.14 3.14 0 0 1-2.74 0l-2.3-1.36a3 3 0 0 1-1.38-2.35v-32a2.87 2.87 0 0 1 .44-1.4l5 2.89a2.77 2.77 0 0 0-.4 1.35v32.07c.02.8.58 1.28 1.38.8Z" style="opacity:.2"/><path d="M346.89 175.2a1.22 1.22 0 0 0-.61.19l-102.87 59.39a3 3 0 0 0-1.36 2.37v32.07c0 .62.3 1 .75 1a1.2 1.2 0 0 0 .61-.19l102.87-59.39a3 3 0 0 0 1.37-2.37v-32.09c0-.62-.31-1-.76-1Z" style="fill:#fafafa"/><path d="M346.57 176.46v31.79a2 2 0 0 1-.83 1.44l-102.62 59.25v-31.79a2 2 0 0 1 .83-1.44l102.62-59.25m.32-1.26a1.22 1.22 0 0 0-.61.19l-102.87 59.39a3 3 0 0 0-1.36 2.37v32.07c0 .62.3 1 .75 1a1.2 1.2 0 0 0 .61-.19l102.87-59.39a3 3 0 0 0 1.37-2.37v-32.09c0-.62-.31-1-.76-1Z" style="fill:#ba68c8"/><path d="M346.89 175.81c.14 0 .15.31.15.37v32.07a2.42 2.42 0 0 1-1.06 1.84l-102.87 59.39a.63.63 0 0 1-.31.11c-.14 0-.14-.31-.14-.37v-32.07a2.41 2.41 0 0 1 1.06-1.84l102.87-59.39a.61.61 0 0 1 .3-.11m0-.61a1.22 1.22 0 0 0-.61.19l-102.87 59.39a3 3 0 0 0-1.36 2.37v32.07c0 .62.3 1 .75 1a1.2 1.2 0 0 0 .61-.19l102.87-59.39a3 3 0 0 0 1.37-2.37v-32.09c0-.62-.31-1-.76-1Z" style="fill:#ba68c8"/><path d="m285.19 236.8 1.45-1.17 3.68-18.63 1.45-.84 3.68 14.52 1.2-.48v1.25l-5.09 3v-1.25l1.55-1.2-.85-3.53-3.84 2.22-.85 4.43 1.53-.54v1.28l-3.91 2.26Zm3.54-7.75 3.23-1.87-1.6-6.59ZM302.32 226.47c-.87 1.88-1.43 2.92-2.56 3.57-1.32.76-2.35.16-2.35-2.07 0-1.74.62-3.4 3.16-6.11.46-.51 1.08-1.14 1.7-1.74v-.76c0-2.53-.41-3-1.56-2.34a5.21 5.21 0 0 0-.72.53l-.21 1.62a3.1 3.1 0 0 1-1.11 2.54c-.55.31-.9.08-1-.65a7.5 7.5 0 0 1 3.72-5.74c2.05-1.18 3-.31 3 3.22v5.92c0 .87.19 1.11.51.93a1.84 1.84 0 0 0 .62-1l.4.31a4.11 4.11 0 0 1-1.82 2.76c-.97.54-1.57.17-1.78-.99Zm-1.59 1c.48-.28.78-.72 1.54-2v-4.31c-.5.53-1 1-1.26 1.37a5.58 5.58 0 0 0-1.53 3.63c0 1.46.52 1.74 1.25 1.34ZM256 236.71c.18-.1.32-.1.41 0a1.2 1.2 0 0 1 .23.53l4.12 14a.44.44 0 0 1 0 .17 1.31 1.31 0 0 1-.13.57.86.86 0 0 1-.32.39l-1.21.7c-.23.13-.39.15-.47.06a.79.79 0 0 1-.19-.33l-.72-2.45-5.32 3.07-.72 3.29a2.45 2.45 0 0 1-.19.53 1.05 1.05 0 0 1-.47.49l-1.21.7a.24.24 0 0 1-.32 0 .55.55 0 0 1-.13-.41.65.65 0 0 1 0-.2l4.11-18.82a3.29 3.29 0 0 1 .23-.79 1.06 1.06 0 0 1 .4-.46Zm.93 10.84-1.93-6.31-1.85 8.44ZM262.11 241.14a7.93 7.93 0 0 1 .31-1.35 8.1 8.1 0 0 1 .69-1.56 8.39 8.39 0 0 1 1.09-1.53 6.37 6.37 0 0 1 1.51-1.22 3.65 3.65 0 0 1 1.55-.54 1.66 1.66 0 0 1 1.18.34 2.51 2.51 0 0 1 .77 1.25 7.51 7.51 0 0 1 .27 2.19v7.61a1.33 1.33 0 0 1-.14.57.81.81 0 0 1-.32.39l-1.28.74a.24.24 0 0 1-.32 0 .55.55 0 0 1-.13-.41v-.86a7.64 7.64 0 0 1-1 1.87 5.36 5.36 0 0 1-1.69 1.51 2.94 2.94 0 0 1-1.29.45 1.36 1.36 0 0 1-1-.29 2 2 0 0 1-.6-.94 4.68 4.68 0 0 1-.21-1.5 6.62 6.62 0 0 1 .83-3.27 9.18 9.18 0 0 1 2.2-2.64l2.74-2.31c0-.71-.15-1.12-.45-1.24a1.31 1.31 0 0 0-1.13.21 2.17 2.17 0 0 0-.66.56 5.66 5.66 0 0 0-.45.76 2.25 2.25 0 0 1-.28.44.92.92 0 0 1-.28.24l-1.56.9a.24.24 0 0 1-.29 0 .41.41 0 0 1-.06-.37Zm2.81 5.68a4.08 4.08 0 0 0 1-.84 5.37 5.37 0 0 0 .74-1.09 5.13 5.13 0 0 0 .46-1.19 4.85 4.85 0 0 0 .15-1.15v-.26l-2.27 1.94a4.37 4.37 0 0 0-1 1.1 2.24 2.24 0 0 0-.3 1.12c0 .37.12.56.36.6a1.46 1.46 0 0 0 .86-.23ZM331 209a5.19 5.19 0 0 1 .3 1.44 1.85 1.85 0 0 1-.75 1.45l-.1.06c-.55.31-.7-.35-.83-.95l-.49-2.13-.39-1.54c-.88.53-1.75 1.06-2.63 1.64l-1.65 1.17-.35.25c-.31 1.34-.64 2.71-.92 4.08-.21.85-.3 1.94-.93 2.3s-.84-.11-.84-.67a3.08 3.08 0 0 1 .15-.94l1-4.1a1.24 1.24 0 0 1-.17-.77 1.87 1.87 0 0 1 .75-1.64c.35-1.43.69-2.86 1.05-4.3.57-2.26 1.21-4.66 1.66-6.88l.15-.62a2.14 2.14 0 0 1 .72-1.45l.25-.17a.36.36 0 0 1 .44 0c.12.05.23.2.28.61.31 1.41.63 2.85 1 4.24.66 2.64 1.38 5.27 2.09 7.88Zm-2.74-3.73-.18-.65-1-3.76-.37-1.29-.12.51-1.37 5.48c-.17.7-.34 1.38-.5 2.07 1.28-.72 2.41-1.54 3.57-2.33ZM340.42 204.72a2.46 2.46 0 0 1-.85 1.89c-.35.2-.65-.21-.82-.64a8.3 8.3 0 0 1-2.71 2.87c-2 1.15-3.92 0-3.92-3.77a13.09 13.09 0 0 1 .8-4.33 9.52 9.52 0 0 1 3.7-5 3.34 3.34 0 0 1 2-.47 2.57 2.57 0 0 1 .43-1.12 1.69 1.69 0 0 1 .53-.5c.53-.31.61.52.61.83s0 .54-.06.74c-.11 1.15-.16 4.1-.16 4.85s.06 2.89.06 3.56.39.63.39 1.09Zm-2-1.53c0-.14.08-.29.13-.46v-4.4a1.91 1.91 0 0 0-.21-.14 1.51 1.51 0 0 0-1.86.06c-1.49.86-3 3.39-3 6.15 0 1.57.73 3.22 2.49 2.2a5.69 5.69 0 0 0 2.45-3.41ZM277.3 245.49a.47.47 0 0 1-.47-.47v-24.58a.47.47 0 1 1 .94 0V245a.47.47 0 0 1-.47.49ZM313.77 224.43a.47.47 0 0 1-.47-.47v-24.58a.47.47 0 1 1 .94 0V224a.47.47 0 0 1-.47.43Z" style="fill:#455a64"/><path d="M257.67 106.77 338 60.41c.68-.39 1.22-.07 1.22.7v85.67a2.69 2.69 0 0 1-1.22 2.12l-80.31 46.36c-.68.39-1.22.07-1.22-.71v-85.67a2.69 2.69 0 0 1 1.2-2.11Z" style="opacity:.2"/><path d="M346.93 65.4a1.57 1.57 0 0 0-1.43.2l-79.36 45.69A4.79 4.79 0 0 0 264 115v83.7a1.54 1.54 0 0 0 .59 1.37c-.37-.24-3.62-2.08-4-2.31a1.54 1.54 0 0 1-.62-1.39V112.7a4.78 4.78 0 0 1 2.13-3.7l79.35-45.7a1.51 1.51 0 0 1 1.54-.14c.35.17 3.18 1.77 3.94 2.24Z" style="fill:#ba68c8"/><g style="opacity:.2"><path d="M346.93 65.4c-.76-.47-3.59-2.07-3.94-2.28a1.51 1.51 0 0 0-1.54.14L262.1 109a4.54 4.54 0 0 0-1.52 1.61l4 2.33a4.54 4.54 0 0 1 1.52-1.61l79.4-45.73a1.57 1.57 0 0 1 1.43-.2Z" style="fill:#fff"/></g><path d="M266.14 111.29 345.5 65.6c1.19-.69 2.15-.13 2.15 1.24v83.7a4.76 4.76 0 0 1-2.15 3.73L266.14 200c-1.19.68-2.15.13-2.15-1.25V115a4.77 4.77 0 0 1 2.15-3.71Z" style="fill:#fafafa"/><path d="M346.46 65.3v1.08s.1.16.1.46v83.7a3.7 3.7 0 0 1-1.61 2.8L265.6 199a1.08 1.08 0 0 1-.44.16.8.8 0 0 1-.1-.47V115a3.68 3.68 0 0 1 1.62-2.8L346 66.53a1 1 0 0 1 .43-.15V65.3m0 0a1.94 1.94 0 0 0-1 .3l-79.36 45.69A4.77 4.77 0 0 0 264 115v83.69c0 1 .48 1.54 1.19 1.54a1.92 1.92 0 0 0 1-.29l79.36-45.7a4.76 4.76 0 0 0 2.15-3.73V66.84c0-1-.48-1.54-1.19-1.54Z" style="fill:#ba68c8"/><path d="m264.62 112.9-4-2.33a4.34 4.34 0 0 0-.64 2.13v83.69a1.54 1.54 0 0 0 .62 1.39c.4.23 3.65 2.07 4 2.31a1.54 1.54 0 0 1-.59-1.37V115a4.43 4.43 0 0 1 .61-2.1Z" style="fill:#ba68c8"/><path d="m264.62 112.9-4-2.33a4.34 4.34 0 0 0-.64 2.13v83.69a1.54 1.54 0 0 0 .62 1.39c.4.23 3.65 2.07 4 2.31a1.54 1.54 0 0 1-.59-1.37V115a4.43 4.43 0 0 1 .61-2.1Z" style="opacity:.15"/><path d="M346.46 66.3c.19 0 .2.49.2.54v83.7a3.79 3.79 0 0 1-1.66 2.87l-79.36 45.7a1 1 0 0 1-.46.16c-.19 0-.2-.49-.2-.55V115a3.79 3.79 0 0 1 1.66-2.87L346 66.46a1.07 1.07 0 0 1 .47-.16m0-1a1.94 1.94 0 0 0-1 .3l-79.36 45.69A4.77 4.77 0 0 0 264 115v83.69c0 1 .48 1.54 1.19 1.54a1.92 1.92 0 0 0 1-.29l79.36-45.7a4.76 4.76 0 0 0 2.15-3.73V66.84c0-1-.48-1.54-1.19-1.54Z" style="fill:#ba68c8"/><path d="m306.07 165.86.12-63.81c0-1.19-.78-1.71-1.75-1.15a4 4 0 0 0-1.76 3.17l-.12 63.82c0 1.19.78 1.71 1.75 1.15a4 4 0 0 0 1.76-3.18Z" style="fill:#e0e0e0"/><path d="M306.05 148.25v17.61a4 4 0 0 1-1.76 3.18c-1 .56-1.75 0-1.75-1.15v-17.61Z" style="fill:#455a64"/><path d="M304.18 156.42a4.39 4.39 0 0 1-1.64.58v-6.72l3.51-2v6.59a7.86 7.86 0 0 1-1.87 1.55Z" style="fill:#37474f"/><path d="M308.75 146.69c0-2.84-2-4-4.46-2.57a9.85 9.85 0 0 0-4.45 7.72c0 2.84 2 4 4.45 2.57a9.86 9.86 0 0 0 4.46-7.72Z" style="fill:#ba68c8"/><path d="M308.75 146.69c0-2.84-2-4-4.46-2.57a9.85 9.85 0 0 0-4.45 7.72c0 2.84 2 4 4.45 2.57a9.86 9.86 0 0 0 4.46-7.72Z" style="fill:#fff;opacity:.30000000000000004"/><path d="m292.69 173.58.13-63.81c0-1.19-.78-1.71-1.75-1.15a4 4 0 0 0-1.76 3.18l-.13 63.81c0 1.19.79 1.71 1.76 1.15a4 4 0 0 0 1.75-3.18Z" style="fill:#e0e0e0"/><path d="m292.76 126.63-.07 47a4 4 0 0 1-1.75 3.18c-1 .56-1.76 0-1.76-1.15l.07-47Z" style="fill:#455a64"/><path d="M290.89 134.58a4.26 4.26 0 0 1-1.65.58v-6.5l3.51-2V133a8 8 0 0 1-1.86 1.58Z" style="fill:#37474f"/><path d="M295.46 124.85c0-2.84-2-4-4.46-2.57a9.83 9.83 0 0 0-4.45 7.71c0 2.84 2 4 4.45 2.58a9.86 9.86 0 0 0 4.46-7.72Z" style="fill:#ba68c8"/><path d="M295.46 124.85c0-2.84-2-4-4.46-2.57a9.83 9.83 0 0 0-4.45 7.71c0 2.84 2 4 4.45 2.58a9.86 9.86 0 0 0 4.46-7.72Z" style="fill:#fff;opacity:.30000000000000004"/><path d="m279.32 181.3.13-63.81c0-1.19-.79-1.71-1.76-1.15a4 4 0 0 0-1.75 3.18l-.13 63.81c0 1.19.79 1.71 1.76 1.15a4 4 0 0 0 1.75-3.18Z" style="fill:#e0e0e0"/><path d="M279.3 163.69v17.61a4 4 0 0 1-1.75 3.18c-1 .56-1.76 0-1.76-1.15v-17.61Z" style="fill:#455a64"/><path d="M277.44 171.86a4.39 4.39 0 0 1-1.64.58v-6.72l3.5-2v6.59a7.86 7.86 0 0 1-1.86 1.55Z" style="fill:#37474f"/><path d="M282 162.13c0-2.84-2-4-4.45-2.57a9.85 9.85 0 0 0-4.45 7.72c0 2.84 2 4 4.45 2.57a9.85 9.85 0 0 0 4.45-7.72Z" style="fill:#ba68c8"/><path d="M282 162.13c0-2.84-2-4-4.45-2.57a9.85 9.85 0 0 0-4.45 7.72c0 2.84 2 4 4.45 2.57a9.85 9.85 0 0 0 4.45-7.72Z" style="fill:#fff;opacity:.30000000000000004"/><path d="m332.82 150.42.12-63.82c0-1.19-.78-1.7-1.75-1.14a4 4 0 0 0-1.76 3.17l-.12 63.81c0 1.2.78 1.71 1.75 1.15a4 4 0 0 0 1.76-3.17Z" style="fill:#e0e0e0"/><path d="M332.8 132.81v17.61a4 4 0 0 1-1.76 3.17c-1 .56-1.75 0-1.75-1.15v-17.61Z" style="fill:#455a64"/><path d="M330.93 141a4.42 4.42 0 0 1-1.64.59v-6.73l3.51-2v6.59a7.59 7.59 0 0 1-1.87 1.55Z" style="fill:#37474f"/><path d="M335.5 131.25c0-2.84-2-4-4.46-2.57a9.83 9.83 0 0 0-4.45 7.71c0 2.84 2 4 4.45 2.57a9.84 9.84 0 0 0 4.46-7.71Z" style="fill:#ba68c8"/><path d="M335.5 131.25c0-2.84-2-4-4.46-2.57a9.83 9.83 0 0 0-4.45 7.71c0 2.84 2 4 4.45 2.57a9.84 9.84 0 0 0 4.46-7.71Z" style="fill:#fff;opacity:.30000000000000004"/><path d="m319.44 158.14.13-63.82c0-1.19-.78-1.7-1.75-1.14a4 4 0 0 0-1.76 3.17l-.13 63.81c0 1.2.79 1.71 1.76 1.15a4 4 0 0 0 1.75-3.17Z" style="fill:#e0e0e0"/><path d="m319.51 111.19-.07 46.95a4 4 0 0 1-1.75 3.17c-1 .56-1.76.05-1.76-1.15l.07-46.95Z" style="fill:#455a64"/><path d="M317.64 119.13a4.29 4.29 0 0 1-1.65.59v-6.51l3.51-2v6.39a7.67 7.67 0 0 1-1.86 1.53Z" style="fill:#37474f"/><path d="M322.21 109.41c0-2.84-2-4-4.46-2.58a9.87 9.87 0 0 0-4.45 7.72c0 2.84 2 4 4.45 2.57a9.84 9.84 0 0 0 4.46-7.71Z" style="fill:#ba68c8"/><path d="M322.21 109.41c0-2.84-2-4-4.46-2.58a9.87 9.87 0 0 0-4.45 7.72c0 2.84 2 4 4.45 2.57a9.84 9.84 0 0 0 4.46-7.71Z" style="fill:#fff;opacity:.30000000000000004"/><path d="m147.26 170.4 94.56-54.59c.67-.39 1.22-.08 1.22.7v85.67a2.72 2.72 0 0 1-1.22 2.12l-94.56 54.59c-.67.39-1.22.07-1.22-.7v-85.67a2.72 2.72 0 0 1 1.22-2.12Z" style="opacity:.2"/><path d="M250.29 120.85a1.57 1.57 0 0 0-1.43.2l-92.7 53.53a4.75 4.75 0 0 0-2.15 3.73V262a1.56 1.56 0 0 0 .59 1.38c-.37-.24-3.63-2.08-4-2.32a1.53 1.53 0 0 1-.62-1.38V176a4.75 4.75 0 0 1 2.16-3.73l92.69-53.54a1.54 1.54 0 0 1 1.54-.14c.33.19 3.15 1.8 3.92 2.26Z" style="fill:#ba68c8"/><g style="opacity:.2"><path d="M250.29 120.85c-.77-.46-3.59-2.07-3.94-2.28a1.54 1.54 0 0 0-1.54.14l-92.69 53.54a4.37 4.37 0 0 0-1.53 1.6l4 2.34a4.38 4.38 0 0 1 1.52-1.61l92.7-53.53a1.57 1.57 0 0 1 1.48-.2Z" style="fill:#fff"/></g><path d="m156.16 174.58 92.69-53.53c1.19-.69 2.16-.13 2.16 1.25V206a4.74 4.74 0 0 1-2.16 3.73l-92.69 53.53c-1.19.69-2.16.13-2.16-1.24v-83.7a4.78 4.78 0 0 1 2.16-3.74Z" style="fill:#ba68c8"/><g style="opacity:.5"><path d="m156.16 174.58 92.69-53.53c1.19-.69 2.16-.13 2.16 1.25V206a4.74 4.74 0 0 1-2.16 3.73l-92.69 53.53c-1.19.69-2.16.13-2.16-1.24v-83.7a4.78 4.78 0 0 1 2.16-3.74Z" style="fill:#fff"/></g><path d="m154.64 176.19-4-2.34A4.43 4.43 0 0 0 150 176v83.7a1.53 1.53 0 0 0 .62 1.38c.39.24 3.65 2.08 4 2.32a1.56 1.56 0 0 1-.62-1.4v-83.69a4.36 4.36 0 0 1 .64-2.12Z" style="fill:#ba68c8"/><path d="m154.64 176.19-4-2.34A4.43 4.43 0 0 0 150 176v83.7a1.53 1.53 0 0 0 .62 1.38c.39.24 3.65 2.08 4 2.32a1.56 1.56 0 0 1-.62-1.4v-83.69a4.36 4.36 0 0 1 .64-2.12Z" style="opacity:.15"/><path d="m214.68 202.34 7.33 10.3-33.11-30.14-34.9 59.12V262c0 1.37 1 1.93 2.16 1.24l92.69-53.53A4.74 4.74 0 0 0 251 206v-11.2L226.32 177ZM218.67 152.79c4.33-2.5 7.83-.47 7.83 4.52a17.27 17.27 0 0 1-7.83 13.55c-4.32 2.5-7.82.47-7.82-4.52a17.28 17.28 0 0 1 7.82-13.55Z" style="fill:#fafafa;opacity:.9500000000000001"/><path d="M249.82 121.75c.19 0 .19.49.19.55V206a3.78 3.78 0 0 1-1.65 2.87l-92.7 53.53a1 1 0 0 1-.46.16c-.19 0-.2-.49-.2-.54v-83.7a3.76 3.76 0 0 1 1.66-2.87l92.69-53.53a1 1 0 0 1 .47-.16m0-1a2 2 0 0 0-1 .29l-92.69 53.53a4.78 4.78 0 0 0-2.16 3.73V262c0 1 .49 1.54 1.2 1.54a2 2 0 0 0 1-.3l92.69-53.53A4.74 4.74 0 0 0 251 206v-83.7c0-1-.49-1.54-1.19-1.54Z" style="fill:#ba68c8"/><path d="m95.73 309.7 122.79-70.89c2.39-1.38 4.33-.26 4.33 2.5v80.91a9.58 9.58 0 0 1-4.33 7.5L95.73 400.61c-2.39 1.38-4.33.26-4.33-2.5V317.2a9.58 9.58 0 0 1 4.33-7.5Z" style="opacity:.2"/><path d="M226.83 248.26a1.51 1.51 0 0 0-.07-.38s0 0 0-.08a1.36 1.36 0 0 0-.09-.36 2.45 2.45 0 0 0-.24-.52.7.7 0 0 0-.14-.21c0-.05-.06-.11-.12-.15a1.6 1.6 0 0 0-.26-.26 2.43 2.43 0 0 0-.35-.2 3 3 0 0 0-2.73.35l-118.96 68.42c-2.24 1.29-4.07 4.45-4.07 9v80.67-1.91.89a2.74 2.74 0 0 0 1.46 2.44l.17.12.22.12a1.7 1.7 0 0 0 .34.12 2.37 2.37 0 0 0 .52.06 2.62 2.62 0 0 0 1.35-.38l.1-.07 3.87-2.23 114.94-66.22a9 9 0 0 0 4.07-7v-81.72c.02-.17 0-.34-.01-.5Z" style="fill:#455a64"/><path d="M225.52 246.07a3 3 0 0 0-2.73.35l-118.92 68.45a9 9 0 0 0-4.07 7v7.87l-5-2.94v-7.78a9 9 0 0 1 4-7l118.94-68.46a2.84 2.84 0 0 1 2.95-.24c.76.46 3.97 2.3 4.83 2.75Z" style="fill:#ba68c8"/><path d="M226.85 248.74c0-2.57-1.83-3.6-4.06-2.32l-118.92 68.46a8.94 8.94 0 0 0-4.06 7v7.88l127-73.12Z" style="fill:#ba68c8"/><g style="opacity:.2"><path d="m222.79 246.42-118.92 68.45a8.41 8.41 0 0 0-2.86 3L96 315a8.08 8.08 0 0 1 2.82-3l118.93-68.45a2.84 2.84 0 0 1 2.95-.24c.73.45 3.93 2.27 4.79 2.72a3 3 0 0 0-2.7.39Z" style="fill:#fff"/></g><path d="M94.78 326.85v-7.79A8.29 8.29 0 0 1 96 315l5 2.87a8.25 8.25 0 0 0-1.21 4v7.87Z" style="opacity:.15"/><path d="M210.85 257.07a4.07 4.07 0 0 0-1.54 3.27c0 1.31.69 2 1.54 1.48a4.06 4.06 0 0 0 1.54-3.26c0-1.32-.69-1.98-1.54-1.49ZM216.4 253.86a4.06 4.06 0 0 0-1.54 3.26c0 1.32.69 2 1.54 1.49a4.08 4.08 0 0 0 1.54-3.27c0-1.34-.69-1.97-1.54-1.48ZM222 250.65a4.06 4.06 0 0 0-1.54 3.26c0 1.31.69 2 1.54 1.49a4.06 4.06 0 0 0 1.55-3.27c-.05-1.31-.74-1.97-1.55-1.48Z" style="fill:#fff"/><path d="m101.26 406-.21-.12-4.11-2.38a4.29 4.29 0 0 1-2.12-3.15 3.81 3.81 0 0 1 0-.59v-72.92l5 2.94v73.7a2.67 2.67 0 0 0 1.27 2.31 1 1 0 0 0 .13.09Z" style="fill:#263238"/><g style="opacity:.6000000000000001"><path d="m107.49 367.56 5.26-3c.52-.3 1 0 1 .56V367a2.13 2.13 0 0 1-1 1.65l-5.25 3c-.53.31-1 .06-1-.55v-1.93a2.11 2.11 0 0 1 .99-1.61ZM107.49 375.24l5.26-3c.52-.31 1-.06 1 .55v1.93a2.11 2.11 0 0 1-1 1.65l-5.25 3c-.53.3-1 .05-1-.55v-1.94a2.14 2.14 0 0 1 .99-1.64ZM107.49 382.93l5.26-3c.52-.3 1-.05 1 .55v1.94a2.14 2.14 0 0 1-1 1.65l-5.25 3c-.53.31-1 .06-1-.55v-1.93a2.11 2.11 0 0 1 .99-1.66ZM107.49 390.61l5.26-3c.52-.31 1-.06 1 .55v1.93a2.11 2.11 0 0 1-1 1.65l-5.25 3c-.53.3-1 .05-1-.56v-1.93a2.14 2.14 0 0 1 .99-1.64Z" style="fill:#fff"/></g><g style="opacity:.6000000000000001"><path d="m107.49 333.29 5.26-3c.52-.31 1-.06 1 .55v1.93a2.11 2.11 0 0 1-1 1.65l-5.25 3c-.53.31-1 .06-1-.55v-1.93a2.11 2.11 0 0 1 .99-1.65ZM107.49 341l5.26-3c.52-.3 1-.06 1 .55v1.93a2.14 2.14 0 0 1-1 1.66l-5.25 3c-.53.3-1 .06-1-.55v-1.93a2.14 2.14 0 0 1 .99-1.66ZM107.49 348.66l5.26-3c.52-.31 1-.06 1 .55v1.93a2.11 2.11 0 0 1-1 1.65l-5.25 3c-.53.31-1 .06-1-.55v-1.93a2.11 2.11 0 0 1 .99-1.65ZM107.49 356.34l5.26-3c.52-.3 1-.06 1 .55v1.93a2.14 2.14 0 0 1-1 1.66l-5.25 3c-.53.3-1 .06-1-.55V358a2.14 2.14 0 0 1 .99-1.66Z" style="fill:#fff"/></g><path d="m121.1 326.91 29.38-17c.53-.31 1-.09 1 .49a2.09 2.09 0 0 1-1 1.6l-29.38 17c-.54.31-1 .09-1-.49a2.07 2.07 0 0 1 1-1.6ZM121.06 352.19l45.07-26.09c.54-.31 1-.09 1 .49a2.05 2.05 0 0 1-1 1.6l-45.07 26.09c-.53.31-1 .09-1-.48a2.07 2.07 0 0 1 1-1.61ZM154.22 307.75l12.5-7.21c.53-.31 1-.09 1 .49a2.08 2.08 0 0 1-1 1.6l-12.5 7.21c-.53.31-1 .09-1-.49a2.07 2.07 0 0 1 1-1.6ZM121.1 332.92l10.56-6.15c.53-.3 1-.09 1 .49a2.05 2.05 0 0 1-1 1.6L121.1 335c-.54.31-1 .09-1-.49a2.07 2.07 0 0 1 1-1.59Z" style="fill:#ba68c8"/><path d="m121.1 332.92 10.56-6.15c.53-.3 1-.09 1 .49a2.05 2.05 0 0 1-1 1.6L121.1 335c-.54.31-1 .09-1-.49a2.07 2.07 0 0 1 1-1.59Z" style="fill:#fff;opacity:.6000000000000001"/><path d="m121.1 338.89 11.59-6.67c.53-.31 1-.09 1 .49a2.07 2.07 0 0 1-1 1.6L121.1 341c-.54.3-1 .08-1-.49a2.07 2.07 0 0 1 1-1.62Z" style="fill:#ba68c8"/><path d="m121.1 338.89 11.59-6.67c.53-.31 1-.09 1 .49a2.07 2.07 0 0 1-1 1.6L121.1 341c-.54.3-1 .08-1-.49a2.07 2.07 0 0 1 1-1.62Z" style="fill:#fff;opacity:.6000000000000001"/><path d="m135.4 324.61 8.78-5.1c.53-.31 1-.09 1 .48a2.08 2.08 0 0 1-1 1.61l-8.78 5.1c-.53.31-1 .09-1-.48a2.1 2.1 0 0 1 1-1.61Z" style="fill:#ba68c8"/><path d="m135.4 324.61 8.78-5.1c.53-.31 1-.09 1 .48a2.08 2.08 0 0 1-1 1.61l-8.78 5.1c-.53.31-1 .09-1-.48a2.1 2.1 0 0 1 1-1.61Z" style="fill:#fff;opacity:.6000000000000001"/><path d="m131.15 361.43 35.57-20.75c.54-.31 1-.09 1 .49a2 2 0 0 1-1 1.6l-35.57 20.75c-.53.31-1 .09-1-.49a2.09 2.09 0 0 1 1-1.6ZM131.15 355.46l35.57-20.78c.53-.31 1-.09 1 .49a2.08 2.08 0 0 1-1 1.6l-35.57 20.78c-.53.31-1 .09-1-.49a2.09 2.09 0 0 1 1-1.6Z" style="fill:#ffa8a7"/><path d="m135.79 330.45 10.36-6.07c.53-.31 1-.09 1 .49a2.07 2.07 0 0 1-1 1.6l-10.36 6.07c-.53.31-1 .09-1-.49a2.09 2.09 0 0 1 1-1.6Z" style="fill:#ba68c8"/><path d="m135.79 330.45 10.36-6.07c.53-.31 1-.09 1 .49a2.07 2.07 0 0 1-1 1.6l-10.36 6.07c-.53.31-1 .09-1-.49a2.09 2.09 0 0 1 1-1.6Z" style="fill:#fff;opacity:.6000000000000001"/><path d="m149.89 322.22 16.26-9.22c.54-.31 1-.09 1 .49a2.05 2.05 0 0 1-1 1.6l-16.26 9.18c-.53.31-1 .09-1-.49a2.07 2.07 0 0 1 1-1.56Z" style="fill:#ba68c8"/><path d="m149.89 322.22 16.26-9.22c.54-.31 1-.09 1 .49a2.05 2.05 0 0 1-1 1.6l-16.26 9.18c-.53.31-1 .09-1-.49a2.07 2.07 0 0 1 1-1.56Z" style="fill:#fff;opacity:.6000000000000001"/><path d="m121.06 345.2 25.09-14.41c.53-.31 1-.09 1 .49a2.05 2.05 0 0 1-1 1.6l-25.09 14.41c-.53.31-1 .09-1-.48a2.07 2.07 0 0 1 1-1.61Z" style="fill:#ba68c8"/><path d="m121.06 345.2 25.09-14.41c.53-.31 1-.09 1 .49a2.05 2.05 0 0 1-1 1.6l-25.09 14.41c-.53.31-1 .09-1-.48a2.07 2.07 0 0 1 1-1.61Z" style="fill:#fff;opacity:.6000000000000001"/><path d="m149.89 328.63 16.26-9.18c.54-.3 1-.09 1 .49a2.07 2.07 0 0 1-1 1.61l-16.26 9.17c-.53.31-1 .09-1-.49a2.08 2.08 0 0 1 1-1.6Z" style="fill:#ba68c8"/><path d="m149.89 328.63 16.26-9.18c.54-.3 1-.09 1 .49a2.07 2.07 0 0 1-1 1.61l-16.26 9.17c-.53.31-1 .09-1-.49a2.08 2.08 0 0 1 1-1.6Z" style="fill:#fff;opacity:.6000000000000001"/><path d="m131.15 367.48 35.57-20.6c.54-.31 1-.09 1 .48a2.07 2.07 0 0 1-1 1.61l-35.57 20.6c-.53.31-1 .09-1-.49a2.08 2.08 0 0 1 1-1.6ZM131.15 373.47l35.57-20.61c.54-.31 1-.09 1 .49a2 2 0 0 1-1 1.6l-35.57 20.61c-.53.3-1 .09-1-.49a2.06 2.06 0 0 1 1-1.6ZM131.15 379.45l35.57-20.6c.54-.31 1-.09 1 .49a2.07 2.07 0 0 1-1 1.6l-35.57 20.6c-.53.31-1 .09-1-.49a2.09 2.09 0 0 1 1-1.6Z" style="fill:#f28f8f"/><path d="m121.3 360.3 4.47-2.57c.53-.3 1-.08 1 .49a2.08 2.08 0 0 1-1 1.61l-4.47 2.56c-.54.31-1 .09-1-.48a2.07 2.07 0 0 1 1-1.61Z" style="fill:#ba68c8"/><path d="m121.3 360.3 4.47-2.57c.53-.3 1-.08 1 .49a2.08 2.08 0 0 1-1 1.61l-4.47 2.56c-.54.31-1 .09-1-.48a2.07 2.07 0 0 1 1-1.61Z" style="fill:#fff;opacity:.6000000000000001"/><path d="m121.3 373.17 4.47-2.56c.53-.31 1-.09 1 .48a2.08 2.08 0 0 1-1 1.61l-4.47 2.57c-.54.3-1 .08-1-.49a2.07 2.07 0 0 1 1-1.61Z" style="fill:#ba68c8"/><path d="m121.3 373.17 4.47-2.56c.53-.31 1-.09 1 .48a2.08 2.08 0 0 1-1 1.61l-4.47 2.57c-.54.3-1 .08-1-.49a2.07 2.07 0 0 1 1-1.61Z" style="fill:#fff;opacity:.6000000000000001"/><path d="m121.3 379.16 4.47-2.57c.53-.31 1-.09 1 .49a2.05 2.05 0 0 1-1 1.6l-4.47 2.57c-.54.31-1 .09-1-.49a2.07 2.07 0 0 1 1-1.6Z" style="fill:#ba68c8"/><path d="m121.3 379.16 4.47-2.57c.53-.31 1-.09 1 .49a2.05 2.05 0 0 1-1 1.6l-4.47 2.57c-.54.31-1 .09-1-.49a2.07 2.07 0 0 1 1-1.6Z" style="fill:#fff;opacity:.6000000000000001"/><path d="m121.3 385.15 4.47-2.57c.53-.31 1-.09 1 .49a2.08 2.08 0 0 1-1 1.6l-4.47 2.57c-.54.31-1 .09-1-.49a2 2 0 0 1 1-1.6Z" style="fill:#ba68c8"/><path d="m121.3 385.15 4.47-2.57c.53-.31 1-.09 1 .49a2.08 2.08 0 0 1-1 1.6l-4.47 2.57c-.54.31-1 .09-1-.49a2 2 0 0 1 1-1.6Z" style="fill:#fff;opacity:.6000000000000001"/><path d="m216.42 270.6-37.69 21.76a5.6 5.6 0 0 0-2.53 4.38v56.76c0 1.61 1.14 2.27 2.53 1.46l37.69-21.76a5.62 5.62 0 0 0 2.53-4.38v-56.76c.05-1.61-1.14-2.27-2.53-1.46Z" style="fill:#37474f"/><path d="m212.92 313.73-3.47 2a2.74 2.74 0 0 0-1.28 2.12c0 .77.57 1.06 1.28.65l3.47-2a2.74 2.74 0 0 0 1.28-2.13c0-.76-.57-1.05-1.28-.64Z" style="fill:#ba68c8"/><path d="m212.92 313.73-3.47 2a2.74 2.74 0 0 0-1.28 2.12c0 .77.57 1.06 1.28.65l3.47-2a2.74 2.74 0 0 0 1.28-2.13c0-.76-.57-1.05-1.28-.64Z" style="fill:#fff;opacity:.6000000000000001"/><path d="m212.92 278.1-3.47 2a2.72 2.72 0 0 0-1.28 2.12c0 .77.57 1.06 1.28.65l3.47-2a2.72 2.72 0 0 0 1.28-2.12c0-.75-.57-1.06-1.28-.65Z" style="fill:#ba68c8"/><path d="m212.92 278.1-3.47 2a2.72 2.72 0 0 0-1.28 2.12c0 .77.57 1.06 1.28.65l3.47-2a2.72 2.72 0 0 0 1.28-2.12c0-.75-.57-1.06-1.28-.65Z" style="fill:#fff;opacity:.6000000000000001"/><path d="m208 288-3.47 2a2.77 2.77 0 0 0-1.28 2.13c0 .76.58 1 1.28.65l3.47-2a2.74 2.74 0 0 0 1.28-2.13c.04-.74-.53-1.03-1.28-.65Z" style="fill:#ba68c8"/><path d="m208 288-3.47 2a2.77 2.77 0 0 0-1.28 2.13c0 .76.58 1 1.28.65l3.47-2a2.74 2.74 0 0 0 1.28-2.13c.04-.74-.53-1.03-1.28-.65Z" style="fill:#fff;opacity:.6000000000000001"/><path d="m208 295.13-3.47 2a2.77 2.77 0 0 0-1.28 2.13c0 .76.58 1.05 1.28.64l3.47-2a2.74 2.74 0 0 0 1.28-2.13c.04-.77-.53-1.04-1.28-.64Z" style="fill:#ba68c8"/><path d="m208 295.13-3.47 2a2.77 2.77 0 0 0-1.28 2.13c0 .76.58 1.05 1.28.64l3.47-2a2.74 2.74 0 0 0 1.28-2.13c.04-.77-.53-1.04-1.28-.64Z" style="fill:#fff;opacity:.6000000000000001"/><path d="m212.92 299.47-3.47 2a2.74 2.74 0 0 0-1.28 2.13c0 .76.57 1.05 1.28.65l3.47-2a2.74 2.74 0 0 0 1.28-2.13c0-.76-.57-1.05-1.28-.65Z" style="fill:#ba68c8"/><path d="m212.92 299.47-3.47 2a2.74 2.74 0 0 0-1.28 2.13c0 .76.57 1.05 1.28.65l3.47-2a2.74 2.74 0 0 0 1.28-2.13c0-.76-.57-1.05-1.28-.65Z" style="fill:#fff;opacity:.6000000000000001"/><path d="m208 309.41-3.47 2a2.77 2.77 0 0 0-1.28 2.13c0 .77.58 1.06 1.28.65l3.47-2a2.74 2.74 0 0 0 1.28-2.13c.04-.77-.53-1.06-1.28-.65Z" style="fill:#ba68c8"/><path d="m208 309.41-3.47 2a2.77 2.77 0 0 0-1.28 2.13c0 .77.58 1.06 1.28.65l3.47-2a2.74 2.74 0 0 0 1.28-2.13c.04-.77-.53-1.06-1.28-.65Z" style="fill:#fff;opacity:.6000000000000001"/><path d="m203.42 283.59-21.19 12.23A2.77 2.77 0 0 0 181 298c0 .76.58 1.05 1.28.64l21.19-12.23a2.74 2.74 0 0 0 1.28-2.12c-.05-.82-.62-1.11-1.33-.7Z" style="fill:#ba68c8"/><path d="m203.42 283.59-21.19 12.23A2.77 2.77 0 0 0 181 298c0 .76.58 1.05 1.28.64l21.19-12.23a2.74 2.74 0 0 0 1.28-2.12c-.05-.82-.62-1.11-1.33-.7Z" style="fill:#fff;opacity:.8"/><path d="m203.42 319.22-21.19 12.23a2.77 2.77 0 0 0-1.28 2.13c0 .76.58 1.05 1.28.65L203.42 322a2.72 2.72 0 0 0 1.28-2.12c0-.78-.57-1.07-1.28-.66Z" style="fill:#ba68c8"/><path d="m203.42 319.22-21.19 12.23a2.77 2.77 0 0 0-1.28 2.13c0 .76.58 1.05 1.28.65L203.42 322a2.72 2.72 0 0 0 1.28-2.12c0-.78-.57-1.07-1.28-.66Z" style="fill:#fff;opacity:.8"/><path d="M198.54 293.51 182.23 303a2.75 2.75 0 0 0-1.28 2.12c0 .77.58 1.06 1.28.65l16.31-9.43a2.74 2.74 0 0 0 1.28-2.13c0-.82-.57-1.11-1.28-.7Z" style="fill:#ba68c8"/><path d="M198.54 293.51 182.23 303a2.75 2.75 0 0 0-1.28 2.12c0 .77.58 1.06 1.28.65l16.31-9.43a2.74 2.74 0 0 0 1.28-2.13c0-.82-.57-1.11-1.28-.7Z" style="fill:#fff;opacity:.8"/><path d="m198.54 300.64-16.31 9.43a2.77 2.77 0 0 0-1.23 2.13c0 .77.58 1.06 1.28.65l16.31-9.44a2.74 2.74 0 0 0 1.28-2.12c-.05-.77-.62-1.06-1.33-.65Z" style="fill:#ba68c8"/><path d="m198.54 300.64-16.31 9.43a2.77 2.77 0 0 0-1.23 2.13c0 .77.58 1.06 1.28.65l16.31-9.44a2.74 2.74 0 0 0 1.28-2.12c-.05-.77-.62-1.06-1.33-.65Z" style="fill:#fff;opacity:.8"/><path d="m203.42 305-21.19 12.2a2.77 2.77 0 0 0-1.28 2.13c0 .76.58 1.05 1.28.64l21.19-12.23a2.74 2.74 0 0 0 1.28-2.13c0-.76-.57-1.05-1.28-.61Z" style="fill:#ba68c8"/><path d="m203.42 305-21.19 12.2a2.77 2.77 0 0 0-1.28 2.13c0 .76.58 1.05 1.28.64l21.19-12.23a2.74 2.74 0 0 0 1.28-2.13c0-.76-.57-1.05-1.28-.61Z" style="fill:#fff;opacity:.8"/><path d="m198.54 314.89-16.31 9.44a2.75 2.75 0 0 0-1.28 2.12c0 .77.58 1.06 1.28.65l16.31-9.43a2.74 2.74 0 0 0 1.28-2.13c0-.76-.57-1.05-1.28-.65Z" style="fill:#ba68c8"/><path d="m198.54 314.89-16.31 9.44a2.75 2.75 0 0 0-1.28 2.12c0 .77.58 1.06 1.28.65l16.31-9.43a2.74 2.74 0 0 0 1.28-2.13c0-.76-.57-1.05-1.28-.65Z" style="fill:#fff;opacity:.8"/><path d="m212.92 328.06-3.47 2a2.74 2.74 0 0 0-1.28 2.13c0 .76.57 1.05 1.28.64l3.47-2a2.74 2.74 0 0 0 1.28-2.13c0-.76-.57-1.05-1.28-.64Z" style="fill:#ba68c8"/><path d="m212.92 328.06-3.47 2a2.74 2.74 0 0 0-1.28 2.13c0 .76.57 1.05 1.28.64l3.47-2a2.74 2.74 0 0 0 1.28-2.13c0-.76-.57-1.05-1.28-.64Z" style="fill:#fff;opacity:.6000000000000001"/><path d="m208 323.74-3.47 2a2.77 2.77 0 0 0-1.28 2.13c0 .77.58 1.06 1.28.65l3.47-2a2.74 2.74 0 0 0 1.28-2.13c.04-.77-.53-1.06-1.28-.65Z" style="fill:#ba68c8"/><path d="m208 323.74-3.47 2a2.77 2.77 0 0 0-1.28 2.13c0 .77.58 1.06 1.28.65l3.47-2a2.74 2.74 0 0 0 1.28-2.13c.04-.77-.53-1.06-1.28-.65Z" style="fill:#fff;opacity:.6000000000000001"/><path d="m203.42 333.55-21.19 12.23a2.77 2.77 0 0 0-1.28 2.13c0 .77.58 1.06 1.28.65l21.19-12.24a2.72 2.72 0 0 0 1.28-2.12c0-.77-.57-1.06-1.28-.65Z" style="fill:#ba68c8"/><path d="m203.42 333.55-21.19 12.23a2.77 2.77 0 0 0-1.28 2.13c0 .77.58 1.06 1.28.65l21.19-12.24a2.72 2.72 0 0 0 1.28-2.12c0-.77-.57-1.06-1.28-.65Z" style="fill:#fff;opacity:.8"/><path d="m198.54 329.22-16.31 9.44a2.75 2.75 0 0 0-1.28 2.12c0 .77.58 1.06 1.28.65l16.31-9.43a2.74 2.74 0 0 0 1.28-2.13c0-.76-.57-1.05-1.28-.65Z" style="fill:#ba68c8"/><path d="m198.54 329.22-16.31 9.44a2.75 2.75 0 0 0-1.28 2.12c0 .77.58 1.06 1.28.65l16.31-9.43a2.74 2.74 0 0 0 1.28-2.13c0-.76-.57-1.05-1.28-.65Z" style="fill:#fff;opacity:.8"/><path d="m92.62 252.64 41.52-24c.67-.39 1.22-.07 1.22.7v36.14a2.7 2.7 0 0 1-1.22 2.11l-41.52 24c-.67.39-1.22.08-1.22-.7v-36.13a2.72 2.72 0 0 1 1.22-2.12Z" style="opacity:.2"/><path d="M132.4 234 96 255.05a3 3 0 0 0-1.35 2.33v33.78a2.92 2.92 0 0 0 1.35 2.31l2.56 1.46a3 3 0 0 0 2.7 0l36.43-21a3 3 0 0 0 1.35-2.33v-33.81a2.93 2.93 0 0 0-1.36-2.31L135.1 234a3 3 0 0 0-2.7 0Z" style="fill:#ba68c8"/><path d="M101.24 294.91a3.08 3.08 0 0 1-2.7 0L96 293.47a2.93 2.93 0 0 1-1.36-2.31v-33.78a2.81 2.81 0 0 1 .43-1.37l5.24 3a2.69 2.69 0 0 0-.4 1.32v33.77c-.02.82.53 1.27 1.33.81Z" style="opacity:.2"/><g style="opacity:.2"><path d="M139 237.55c-.11-.68-.66-.92-1.33-.53l-36.43 21a2.81 2.81 0 0 0-.95 1L95 256a2.86 2.86 0 0 1 .93-1l36.44-21a3 3 0 0 1 2.69 0l2.56 1.46a3 3 0 0 1 1.38 2.09Z" style="fill:#fff"/></g><path d="m137.67 237-36.43 21a3 3 0 0 0-1.35 2.33v33.78c0 .85.6 1.2 1.35.77l36.43-21a3 3 0 0 0 1.35-2.33v-33.76c-.02-.85-.61-1.2-1.35-.79Z" style="fill:#ba68c8"/><path d="M103.5 274.86a2.09 2.09 0 0 1 .15-.83 5.13 5.13 0 0 1 .42-.78l8-12.85.12-.15.09-.06a.23.23 0 0 1 .3 0 .5.5 0 0 1 .12.39v5a2.15 2.15 0 0 1-.23 1 7.77 7.77 0 0 1-.4.68l-3.48 5.34L112 274a1.75 1.75 0 0 1 .4.19c.15.1.23.35.23.76v5a1.24 1.24 0 0 1-.12.53.76.76 0 0 1-.3.35.19.19 0 0 1-.09 0H112l-8-3.67a1 1 0 0 1-.42-.29 1.07 1.07 0 0 1-.15-.66ZM120.81 253.09a4.63 4.63 0 0 1 .3-.8 1.45 1.45 0 0 1 .58-.62l2.66-1.54a.24.24 0 0 1 .31 0 .54.54 0 0 1 .12.39 1.13 1.13 0 0 1 0 .3L118 279.46a3.22 3.22 0 0 1-.28.78 1.49 1.49 0 0 1-.59.65l-2.6 1.5a.24.24 0 0 1-.31 0 .54.54 0 0 1-.13-.4 1.24 1.24 0 0 1 0-.3ZM135.41 257.72a2.1 2.1 0 0 1-.15.84 5.28 5.28 0 0 1-.43.78l-7.94 12.84a1.16 1.16 0 0 1-.13.15l-.09.07a.24.24 0 0 1-.3 0 .54.54 0 0 1-.12-.39v-5a2.13 2.13 0 0 1 .23-1 7.31 7.31 0 0 1 .41-.66l3.47-5.37-3.47-1.32a1.77 1.77 0 0 1-.41-.21c-.15-.11-.23-.37-.23-.77v-5a1.17 1.17 0 0 1 .12-.52.79.79 0 0 1 .3-.36h.22l7.94 3.67a.8.8 0 0 1 .58.95Z" style="fill:#fff"/><path d="m92.62 202 41.52-24c.67-.39 1.22-.08 1.22.7v36.14a2.72 2.72 0 0 1-1.22 2.11l-41.52 24c-.67.39-1.22.08-1.22-.7v-36.19a2.72 2.72 0 0 1 1.22-2.06Z" style="opacity:.2"/><path d="M132.4 183.58 96 204.6a3 3 0 0 0-1.35 2.33v33.77A3 3 0 0 0 96 243l2.56 1.45a3 3 0 0 0 2.7 0l36.43-21a3 3 0 0 0 1.35-2.33v-33.78a2.94 2.94 0 0 0-1.36-2.32l-2.56-1.45a3 3 0 0 0-2.72.01Z" style="fill:#ba68c8"/><path d="M101.24 244.46a3.08 3.08 0 0 1-2.7 0L96 243a2.9 2.9 0 0 1-1.36-2.31v-33.76a2.82 2.82 0 0 1 .43-1.38l5.24 3a2.7 2.7 0 0 0-.4 1.33v33.77c-.02.81.53 1.27 1.33.81Z" style="opacity:.2"/><g style="opacity:.2"><path d="M139 187.09c-.11-.67-.66-.92-1.33-.53l-36.43 21a2.77 2.77 0 0 0-.95 1l-5.25-3a2.73 2.73 0 0 1 .93-1l36.44-21a3 3 0 0 1 2.69 0l2.56 1.45a3 3 0 0 1 1.34 2.08Z" style="fill:#fff"/></g><path d="m137.67 186.56-36.43 21a3 3 0 0 0-1.35 2.33v33.77c0 .86.6 1.21 1.35.78l36.43-21a3 3 0 0 0 1.35-2.33v-33.77c-.02-.86-.61-1.21-1.35-.78Z" style="fill:#fafafa"/><path d="M137.94 187.65v33.46a1.94 1.94 0 0 1-.81 1.4L101 243.37v-33.46a2 2 0 0 1 .8-1.4l36.17-20.86m.33-1.27a1.27 1.27 0 0 0-.6.18l-36.43 21a3 3 0 0 0-1.35 2.33v33.77c0 .61.3 1 .74 1a1.28 1.28 0 0 0 .61-.18l36.43-21a3 3 0 0 0 1.35-2.33v-33.81c0-.61-.31-1-.75-1Z" style="fill:#ba68c8"/><path d="m129.06 222.79-.01-23.41-2.08-1.21v23.41l2.09 1.21z" style="fill:#ba68c8"/><path d="m129.06 222.79-.01-23.41-2.08-1.21v23.41l2.09 1.21z" style="opacity:.2"/><path d="m129.06 222.79 6.06-3.5v-23.41l-6.07 3.5.01 23.41z" style="fill:#ba68c8"/><path d="m135.12 195.88-2.09-1.21-6.06 3.5 2.08 1.21 6.07-3.5z" style="fill:#ba68c8"/><path d="m135.12 195.88-2.09-1.21-6.06 3.5 2.08 1.21 6.07-3.5z" style="fill:#fff;opacity:.25"/><path d="m135.12 195.88-6.07 3.41-2.05-1.12 2 1.34c-.05.68 0 22.58.08 23.28.1-.7.13-22.64.09-23.3Z" style="fill:#fff;opacity:.30000000000000004"/><path d="M117.69 229.35v-18.8l-2.09-1.21v18.8l2.09 1.21z" style="fill:#ba68c8"/><path d="M117.69 229.35v-18.8l-2.09-1.21v18.8l2.09 1.21z" style="fill:#fff;opacity:.1"/><path d="m117.69 229.35 6.06-3.5v-18.8l-6.06 3.5v18.8z" style="fill:#ba68c8"/><path d="m117.69 229.35 6.06-3.5v-18.8l-6.06 3.5v18.8z" style="fill:#fff;opacity:.30000000000000004"/><path d="m123.75 207.05-2.09-1.21-6.06 3.5 2.09 1.21 6.06-3.5z" style="fill:#ba68c8"/><path d="m123.75 207.05-2.09-1.21-6.06 3.5 2.09 1.21 6.06-3.5z" style="fill:#fff;opacity:.55"/><path d="m117.77 210.59 6-3.54-6.06 3.41c-.66-.38-2.09-1.12-2.09-1.12s1.33.85 2 1.25c0 .71 0 18 .08 18.76.03-.72.09-18.07.07-18.76Z" style="fill:#fff;opacity:.30000000000000004"/><path d="M106.32 235.91v-15.78l-2.09-1.21v15.79l2.09 1.2z" style="fill:#ba68c8"/><path d="M106.32 235.91v-15.78l-2.09-1.21v15.79l2.09 1.2z" style="opacity:.45"/><path d="m106.32 235.91 6.06-3.5v-15.78l-6.06 3.5v15.78z" style="fill:#ba68c8"/><path d="m106.32 235.91 6.06-3.5v-15.78l-6.06 3.5v15.78z" style="opacity:.30000000000000004"/><path d="m112.38 216.63-2.08-1.21-6.07 3.5 2.09 1.21 6.06-3.5z" style="fill:#ba68c8"/><path d="m112.38 216.63-2.08-1.21-6.07 3.5 2.09 1.21 6.06-3.5z" style="opacity:.15"/><path d="m112.38 216.63-6.06 3.37-2.09-1.12 2 1.31s0 15.25.08 15.68c.09-.43.09-15.67.09-15.67Z" style="fill:#fff;opacity:.30000000000000004"/><path d="M432.38 65.44a25.33 25.33 0 0 1-6.81 17.32l-2.09 2a25.31 25.31 0 0 1-35.76-35.59l2-2.1a25.31 25.31 0 0 1 42.67 18.38Z" style="fill:#fff"/><path d="M407 38a27.48 27.48 0 0 0-4.45 54.58l3.1 8a1.59 1.59 0 0 0 3 0l3.07-8A27.47 27.47 0 0 0 407 38Zm25.39 27.42a25.33 25.33 0 0 1-6.81 17.32l-2.09 2a25.31 25.31 0 0 1-35.76-35.59l2-2.1a25.31 25.31 0 0 1 42.67 18.38Z" style="fill:#e0e0e0"/><path d="M432.38 65.44a25.33 25.33 0 0 1-6.81 17.32l-2.09 2a25.31 25.31 0 0 1-35.76-35.59l2-2.1a25.31 25.31 0 0 1 42.67 18.38Z" style="fill:#fff;opacity:.7000000000000001"/><path d="M422 76.09a.47.47 0 0 0 0-.53l-2.09-2.65a2.12 2.12 0 0 1-.26-2.15 2.13 2.13 0 0 1 1.7-1.33l3.35-.43a.45.45 0 0 0 .39-.36 17.42 17.42 0 0 0 .27-3.12 18.53 18.53 0 0 0-.26-3.13.46.46 0 0 0-.38-.36l-3.35-.39a2.1 2.1 0 0 1-1.69-1.31v-.07a2.09 2.09 0 0 1 .27-2.13l2.1-2.64a.44.44 0 0 0 0-.53 17.4 17.4 0 0 0-4.4-4.41.45.45 0 0 0-.52 0l-2.64 2.09a2.16 2.16 0 0 1-2.16.27A2.14 2.14 0 0 1 411 51.2l-.37-3.36a.45.45 0 0 0-.36-.38 18.22 18.22 0 0 0-6.25 0 .47.47 0 0 0-.36.39l-.39 3.35a2.11 2.11 0 0 1-1.33 1.7 2.14 2.14 0 0 1-2.15-.27l-2.63-2.1a.47.47 0 0 0-.53 0 17.81 17.81 0 0 0-4.42 4.41.44.44 0 0 0 0 .52l2.09 2.65a2.12 2.12 0 0 1 .26 2.14.14.14 0 0 0 0 .06 2.12 2.12 0 0 1-1.7 1.31l-3.37.38a.43.43 0 0 0-.37.36 18 18 0 0 0 0 6.22.41.41 0 0 0 .38.36l3.36.4a2.16 2.16 0 0 1 1.7 1.34 2.07 2.07 0 0 1-.26 2.14l-2.1 2.65a.44.44 0 0 0 0 .52 17.48 17.48 0 0 0 4.41 4.42.44.44 0 0 0 .52 0l2.64-2.09a2.11 2.11 0 0 1 2.16-.25 2.12 2.12 0 0 1 1.32 1.7l.37 3.35a.44.44 0 0 0 .36.39 17.58 17.58 0 0 0 3.12.28 18.89 18.89 0 0 0 3.13-.26.48.48 0 0 0 .36-.39l.39-3.35a2.12 2.12 0 0 1 1.32-1.7h.05a2.12 2.12 0 0 1 2.15.26l2.5 2.12a.44.44 0 0 0 .52 0 18.11 18.11 0 0 0 4.48-4.38Zm-15-1.34a9.26 9.26 0 1 1 9.26-9.23 9.25 9.25 0 0 1-9.26 9.23Z" style="fill:#ba68c8"/><path d="M378.47 360.31c.4 11.51.68 22.71.5 29.46 0 .63 4.53 3.46 8.8 2.73s5.41-2.23 5.41-2.68c0-1.56 1.47-3.79 1.55-5.34a198.44 198.44 0 0 1 2.78-24.17ZM445.66 365.47l-19.53-1.64c2 9.73 4.2 19.83 5.76 26.65a38 38 0 0 0 1.76 6c.93 4.4 11.49 4.93 13.6-2.09l-.46-6c-.26-5.5-.79-14.67-1.13-22.92Z" style="fill:#ffbda7"/><path d="M357.68 411.44c-.26 0-.46 3 1.09 4.17 1.79 1.34 6.92 3.38 13.4 2.07s8.22-2.76 10.68-5.14 4.71-4.84 7.62-5.71c2.71-.8 6.82-2.2 7.64-3.11s.43-4.69.43-4.69Z" style="fill:#263238"/><path d="M394.87 382.83a1.17 1.17 0 0 1 1.17.82c.27 1 .71 4 1.26 5.72a43.17 43.17 0 0 1 1.21 11c-.23 2-5.83 3.57-8.61 4.87a27.12 27.12 0 0 0-7.66 5.64 20.17 20.17 0 0 1-11.78 5.28c-5 .33-10.85-.91-12.32-3.15-1.81-2.79-2.25-5.55 5-9.55 1.37-.76 5.56-3.63 7.18-4.82a32.67 32.67 0 0 0 4.92-4.33 25.46 25.46 0 0 0 1.78-2.11 6.28 6.28 0 0 0 .89-2.19c.34-1.41.05-2.89.18-4.34a.58.58 0 0 1 .43-.6 8.83 8.83 0 0 1 3.65-.45 14.94 14.94 0 0 1 3.75.57 3.06 3.06 0 0 1 1.77 1 2.75 2.75 0 0 1 .44 1.38 9.89 9.89 0 0 0 .14 1.44.87.87 0 0 0 .23.47c.27.24.66 0 .86-.21a18.82 18.82 0 0 0 1.85-2.57c.32-.46 1.89-.85 2.31-1.23a12.56 12.56 0 0 0 1.22-.92c.42-.55.15-1.12.13-1.72Z" style="fill:#37474f"/><path d="M382.24 410.85a39.13 39.13 0 0 1 3.28-2.92s-7.75 3.72-11.48 1.54c-2.4-1.4-1.44-3.38-1.43-4s-5.82-2.82-8.07-2.92c-.59.38-1.09.7-1.41.87-7.24 4-6.8 6.76-5 9.55 1.47 2.24 5.72 3.78 12.24 3.32a20.85 20.85 0 0 0 11.87-5.44Z" style="fill:#455a64"/><path d="M373.1 403.66c-4.52 2.19-2.48 2.92-1.16 3s7.62-4.15 12.13-8.27c4.7-4.3 8.75-8.77 10.49-10.35.66-.59 1.35-1.31 2-2-.2-1-.36-1.94-.49-2.42a1.65 1.65 0 0 0-1.28-1v1.87a3.62 3.62 0 0 1-1.31.79 6 6 0 0 0-2.22 1.36 18.82 18.82 0 0 1-1.85 2.57c-3.75 5.44-11.79 12.26-16.31 14.45Z" style="fill:#263238"/><path d="M372.22 406a.46.46 0 0 0 .29-.13.47.47 0 0 0 0-.65 11.1 11.1 0 0 0-8.77-2.76.46.46 0 0 0-.37.54.45.45 0 0 0 .54.37 10.27 10.27 0 0 1 7.92 2.48.46.46 0 0 0 .39.15ZM376.13 403.39a.5.5 0 0 0 .28-.12.46.46 0 0 0 0-.65 11.09 11.09 0 0 0-8.7-3 .45.45 0 0 0-.38.52.46.46 0 0 0 .52.39 10.32 10.32 0 0 1 7.87 2.66.49.49 0 0 0 .41.2ZM379.7 400.51a.44.44 0 0 0 .28-.12.46.46 0 0 0 0-.66 11.06 11.06 0 0 0-8.76-2.75.45.45 0 0 0-.37.53.46.46 0 0 0 .53.38 10.28 10.28 0 0 1 7.93 2.48.48.48 0 0 0 .39.14ZM382.85 397.92a.46.46 0 0 0 .29-.11.47.47 0 0 0 .05-.65 11.08 11.08 0 0 0-8.64-3.13.46.46 0 0 0-.4.52.46.46 0 0 0 .52.39 10.31 10.31 0 0 1 7.82 2.82.46.46 0 0 0 .36.16ZM386.22 394.89a.55.55 0 0 0 .29-.11.46.46 0 0 0 .05-.65c-1.88-2.23-6-3.6-9.44-3.11a.46.46 0 1 0 .13.91c3.08-.43 6.93.82 8.61 2.79a.44.44 0 0 0 .36.17Z" style="fill:#f0f0f0"/><path d="M433.77 420.43c.33 4.54 1.07 7.54 2.72 10.18s4.7 3.44 7.77 2.62 7-3 7.81-6.9.62-6.61-.14-10.81Z" style="fill:#263238"/><path d="M446.79 388.41c1.08.33 1.43 6.55 2.25 12.64.88 6.54 2.06 8.5 2.83 13.85.89 6.12.48 8.18-1.61 11.92s-9.66 7.47-13.48 2.22c-3.11-4.29-3.19-8.4-3-14.53a126.77 126.77 0 0 0-.25-14.58c-.31-4.59-2.74-8.92-1.65-9.45-.2.1.72 3.17.8 3.44a5.62 5.62 0 0 0 .69 1.68c.61.85.88-.55.87-1.08 0-.9-.32-1.62.37-2.39a5.3 5.3 0 0 1 1.89-1.11 12.19 12.19 0 0 1 2.3-.69 24.19 24.19 0 0 1 4.89-.34 2.34 2.34 0 0 1 1.89.76 1.3 1.3 0 0 1 .19.48c.13.6.07 1.22.21 1.82 0 .17.11.6.27.7s.42.05.43-.07.25-4.2.11-5.27Z" style="fill:#37474f"/><path d="M451.58 412.81c.14.88.83 6.39-.75 7.47s-2.73-3.42-2.73-3.42-4.06-1.19-9.92 1.47c.32.95-.55 4.09-2.17 3.45s-2.23-6.65-2.24-6.74c-.16 5.87 0 9.84 3 14 3.82 5.25 11.38 1.51 13.48-2.22s2.5-5.8 1.61-11.92c-.08-.61-.16-1.54-.28-2.09Z" style="fill:#455a64"/><path d="M447.65 417.26c.05 2.21 2 1.42 2.28-1.7.39-4.68-.83-9.12-.89-14.51-.82-6.09-1-12.55-2.25-12.64.06 1.06-.1 5.27-.1 5.27.46 4.57 1.73 9.89 1.61 14.6-.1 4.15-.71 6.72-.65 8.98ZM438.86 418.26c-.44-2.17-1.16-2.78-1.65-6.9s-2.87-11.48-3.8-15.94c-.26-1.38-1.51-4.89-1.52-4.94-.79.4 0 2.95.66 5.7s1.11 4.45 1.54 7.1c1.16 5.25 1.4 10.86 2.16 13.89s3.06 3.26 2.61 1.09Z" style="fill:#263238"/><path d="M438.36 418.38a.49.49 0 0 0 .17-.06 15 15 0 0 1 9.76-1.14.47.47 0 0 0 .23-.92 15.67 15.67 0 0 0-10.43 1.24.45.45 0 0 0-.19.63.46.46 0 0 0 .46.25ZM437 414a.42.42 0 0 0 .16 0c.05 0 5.65-2.7 11.39-1.45a.47.47 0 0 0 .55-.36.46.46 0 0 0-.36-.56 20.42 20.42 0 0 0-12 1.52.47.47 0 0 0-.21.63.46.46 0 0 0 .47.22ZM449.16 408.89a.47.47 0 0 0 .4-.32.48.48 0 0 0-.3-.6c-5.72-1.85-13.16.92-13.39 1a.47.47 0 0 0-.19.64.47.47 0 0 0 .63.18c.06 0 7.34-2.7 12.66-1a.41.41 0 0 0 .19.1ZM448.19 404.93a.48.48 0 0 0 .39-.31.47.47 0 0 0-.29-.6c-6.29-2.16-12.67 1.36-12.89 1.5a.47.47 0 0 0-.15.64.47.47 0 0 0 .65.15c.05 0 6.23-3.41 12.08-1.4a.5.5 0 0 0 .21.02Z" style="fill:#f0f0f0"/><path d="M447.74 400.09a.47.47 0 0 0 .1-.91c-5.89-2.11-12.73 1.49-13 1.64a.46.46 0 0 0-.17.64.47.47 0 0 0 .65.16c.05 0 6.69-3.51 12.16-1.55a.55.55 0 0 0 .26.02Z" style="fill:#ebebeb"/><path d="M405.89 287.1 401 316.45a92.1 92.1 0 0 1 1.06 17.25c-.42 8.47-4.22 33-6.07 42a18.74 18.74 0 0 1-18.39.44s-1.84-49.43-2.6-61.31 1-60.09 1.61-78.93l57.79.17s1.15 10.14 2.17 25.28 3.43 55.7 3.43 55.7c6.26 18 5.67 29.84 6.77 63.49a17.48 17.48 0 0 1-17.13 2s-9.1-33.06-12.61-46.46c-1.67-6.4-7.75-34.22-11.14-49" style="fill:#455a64"/><path d="m381.77 265.27-1.66 23.11c-.1 3.7-.92 11.78-1 15.47s-.18 7.38 0 11 1.94 33.58 1.64 41c-1.09-8.21-2.89-33.47-3.35-40.91-.18-7.47.67-15.93 1.66-26.65s1.78-15.68 2.71-23.02ZM416 261.32c2.9 12.12 7.66 43.45 8.74 51.83s9.07 41.43 9.89 49.88c-1.48-8.36-10.42-41.22-11.59-49.66s-5.2-36.71-7.04-52.05ZM400.94 264.15l4.95 23-4.89 29.3 2-24.55-5.37-25.1s-10.1-3-12.73-13.26c5.19 8.26 16.04 10.61 16.04 10.61Z" style="fill:#37474f"/><path d="M329.71 197.05c2.33 1.71 4.78 4.43 8.75 7.48s10 8.44 15.77 11.6 8.57 4.43 15.36-3.07c8.61-9.51 17-22.73 17-22.73l-1-26.86c-5.86 2-9.15 5.24-12.63 10.95-6.56 10.75-11 17.69-14.81 23.9 0 0-16.88-9.23-19.09-10.71a8.86 8.86 0 0 1-3.53-4.63 42.78 42.78 0 0 0-1.82-4.65c-.72-1.61-1-2.22-1.83-4.24s-1.52-5.46-1.79-6.21c-.5-.85-1.78-.74-2.81 1.4a8.3 8.3 0 0 0-.37 4.16c.09 1.25.51 2.76.14 3s-2.19-.65-4-1-3.42-1.11-5.39-.47a2.35 2.35 0 0 0-1.54 3.16 2.93 2.93 0 0 0 1.09 1.17 2.53 2.53 0 0 0-1.9.64 2.77 2.77 0 0 0 0 3.49 1.56 1.56 0 0 0-1.49 1.41c-.18 1.18 0 2.34 1.17 2.78 0 0-1 .25-1 .82a2.78 2.78 0 0 0 1 2.57 9.21 9.21 0 0 0 3.39.71s.18.42 1.32 1a28.19 28.19 0 0 0 3.8 1.92c1.5.47 4.35 1.04 6.21 2.41Z" style="fill:#ffbda7"/><path d="M358.13 198.32a13.07 13.07 0 0 1 5.87 8.48 10 10 0 0 0-5.18-9.67Z" style="fill:#f0997a"/><path d="M385.57 163.34a18.66 18.66 0 0 0-8.63 5.39c-2.41 2.57-6.64 9.81-9.17 13.84s-5.25 8.27-5.25 8.27.19 10.2 13.24 15.24L387 190.62Z" style="fill:#ba68c8"/><path d="M321.5 188.83a1 1 0 0 1-.22.87 7.27 7.27 0 0 1-.82.85 5.48 5.48 0 0 1-.44.4 2.3 2.3 0 0 1-.49.27l-1.15.45a5.31 5.31 0 0 0 1.25-.13 1.55 1.55 0 0 0 .62-.27 3.9 3.9 0 0 0 .51-.4 5.29 5.29 0 0 0 .81-1 1.37 1.37 0 0 0 .16-.66.81.81 0 0 0-.15-.4 6 6 0 0 0 .94-.38 3.2 3.2 0 0 0 1.29-.94 3 3 0 0 0 .25-.78 1.22 1.22 0 0 0 0-.27l.35-.53a6.89 6.89 0 0 0 1.75 2.78 8.18 8.18 0 0 0 3.4 2.11 7.16 7.16 0 0 1-3.62-8.79s.06 0 .08 0a1.07 1.07 0 0 0 .37-.47 1.52 1.52 0 0 0 0-1.11 3.36 3.36 0 0 0-.52-.9 5.82 5.82 0 0 0-3.43-1.86 3 3 0 0 0-.5-.7 5.61 5.61 0 0 0-.7-.59 5.43 5.43 0 0 1 .62.65 2.73 2.73 0 0 1 .44.75v.05h.05a6.07 6.07 0 0 1 3.2 1.93 1.65 1.65 0 0 1 .42 1.59c-.14.29-.25.37-.56.33s-.63-.09-.95-.13c-.67-.08-1.32-.07-2-.13a8 8 0 0 1-1.85-.44c-.6-.22-1.18-.5-1.77-.78a14.15 14.15 0 0 1-1.71-.93 15.9 15.9 0 0 0 3.37 2 6.66 6.66 0 0 0 1.92.52c.66.08 1.32.08 1.94.17l.38.06a1.2 1.2 0 0 1 .44.75 1.33 1.33 0 0 1-.63 1.31 8.11 8.11 0 0 1-1.4.84 4.62 4.62 0 0 1-1.54.4 11.18 11.18 0 0 1-3.14-.89c-1.06-.37-2.12-.73-3.2-1 1 .49 2.05.93 3.08 1.37.51.22 1 .42 1.57.62a4.79 4.79 0 0 0 1.7.37 4.65 4.65 0 0 0 1.06-.23 1.52 1.52 0 0 1 .88.54.72.72 0 0 1 .15.61 2 2 0 0 1-.26.65 3.25 3.25 0 0 1-1.18.76 3.05 3.05 0 0 1-1.35.39 5.62 5.62 0 0 1-1.41-.38 8.83 8.83 0 0 0-1.52-.28c-1-.12-2-.21-3-.23 1 .2 2 .37 3 .56a13.49 13.49 0 0 1 1.46.33 5.36 5.36 0 0 0 1.51.44 2.25 2.25 0 0 0 .54-.12Zm3.54-6.76Z" style="fill:#f0997a"/><path d="M416.23 160.25c9 2 11.66 2.84 15.91 3.81 0 0 8.8 8.14 3.62 37.29a124.3 124.3 0 0 0-1.39 21.5c.14 6.47.41 13.51.57 18 0 0-10 9.78-35.06 7.4-19.67-1.86-23.56-9-23.56-9s.66-27.1.66-42.1c0-23.95 3.2-29.45 8.54-33.7.7-.43 14-2.65 14-2.65Z" style="fill:#263238"/><path d="M397.18 112.27c9.58-2.28 16.41 1.39 20.46 6.35 4.05 0 6.39 3.18 7 7.16 2.16 13.39-8.53 20.56-10.11 27.17l-31.84-23.34c-.61-4.78 1.88-14.34 14.49-17.34Z" style="fill:#37474f"/><path d="m422.6 116.54-5.28 2.17a3 3 0 0 0 3.85 1.52 2.71 2.71 0 0 0 1.43-3.69Z" style="fill:#37474f"/><path d="m418 113.25-.73 5.55a3 3 0 0 0 3.28-2.5 2.74 2.74 0 0 0-2.55-3.05Z" style="fill:#37474f"/><path d="M417.38 118.3c-4.05-5-10.62-8.31-20.2-6-12.61 3-15.1 12.56-14.47 17.34l6.88 4.89 11.64-9.81c1.64-3.36 12.13-6.78 16.15-6.42Z" style="fill:#263238"/><path d="M401.23 124.69c1.21-1 3-1.54 5.44 0a7 7 0 0 1 2.52 3.11 16.21 16.21 0 0 1 1.1 5.13c.25 1.92 1.49 6.35 4.49 4.8.88-.46 1.32-1.42 2.08-2 2.4-1.82 5.9-1.41 7.25 1.33a7.21 7.21 0 0 1-2.55 9.33c-4.12 2.31-5.8 0-5.8 0l1.3 15.2c-2.53 4.91-9.26 8.62-16.06 8.34s-5.36-3.78-3.05-6.51l-.53-5.89a19.56 19.56 0 0 1-5.62-.35c-4.2-1-6.27-4.73-7.25-8.6-1.13-4.44-1.25-11.64-1.1-16.34a31 31 0 0 1 .44-3.86c3.11-4.73 14.11-8.8 17.34-3.69Z" style="fill:#ffbda7"/><path d="m395.82 133-1.16 11.09-5.57-2.03 6.73-9.06z" style="fill:#f0997a"/><path d="m400.56 145.23-5.73 2.21a3 3 0 0 0 3.94 1.8 3.14 3.14 0 0 0 1.79-4.01Z" style="fill:#b16668"/><path d="M398.77 149.24a2.54 2.54 0 0 1-.37.1 2.75 2.75 0 0 1 2.34-3.06 3.13 3.13 0 0 1-1.97 2.96Z" style="fill:#f28f8f"/><path d="M389.69 134a4.91 4.91 0 0 0-1.36-.38 3.71 3.71 0 0 0-1.37 0 4.32 4.32 0 0 0-1.37.48s-.06.12 0 .11c.37-.06.7-.14 1.24-.2h.43a1.89 1.89 0 0 0-.67 1c-.27 1 .41 1.23 1.35 1.48s1.78.39 2.06-.56a1.82 1.82 0 0 0-.17-1.4l.32.13c.18.08.55.24.58.27s.09-.1.06-.14a3 3 0 0 0-1.1-.79ZM404.1 134c.06 0 0-.09 0-.11a4.77 4.77 0 0 0-1.36-.52 3.71 3.71 0 0 0-1.37-.05 4.92 4.92 0 0 0-1.37.34 3.28 3.28 0 0 0-1.13.73s0 .18.06.15.4-.18.59-.25l.32-.12a1.84 1.84 0 0 0-.21 1.39c.25 1 1.09.84 2 .61s1.64-.47 1.4-1.43a1.86 1.86 0 0 0-.64-1h.43c.59.06.91.15 1.28.26ZM401 129.4l3.51 2a2 2 0 0 0-.79-2.76 2 2 0 0 0-2.72.76Z" style="fill:#263238"/><path d="M397.42 157.53a37.32 37.32 0 0 0 8.86-2c3.37-1.45 4.82-2.56 6.38-6.55a9.43 9.43 0 0 1-2.32 5.85c-3.85 3.9-12.73 4.64-12.73 4.64Z" style="fill:#f0997a"/><path d="M401.23 124.69c.46-1-.34-2.82-1.19-3.41a4.48 4.48 0 0 0-3.67-.29c-1.81.72-2.2 2.73-2.66 4.34a10.68 10.68 0 0 1-1.22 3.13 5.23 5.23 0 0 1-4.36 2.77 4.77 4.77 0 0 0 1.21-4.09c-1.5 1.77-4.34 4-6.69 4.51-1.63.34-2.46-.4-2.86-1.93-1.06-4 .5-9 3.19-12.12a13.14 13.14 0 0 1 1.17-1.19c5.61-5.06 14.94-7.64 22.68-7.39 4.35.14 10.77 3.19 10.55 9.28-4.03-.25-14.6 3.02-16.15 6.39Z" style="fill:#37474f"/><path d="m351.5 201.47 1.41-1.32a1.65 1.65 0 0 1 1.49-.22l43.32 10a5.82 5.82 0 0 1 3.67 3.17L414 245.42a1.51 1.51 0 0 1-.14 1.68l-1.45 1.35a1.63 1.63 0 0 1-1.5.23l-43.32-10a5.84 5.84 0 0 1-3.68-3.17l-12.64-32.27a1.43 1.43 0 0 1 .23-1.77Z" style="fill:#455a64"/><path d="M398 212.14a5.69 5.69 0 0 1 1.93 2.33l12.65 32.26a1.58 1.58 0 0 1-.09 1.64l1.36-1.26a1.49 1.49 0 0 0 .15-1.68l-12.65-32.28a5.57 5.57 0 0 0-1.78-2.2Z" style="fill:#263238"/><path d="M412.6 246.73 400 214.47a5.77 5.77 0 0 0-3.67-3.17l-43.32-10c-1.48-.34-2.23.53-1.67 1.94l12.64 32.27a5.84 5.84 0 0 0 3.68 3.17l43.32 10c1.43.32 2.17-.54 1.62-1.95Z" style="fill:#37474f"/><path d="m400.21 221.33-2.37-6a1.07 1.07 0 0 0-.69-.59l-3-.69c-.28-.06-.42.1-.31.37.46 1.18 1.9 4.85 2.37 6a1.09 1.09 0 0 0 .68.6l3 .68c.28.06.42-.11.32-.37Z" style="fill:#455a64"/><path d="M397.75 216.76a2.71 2.71 0 0 0-1.75-1.46c-.71-.16-1.08.22-.83.87a2.74 2.74 0 0 0 1.75 1.46c.71.16 1.08-.23.83-.87ZM398.91 219.81a2.73 2.73 0 0 0-1.75-1.46c-.71-.17-1.09.22-.84.86a2.73 2.73 0 0 0 1.75 1.46c.72.17 1.09-.22.84-.86Z" style="fill:#263238"/><path d="m407.06 227.69.68 1.73a42.68 42.68 0 0 1-7.5 1.22c-.85 0-4.06-1.51-6.68-2.19s-4.31.88-2.95 1.93a17.27 17.27 0 0 0 2.28 1.59c-1.1 1.1-1.86 2.12.35 4a2.94 2.94 0 0 0 .94 3.26 28.07 28.07 0 0 0 7.38 4.67c1.44.55 8.94.06 9.56-.28a46.31 46.31 0 0 0 5.7-4 42.68 42.68 0 0 1 7.57-4.2c2.29-.76 22.61-9.16 26.19-11s9.39-5.76 4.53-9.58-12.35-6.11-18.2-2.32c-4.26 2.75-15 8.7-19.79 11.54a6 6 0 0 1-4.34.89 31.82 31.82 0 0 0-6.75.11Z" style="fill:#ffa8a7"/><path d="M432.37 164.51c9.3 2.66 12.12 4.32 14 9.35 3.1 8.19 10.18 36.21 10.57 43.52.2 3.61-17.16 4.2-17.16 4.2l-2.89-9s-6-20.45-7.36-24.77c-1.53-4.92-3.3-18.57 2.84-23.3Z" style="fill:#ffa8a7"/><path d="M436.91 212.54c3.1-2 8.94-2.29 12.12-1-2.3-2.94-9.29-2.45-12.54-.33ZM392.89 232c1.06.61 2.09 1.26 3.11 1.92.52.33 1 .68 1.53 1a1.22 1.22 0 0 0 .7.31l.89.1c2.4.17 4.83.17 7.27.37-1.22.12-2.43.18-3.65.22s-2.44 0-3.67-.05c-.3 0-.61-.06-.93-.11a2.24 2.24 0 0 1-.51-.16 3.11 3.11 0 0 1-.42-.27c-.49-.36-1-.71-1.46-1.08-.97-.75-1.93-1.49-2.86-2.25ZM393.24 236c1 .69 2 1.36 3 2 .52.31 1 .64 1.56.93.26.15.53.31.78.44a3.38 3.38 0 0 0 .8.18c1.18.15 2.4.18 3.61.25s2.43.09 3.65.23a41.71 41.71 0 0 1-7.33.06 3.86 3.86 0 0 1-1-.25 8.85 8.85 0 0 1-.8-.47c-.52-.32-1-.65-1.53-1a24.29 24.29 0 0 1-2.74-2.37ZM396.15 240.81c.83.33 1.63.69 2.46 1a12.25 12.25 0 0 0 2.51.61 17.25 17.25 0 0 0 2.6.06 15 15 0 0 1 2.67.16l-2.64.3a10.6 10.6 0 0 1-2.7 0 11.41 11.41 0 0 1-4.9-2.13Z" style="fill:#f28f8f"/><path d="M432.14 164.06c7.8 2 9.2 3.06 11.77 5.2s3.61 5.74 5.45 12.44 5.23 20.3 5.23 20.3a16.12 16.12 0 0 1-9 4.62 22.81 22.81 0 0 1-10.9-.51s-5.45-17.16-6.41-20.26-3.15-17.75 3.86-21.79Z" style="fill:#ba68c8"/><path d="m242.09 432.73 8.09-14.35 14.61 9.44-19.44 21s-9.13-1.26-10.39-6.1 4.53-8.51 7.13-9.99Z" style="fill:#ffbda7"/><path d="M231.27 438a7.8 7.8 0 0 0-2.18 2.18c-.64.87-.65 5.22-1.31 7.21s-1.14 2.51-2.21 5c-1.19 2.75-3.28 5.22-1.37 12.52s5.34 10.88 8.28 12.77a7.85 7.85 0 0 0 3.6 1s4-1.32 3.52-3.68-8.33-37-8.33-37Z" style="fill:#263238"/><path d="M248.26 446.69a8.53 8.53 0 0 1-1.67 2.42 19.76 19.76 0 0 0-2.88 7.09c-2.83 11.28 1.44 17.27-4.88 21.28-1.82 1-5.49.57-10.78-6.86-2.7-3.79-4-11.41-2.73-14.77s2.89-5.53 3.72-8.12.68-7.51 2.23-9.7a10.47 10.47 0 0 1 3.69-2.9c1.12-.62 3.53-1.38 4.67-2s1.78-1.27 2.46-.44l-1.35 1.53c-2.12 2.68-1.58 3.1-1.6 4.58a23.09 23.09 0 0 1-.95 4.66c1.5-1.73 2.15-3.27 3.69-2.93s1.73.28 3.86 2.46 2.65 3.01 2.52 3.7Z" style="fill:#ba68c8"/><path d="M248.26 446.69a8.53 8.53 0 0 1-1.67 2.42 19.76 19.76 0 0 0-2.88 7.09c-2.83 11.28 1.44 17.27-4.88 21.28-1.82 1-5.49.57-10.78-6.86-2.7-3.79-4-11.41-2.73-14.77s2.89-5.53 3.72-8.12.68-7.51 2.23-9.7a10.47 10.47 0 0 1 3.69-2.9c1.12-.62 3.53-1.38 4.67-2s1.78-1.27 2.46-.44l-1.35 1.53c-2.12 2.68-1.58 3.1-1.6 4.58a23.09 23.09 0 0 1-.95 4.66c1.5-1.73 2.15-3.27 3.69-2.93s1.73.28 3.86 2.46 2.65 3.01 2.52 3.7Z" style="opacity:.4"/><path d="M228.05 470.62c-2.7-3.79-4-11.41-2.73-14.77a28.55 28.55 0 0 1 1.46-3.25c-.06.22-.14.46-.18.65-.09.44-.17.88-.23 1.33a10.27 10.27 0 0 0 .34 5.19c.58 1.45 1.91 5.08 3.83 5.24 1.08.09 2-.93 2.51-2.12.2-.51.56-1.88.56-1.88a17.1 17.1 0 0 1 4.89 2.25c2.7 2 2.58 2.37 2.58 2.37a7.13 7.13 0 0 0-.2 2.43 6 6 0 0 0 .93 2.48 3.8 3.8 0 0 0 .68.6 7.43 7.43 0 0 1-3.66 6.34c-1.83 1.04-5.49.57-10.78-6.86Z" style="opacity:.30000000000000004"/><path d="M243.71 456.2a38.42 38.42 0 0 0-1.11 9.07c-1.18 2.87-2.09 2.74-2.15 1.23s2.23-7.71 4-12.82c-.31.85-.54 1.7-.74 2.52ZM237.58 437.62a6.41 6.41 0 0 1 1.3-4.11l.75-.34c1.23-.63 1.78-1.27 2.46-.44l-1.35 1.53c-2.12 2.68-1.58 3.1-1.6 4.58a23.09 23.09 0 0 1-.95 4.66c-1.38 4.89-2.51 6.5-3.26 11.15s0 7.83-.63 8.06-2-.35-2.06-4.11 1.85-10 3.15-12.9 2.34-6.07 2.19-8.08Z" style="fill:#37474f"/><path d="M233.26 461.32a.43.43 0 0 0 .23.14 11.19 11.19 0 0 1 7.28 4.71.47.47 0 0 0 .65.08.46.46 0 0 0 .08-.65 12 12 0 0 0-7.78-5 .48.48 0 0 0-.57.34.46.46 0 0 0 .11.38ZM234 457.45a.43.43 0 0 0 .23.14 12.54 12.54 0 0 1 7.66 5.13.47.47 0 0 0 .67.08.48.48 0 0 0 .08-.67 13.45 13.45 0 0 0-8.15-5.46.48.48 0 0 0-.59.33.47.47 0 0 0 .1.45ZM234.13 453.16a.46.46 0 0 0 .25.15 14.23 14.23 0 0 1 8.55 5.76.55.55 0 0 0 .75.09.54.54 0 0 0 .09-.74 15.24 15.24 0 0 0-9.11-6.12.52.52 0 0 0-.65.36.53.53 0 0 0 .12.5ZM234.91 449.52a.46.46 0 0 0 .25.15 13.9 13.9 0 0 1 8.37 5.62.52.52 0 1 0 .81-.64 14.86 14.86 0 0 0-8.91-6 .5.5 0 0 0-.63.36.52.52 0 0 0 .11.51ZM236.41 446a.5.5 0 0 0 .25.15 13.9 13.9 0 0 1 8.37 5.62.51.51 0 0 0 .72.09.5.5 0 0 0 .09-.72 14.87 14.87 0 0 0-8.9-6 .51.51 0 0 0-.64.36.52.52 0 0 0 .11.5Z" style="fill:#ebebeb"/><path d="m246.08 434.08 9.36 8.37 5.34 3.68-6.79 11.58-17.29-9.23 9.38-14.4z" style="fill:#ffbda7"/><path d="M228.63 380.21s35.59-4.3 50.71-3.54c15.43.77 15.74 12.09 12.18 19.35-9.11 18.53-35 40.94-35 40.94s-8.46-4.33-10.78-11.92l6.45-13.19-19 5.14-2-2.73Z" style="fill:#455a64"/><path d="M255.8 400.54a134.39 134.39 0 0 0-8.36 12.61l4.78-1.3c5.87-12.42 7.13-16.06 15.88-21.62 0 0-6.19 2.03-12.3 10.31Z" style="fill:#37474f"/><path d="m228.63 380.21-54.92 7.59s-6.31 20.18-2.2 32.46 16.11 16.66 21.91 17.36c8.3 1 18.08-1.14 18.08-1.14a46.08 46.08 0 0 0 9.42 6.12c4.78 2.15 25.69 12 25.69 12s6.21-4.8 6.08-15.38l-21.48-25Z" style="fill:#455a64"/><path d="M246.61 454.61s1.18-.48 3-3.55c-5.45-1.54-23.28-9.44-29-12.18-10.23-4.88-13.25-9.69-13.25-9.69s-.2 3.1 4.2 7.29a46.08 46.08 0 0 0 9.42 6.12c4.72 2.15 25.63 12.01 25.63 12.01ZM200.44 434c-5.25.61-19.17-2.59-23.29-12.68-4-9.88-2-21.37-.59-31.26l-1.7.32-4.74.36c-.59 5.75-1.76 20.11 1.39 29.53 4.11 12.27 16.11 16.66 21.91 17.36 8.3 1 18.08-1.14 18.08-1.14l-2.58-4.4a35.46 35.46 0 0 1-8.48 1.91ZM233.51 416.94l-2.88-3.72c-1.95-2.5-5.08-7.23-13.65-7.28s-25.07.71-25.07.71 17.28-2.17 23.24-2.89 9.88.13 13.13 3.28 8.23 9.06 8.23 9.06Z" style="fill:#37474f"/><path d="M222.54 405.47a17.06 17.06 0 0 0 4.52-11.69s1.71 7.9-1.82 13.42Z" style="fill:#37474f"/><path d="M282.77 453.29c4.08 1.82 6.58 3.58 8.38 6.18s2.29 5.16.33 8.12-5.47 6.38-9.43 6-6.38-1.51-10-3.67Z" style="fill:#263238"/><path d="M249.4 455.34c-.11 1.25 5 4 10.37 6.8 5.72 3.05 7.08 4.93 11.75 7.49 5.33 2.92 7.4 3.16 11.68 2.18s9.77-6.82 6.38-12.55c-2.77-4.67-6.55-6.09-12.31-7.88a110.84 110.84 0 0 1-13.44-5c-4.14-1.82-7.48-4.91-8.39-3.93.59.32 4.87 3.23 4 3.93-.22.37-.85.22-1.91-.27A1.82 1.82 0 0 0 256 446a2.92 2.92 0 0 0-1.14 1.26 33.4 33.4 0 0 0-1.47 3.28c-.36.76-.2.32-.54 1.08a8.47 8.47 0 0 0-1 2.94c0 .49.38.65.74.9s.87.56 1.2.85c.14.11.37.48.28.66s-.89.12-1.2 0-.84-.3-1.22-.45-1.31-.69-2.25-1.18Z" style="fill:#ba68c8"/><path d="M249.4 455.34c-.11 1.25 5 4 10.37 6.8 5.72 3.05 7.08 4.93 11.75 7.49 5.33 2.92 7.4 3.16 11.68 2.18s9.77-6.82 6.38-12.55c-2.77-4.67-6.55-6.09-12.31-7.88a110.84 110.84 0 0 1-13.44-5c-4.14-1.82-7.48-4.91-8.39-3.93.59.32 4.87 3.23 4 3.93-.22.37-.85.22-1.91-.27A1.82 1.82 0 0 0 256 446a2.92 2.92 0 0 0-1.14 1.26 33.4 33.4 0 0 0-1.47 3.28c-.36.76-.2.32-.54 1.08a8.47 8.47 0 0 0-1 2.94c0 .49.38.65.74.9s.87.56 1.2.85c.14.11.37.48.28.66s-.89.12-1.2 0-.84-.3-1.22-.45-1.31-.69-2.25-1.18Z" style="opacity:.4"/><path d="M269.68 468.64c.77.43 5.62 2.95 7.23 1.64s-2.12-4-2.12-4-.44-3.76 4.31-9.05c.76.64 4 .75 4-1.17s-5.31-4.5-5.39-4.54c5.52 1.74 9.13 3.18 11.82 7.72 3.39 5.73-2.1 11.56-6.38 12.55s-6.35.74-11.68-2.18c-.47-.28-1.32-.67-1.79-.97Z" style="opacity:.30000000000000004"/><path d="M275.34 466c2 .78.54 2.6-2.46 1.85-4.49-1.11-8.14-3.84-13.11-5.66-5.34-2.84-10.79-5.51-10.37-6.87 1 .41 3 1.37 3 1.37.4.19 1.43.63 1.43.63 4.06 2 8.5 5 12.92 6.45 3.9 1.23 6.56 1.4 8.59 2.23ZM278.77 457.94c-1.84-1.18-2.13-2.12-5.76-4s-9.73-5.78-13.5-8.21a47.26 47.26 0 0 1-4.07-3.29c.67-.7 3 .07 5.3 1.67s3.69 2.6 6 3.92c4.43 2.94 9.53 5 12.06 6.8s1.81 4.29-.03 3.11Z" style="fill:#37474f"/><path d="M279.07 457.45a.64.64 0 0 1-.11.16 16.54 16.54 0 0 0-3.94 9 .54.54 0 0 1-.54.49.45.45 0 0 1-.4-.54 17.43 17.43 0 0 1 4.28-9.68.45.45 0 0 1 .67 0 .55.55 0 0 1 .04.57ZM275.53 454.61a.42.42 0 0 1-.11.15 22.69 22.69 0 0 0-4.85 10.61.55.55 0 0 1-.55.47.46.46 0 0 1-.38-.56 23.37 23.37 0 0 1 5.16-11.23.44.44 0 0 1 .67 0 .55.55 0 0 1 .06.56ZM267 464.82a.52.52 0 0 1-.45.31.44.44 0 0 1-.44-.51c.51-6.61 5-12.64 5.26-12.84a.43.43 0 0 1 .66 0 .56.56 0 0 1-.07.73c0 .05-4.44 5.93-4.9 12.09a.73.73 0 0 1-.06.22ZM263.69 462.51a.52.52 0 0 1-.44.31.44.44 0 0 1-.44-.5 19.57 19.57 0 0 1 5.48-12.17.44.44 0 0 1 .66.06.57.57 0 0 1-.11.73 18.71 18.71 0 0 0-5.09 11.34.46.46 0 0 1-.06.23Z" style="fill:#f0f0f0"/><path d="M259.38 460.46a.53.53 0 0 1-.43.31.45.45 0 0 1-.45-.5c.33-6.88 5.41-12 5.63-12.2a.44.44 0 0 1 .67 0 .57.57 0 0 1-.1.73c-.06.05-4.95 5-5.26 11.4a.46.46 0 0 1-.06.26Z" style="fill:#ebebeb"/><path d="M220.8 322.14c3.74 2.82 10.51 9.63 15 14.36 3.85 4 7.84 8.06 7.84 8.06 2-5.46 6.32-17.06 7.09-19.37 1.29-3.36 3.21-9.28 3.55-10 2.35-5.25 6.85-9 11.39-12.37l2.35-1.69a10.31 10.31 0 0 0 1.12-.85c.32-.29.61-.54 1.09-.25a1.64 1.64 0 0 1 .65 1 4.67 4.67 0 0 1-.73 3.73 22.42 22.42 0 0 1-2.51 3c-.67.75.47.85 1 .82 2.67-.15 6.16-2.58 8.33-4.06a33.49 33.49 0 0 1 4.23-3 5.3 5.3 0 0 1 3.11-.57c.72.12 1.34.47 1.11 1.35a3.8 3.8 0 0 1-.95 1.38 3.91 3.91 0 0 0-1.39 2.9 9.06 9.06 0 0 1 .09 2.32 26.11 26.11 0 0 1-1.25 2.69 21.77 21.77 0 0 0-.21 2.52 7.27 7.27 0 0 1-1.69 2.51 24.06 24.06 0 0 1-4.63 4.21 26 26 0 0 1-6.21 3.5c-1.59.68-4.15.57-5.32 3.22s-1.42 5.46-2.78 15.75c-1 7.64-.26 14.45-8.83 25.2-1.52 1.9-4.42 3.36-9.14-.44-3.62-2.93-5.15-4-7-5.49-2.57-2.1-18.84-16.11-18.84-16.11-7.85-10.19-9.08-17.84-8.94-27 .01-.06 7.56-1 12.47 2.68Z" style="fill:#ffbda7"/><path d="M268.24 314.41a2.88 2.88 0 0 0-1.82-.31 9.76 9.76 0 0 0-1.71.22 9 9 0 0 0-3.16 1.35 7 7 0 0 0-2.2 2.42 4.72 4.72 0 0 0-.53 1.44 4.52 4.52 0 0 0 .2 1.75c0 .1.17.2.21 0a4.27 4.27 0 0 1 .27-.67l.33-.78a8.33 8.33 0 0 1 .6-1.24 7 7 0 0 1 2.06-2.17 9 9 0 0 1 3-1.26 8.66 8.66 0 0 1 1.44-.24l1-.12c.19 0 .34 0 .41-.2a.19.19 0 0 0-.1-.19Z" style="fill:#f0997a"/><path d="M166.16 335.64a16.08 16.08 0 0 0 14.92-17.15l-2.78-40-2.65.19A13.4 13.4 0 0 0 163.2 293Z" style="fill:#263238"/><path d="M170.52 284.06a9.73 9.73 0 0 0-.28 2.08 5.38 5.38 0 0 0 .09 1.33 4.52 4.52 0 0 0 4.65 3.34 6.89 6.89 0 0 0 5.1-3.21c1.56-2.31 3.76-7.65.3-9.25a6.84 6.84 0 0 0-7 1.07 8.78 8.78 0 0 0-2.86 4.64Z" style="fill:#ba68c8"/><path d="M170.52 284.06a9.73 9.73 0 0 0-.28 2.08 5.38 5.38 0 0 0 .09 1.33 4.52 4.52 0 0 0 4.65 3.34 6.89 6.89 0 0 0 5.1-3.21c1.56-2.31 3.76-7.65.3-9.25a6.84 6.84 0 0 0-7 1.07 8.78 8.78 0 0 0-2.86 4.64Z" style="opacity:.25"/><path d="M171.51 357.79c1.29-18.85-.06-25.62 1.81-31.79a72.56 72.56 0 0 1 11.88-3.62c4.93-1 13.11-2.39 15.56-2.57 3.19-.23 7.58-.41 7.58-.41 4 3.88 14.1 13 17.55 20.81 2.31 5.25 2.19 13.38-2.56 18.07.09 5.6 0 13.31 0 13.31s2.23 3.93 5.35 8.58c-.89 9.28-11.43 18.66-27.94 23.14a44.22 44.22 0 0 1-31.55-3.25s1.04-23.6 2.32-42.27Z" style="fill:#ba68c8"/><path d="M210.41 360.42s-4.46 6-13.86 5.35c-9.7-.68-11.91-8.6-11.91-8.6s0 10.5 11.61 11.31a13.92 13.92 0 0 0 14.16-8.06Z" style="opacity:.2"/><path d="M201.11 410.14v1a3 3 0 0 0 1.46 2.55l28.05 16.14a3 3 0 0 0 1.48.39 2.93 2.93 0 0 0 1.46-.39L285 400.16a2.94 2.94 0 0 0 1.47-2.55v-.71l-54.37 31.4Z" style="fill:#ebebeb"/><path d="M286.49 396.9 256 379.28a1.76 1.76 0 0 0-1.75 0l-52.95 30.57a.39.39 0 0 0 0 .67l30.8 17.78Z" style="fill:#fafafa"/><path d="m231.81 425.71-16.45-9.49 48.12-27.78 16.54 9.44-48.21 27.83zM223.73 399.31l.3.18 8.07 4.65 14.34-8.28.3-.17-8.37-4.83-14.64 8.45z" style="fill:#e0e0e0"/><path d="m224.03 399.49 8.07 4.65 14.34-8.28-8.07-4.66-14.34 8.29z" style="fill:#e6e6e6"/><path d="M232.1 428.3v2a2.93 2.93 0 0 0 1.46-.39L285 400.16a2.94 2.94 0 0 0 1.47-2.55v-.71Z" style="fill:#ebebeb"/><g style="opacity:.5;mix-blend-mode:multiply"><path d="M232.1 428.3v2a2.93 2.93 0 0 0 1.46-.39L285 400.16a2.94 2.94 0 0 0 1.47-2.55v-.71Z" style="fill:#e0e0e0"/></g><path d="M232.93 428.73a3.45 3.45 0 0 0 3-.23l51.23-29.57a3.49 3.49 0 0 0 1.69-2.44l5.61-33.44a3.69 3.69 0 0 0 0-.58 3.46 3.46 0 0 0-1-2.47l-53.23 30.74a2.55 2.55 0 0 0-1.25 1.8Z" style="fill:#ba68c8"/><g style="opacity:.7000000000000001"><path d="M232.93 428.73a3.45 3.45 0 0 0 3-.23l51.23-29.57a3.49 3.49 0 0 0 1.69-2.44l5.61-33.44a3.69 3.69 0 0 0 0-.58 3.46 3.46 0 0 0-1-2.47l-53.23 30.74a2.55 2.55 0 0 0-1.25 1.8Z" style="fill:#fff"/></g><path d="m232.1 428.3.35.2a2.65 2.65 0 0 0 .48.23l6.07-36.19a2.55 2.55 0 0 1 1.25-1.8L293.47 360a3 3 0 0 0-.71-.54l-53.34 30.79a2.62 2.62 0 0 0-1.25 1.81Z" style="fill:#fafafa"/><path d="M261.78 397.86c.37-2.24 2.68-5.21 5.16-6.64s4.18-.78 3.8 1.46-2.68 5.22-5.16 6.65-4.18.77-3.8-1.47Z" style="fill:#ba68c8"/><path d="M157.63 374.73a368 368 0 0 1 5.56-36.9c1.12-5.72 2.34-9 10.13-11.78 7.72 4.61 7.38 20.39 6.66 24.28l-4.82 24.89a148.55 148.55 0 0 0 13.76 9.8 32.66 32.66 0 0 0 17.52 5.37c6.7.25 9.37-.19 12.95 1 1.91.65 6.26 2.16 7.76 2.77s4.27 3 6.79 4.55-.34 2.82-2.11 2.45a22.71 22.71 0 0 1-5.42-2.1 29.66 29.66 0 0 0-4.62-1.35 26.36 26.36 0 0 1 1.37 5.14c.09 1 .39 2.1-.38 2.86a7.06 7.06 0 0 1-1.93 1 1.43 1.43 0 0 1-.32.95 2.4 2.4 0 0 1-1.67.58 7.42 7.42 0 0 1-1-.07 1.78 1.78 0 0 1-1 1.47 7.74 7.74 0 0 1-4.06.47c-.2-.07-1.78-.76-2.25-1a3.84 3.84 0 0 1-1.57-.82c-.37-.47.46-1.69 1.23-1.88a8.24 8.24 0 0 1 2.61 0 8.64 8.64 0 0 1-.94-2.17c-.8-1.07-5.8.49-10.39.08-3.46-.32-6.2-3.36-7.79-3.93-10.2-3.63-18-6.12-28.38-11.31-9.46-4.7-8.32-7.24-7.69-14.35Z" style="fill:#ffbda7"/><path d="M222.7 398c-.63-1.25-1.56-2.72-2.58-3a12 12 0 0 1 1.67 2.77c.31.07.61.14.91.23ZM220.85 406.74a11.11 11.11 0 0 0-.14-2.82 26.06 26.06 0 0 0-.59-2.76 12.45 12.45 0 0 0-1-2.67 5.19 5.19 0 0 0-1.87-2.12 4.06 4.06 0 0 1 .86 1.08 8.35 8.35 0 0 1 .64 1.22 19.16 19.16 0 0 1 .83 2.63c.25.9.48 1.8.71 2.7a25.55 25.55 0 0 1 .56 2.74ZM217.88 408.2a12.8 12.8 0 0 0-.22-2.76 22.54 22.54 0 0 0-.64-2.7 18.58 18.58 0 0 0-1-2.61 5.24 5.24 0 0 0-1.6-2.25 3.41 3.41 0 0 1 .71 1.15q.28.62.51 1.26c.3.86.58 1.73.83 2.6.53 1.75 1.05 3.51 1.41 5.31ZM210.27 406.48a5.4 5.4 0 0 1 1.16.07c.37.06.65.23 1.13.34l-.22-.29a1.11 1.11 0 0 0 .12.54 1.36 1.36 0 0 0 .3.41 1.61 1.61 0 0 0 .82.44 3.54 3.54 0 0 1-.53-.67 3.19 3.19 0 0 1-.14-.35.78.78 0 0 1 0-.32v-.21l-.22-.07a3.27 3.27 0 0 0-1.1-.14 2.31 2.31 0 0 0-1.32.25Z" style="fill:#f0997a"/><path d="m210 299 1.28-.49c5.68-3.57 4.85-11.23 3.14-15.14-3.82-8.71-13.71-11.39-19.71-11.3-11.37.16-16.71 3.48-17.47 9.43-1.54 0-3.57 1.36-4.72 3.18-2.53 4-4.93 17.44 10.74 30.37Z" style="fill:#263238"/><path d="M180 310.63c-2 .44-3.38-.36-4.66-1.69-2.85-2.94-3.2-6-2-8.11 1-1.72 3.57-2.88 5.42-1.79s2.08 2.16 2.86 3.52 3.62 1.15 4.13-4.44c.48-5.21-.13-10.6 2.34-13 3.68-3.62 8.66-2.8 10.24-.78a5.14 5.14 0 0 1 6.95-2c2.58 1.28 4.53 4.05 5.88 13.85 1.16 8.5 1.12 14.53-1.31 17.85-1.76 2.4-5.38 2.87-9.14 3.15l.57 4.84a35.42 35.42 0 0 1 4 15.12s-1.72-.75-12.18-7.47a84.34 84.34 0 0 1-8.85-6.38l-1.79-13.78a4.51 4.51 0 0 1-2.46 1.11Z" style="fill:#ffbda7"/><path d="m208.2 291.21-3.84-1a1.9 1.9 0 0 1 2.34-1.46 2.07 2.07 0 0 1 1.5 2.46ZM208.38 295a1.59 1.59 0 1 1-1.73-1.43 1.59 1.59 0 0 1 1.73 1.43ZM197.17 296.9a1.59 1.59 0 1 1-1.73-1.43 1.59 1.59 0 0 1 1.73 1.43ZM195.19 291.75l-3.39 2.55a2 2 0 0 1 .35-2.93 2.22 2.22 0 0 1 3.04.38Z" style="fill:#263238"/><path d="M189 285.7c-.81 1.19-1.38 2.36-1 6.39.17 1.68.31 5.61-.65 8-.84 2.11-1.78 3.4-3.94 3.93a8 8 0 0 1-4-.12c-.79-.31-3.07-1.69-3-3.95a4.71 4.71 0 0 0 1.67 1 4.88 4.88 0 0 0 1.47.25 4.37 4.37 0 0 0 3.56-2.32c1.32-2.27 1-5.19 1.29-7.71.35-3.2.65-6.83 3.4-8.6 3.24-2.08 9.4-1.68 10.37 1.71a6.73 6.73 0 0 0-9.17 1.42Z" style="fill:#263238"/><path d="m197.15 306.29 5.68.88a2.88 2.88 0 0 1-3.55 2.34 2.7 2.7 0 0 1-2.13-3.22Z" style="fill:#b16668"/><path d="M200.86 309.42a3 3 0 0 0-3.42-2.16 1.66 1.66 0 1 0 1.84 2.25 3.21 3.21 0 0 0 1.58-.09ZM200.2 293.08l2.61 10.88 5.33-3.26-7.94-7.62zM200.69 317.21c-3.4.19-7.5.46-10.91-1.22-2.37-1.16-3.69-2.94-5.2-5.36a11.49 11.49 0 0 0 4.65 6.75c4.06 2.6 11.7 1.85 11.7 1.85Z" style="fill:#f0997a"/></svg>