<svg xmlns="http://www.w3.org/2000/svg" width="1260" height="863" fill="none"><path fill="url(#a)" fill-opacity=".06" d="M308.031 502.47h-92.579v96.765h92.579V502.47Z"/><path fill="url(#b)" fill-opacity=".06" d="M678.346 212.176h-92.579v96.765h92.579v-96.765Z"/><path fill="url(#c)" fill-opacity=".06" d="M585.767 792.762h-92.579v96.765h92.579v-96.765Z"/><path fill="url(#d)" fill-opacity=".06" d="M956.083 599.234h-92.579v96.764h92.579v-96.764Z"/><path fill="url(#e)" fill-opacity=".06" d="M678.347 502.47h-92.579v96.765h92.579V502.47Z"/><path stroke="url(#f)" stroke-opacity=".2" d="M30.293-174.881h-92.579v96.765m92.58-96.765v96.765m0-96.765h92.578M-62.286-78.116h92.58m-92.58 0v96.764m92.58-96.764h92.578m-92.579 0v96.764m92.579-193.529v96.765m0-96.765h92.579m-92.579 96.765h92.579m-92.579 0v96.764m-92.579 0h-92.579m92.58 0h92.578m-92.579 0v96.764m-92.579-96.764v96.764m277.737-290.293v96.765m0-96.765h92.579m-92.579 96.765h92.579m-92.579 0v96.764m-92.579 0h92.579m-92.579 0v96.764M308.03-174.881v96.765m0-96.765h92.579M308.03-78.116h92.579m-92.579 0v96.764m-92.579 0h92.579m-92.579 0v96.764m185.158-290.293v96.765m0-96.765h92.579m-92.579 96.765h92.579m-92.579 0v96.764m-92.579 0h92.579m-92.579 0v96.764m185.158-290.293v96.765m0-96.765h92.579m-92.579 96.765h92.579m-92.579 0v96.764m-92.579 0h92.579m-92.579 0v96.764m185.158-290.293v96.765m0-96.765h92.579m-92.579 96.765h92.579m-92.579 0v96.764m-92.579 0h92.579m-92.579 0v96.764m185.158-290.293v96.765m0-96.765h92.579m-92.579 96.765h92.579m-92.579 0v96.764m-92.579 0h92.579m-92.579 0v96.764m185.158-290.293v96.765m0-96.765h92.58m-92.58 96.765h92.58m-92.58 0v96.764m-92.579 0h92.579m-92.579 0v96.764m185.159-290.293v96.765m0-96.765h92.579m-92.579 96.765h92.579m-92.579 0v96.764m-92.58 0h92.58m-92.58 0v96.764m185.159-290.293v96.765m0-96.765h92.576m-92.576 96.765h92.576m-92.576 0v96.764m-92.579 0h92.579m-92.579 0v96.764m185.155-290.293v96.765m0-96.765h92.58m-92.58 96.765h92.58m-92.58 0v96.764m-92.576 0h92.576m-92.576 0v96.764m185.156-290.293v96.765m0-96.765h92.58m-92.58 96.765h92.58m-92.58 0v96.764m-92.58 0h92.58m-92.58 0v96.764m185.16-290.293v96.765m0-96.765h92.58v96.765m-92.58 0h92.58m-92.58 0v96.764m-92.58 0h92.58m-92.58 0v96.764M1326.4-78.116v96.764m-92.58 0h92.58m-92.58 0v96.764m92.58-96.764v96.764m-1296.107 0h-92.579m92.58 0h92.578m-92.579 0v96.764m-92.579-96.764v96.764m185.158-96.764h92.579m-92.579 0v96.764m92.579-96.764h92.579m-92.579 0v96.764m92.579-96.764h92.579m-92.579 0v96.764m92.579-96.764h92.579m-92.579 0v96.764m92.579-96.764h92.579m-92.579 0v96.764m92.579-96.764h92.579m-92.579 0v96.764m92.579-96.764h92.579m-92.579 0v96.764m92.579-96.764h92.58m-92.58 0v96.764m92.58-96.764h92.579m-92.579 0v96.764m92.579-96.764h92.576m-92.576 0v96.764m92.576-96.764h92.58m-92.58 0v96.764m92.58-96.764h92.58m-92.58 0v96.764m92.58-96.764h92.58m-92.58 0v96.764m92.58-96.764v96.764m-1296.107 0h-92.579m92.58 0h92.578m-92.579 0v96.765m-92.579-96.765v96.765m185.158-96.765h92.579m-92.579 0v96.765m92.579-96.765h92.579m-92.579 0v96.765m92.579-96.765h92.579m-92.579 0v96.765m92.579-96.765h92.579m-92.579 0v96.765m92.579-96.765h92.579m-92.579 0v96.765m92.579-96.765h92.579m-92.579 0v96.765m92.579-96.765h92.579m-92.579 0v96.765m92.579-96.765h92.58m-92.58 0v96.765m92.58-96.765h92.579m-92.579 0v96.765m92.579-96.765h92.576m-92.576 0v96.765m92.576-96.765h92.58m-92.58 0v96.765m92.58-96.765h92.58m-92.58 0v96.765m92.58-96.765h92.58m-92.58 0v96.765m92.58-96.765v96.765m-1296.107 0h-92.579m92.58 0h92.578m-92.579 0v96.765m-92.579-96.765v96.765m185.158-96.765h92.579m-92.579 0v96.765m92.579-96.765h92.579m-92.579 0v96.765m92.579-96.765h92.579m-92.579 0v96.765m92.579-96.765h92.579m-92.579 0v96.765m92.579-96.765h92.579m-92.579 0v96.765m92.579-96.765h92.579m-92.579 0v96.765m92.579-96.765h92.579m-92.579 0v96.765m92.579-96.765h92.58m-92.58 0v96.765m92.58-96.765h92.579m-92.579 0v96.765m92.579-96.765h92.576m-92.576 0v96.765m92.576-96.765h92.58m-92.58 0v96.765m92.58-96.765h92.58m-92.58 0v96.765m92.58-96.765h92.58m-92.58 0v96.765m92.58-96.765v96.765m-1296.107 0h-92.579m92.58 0h92.578m-92.579 0v96.763m-92.579-96.763v96.763m185.158-96.763h92.579m-92.579 0v96.763m92.579-96.763h92.579m-92.579 0v96.763m92.579-96.763h92.579m-92.579 0v96.763m92.579-96.763h92.579m-92.579 0v96.763m92.579-96.763h92.579m-92.579 0v96.763m92.579-96.763h92.579m-92.579 0v96.763m92.579-96.763h92.579m-92.579 0v96.763m92.579-96.763h92.58m-92.58 0v96.763m92.58-96.763h92.579m-92.579 0v96.763m92.579-96.763h92.576m-92.576 0v96.763m92.576-96.763h92.58m-92.58 0v96.763m92.58-96.763h92.58m-92.58 0v96.763m92.58-96.763h92.58m-92.58 0v96.763m92.58-96.763v96.763m-1296.107 0h-92.579m92.58 0h92.578m-92.579 0v96.765m-92.579-96.765v96.765m185.158-96.765h92.579m-92.579 0v96.765m92.579-96.765h92.579m-92.579 0v96.765m92.579-96.765h92.579m-92.579 0v96.765m92.579-96.765h92.579m-92.579 0v96.765m92.579-96.765h92.579m-92.579 0v96.765m92.579-96.765h92.579m-92.579 0v96.765m92.579-96.765h92.579m-92.579 0v96.765m92.579-96.765h92.58m-92.58 0v96.765m92.58-96.765h92.579m-92.579 0v96.765m92.579-96.765h92.576m-92.576 0v96.765m92.576-96.765h92.58m-92.58 0v96.765m92.58-96.765h92.58m-92.58 0v96.765m92.58-96.765h92.58m-92.58 0v96.765m92.58-96.765v96.765m-1296.107 0h-92.579m92.58 0h92.578m-92.579 0v96.764m-92.579-96.764v96.764m185.158-96.764h92.579m-92.579 0v96.764m92.579-96.764h92.579m-92.579 0v96.764m92.579-96.764h92.579m-92.579 0v96.764m92.579-96.764h92.579m-92.579 0v96.764m92.579-96.764h92.579m-92.579 0v96.764m92.579-96.764h92.579m-92.579 0v96.764m92.579-96.764h92.579m-92.579 0v96.764m92.579-96.764h92.58m-92.58 0v96.764m92.58-96.764h92.579m-92.579 0v96.764m92.579-96.764h92.576m-92.576 0v96.764m92.576-96.764h92.58m-92.58 0v96.764m92.58-96.764h92.58m-92.58 0v96.764m92.58-96.764h92.58m-92.58 0v96.764m92.58-96.764v96.764m-1296.107 0h-92.579m92.58 0h92.578m-92.579 0v96.765m-92.579-96.765v96.765m185.158-96.765h92.579m-92.579 0v96.765m92.579-96.765h92.579m-92.579 0v96.765m92.579-96.765h92.579m-92.579 0v96.765m92.579-96.765h92.579m-92.579 0v96.765m92.579-96.765h92.579m-92.579 0v96.765m92.579-96.765h92.579m-92.579 0v96.765m92.579-96.765h92.579m-92.579 0v96.765m92.579-96.765h92.58m-92.58 0v96.765m92.58-96.765h92.579m-92.579 0v96.765m92.579-96.765h92.576m-92.576 0v96.765m92.576-96.765h92.58m-92.58 0v96.765m92.58-96.765h92.58m-92.58 0v96.765m92.58-96.765h92.58m-92.58 0v96.765m92.58-96.765v96.765m-1296.107 0h-92.579m92.58 0h92.578m-92.579 0v96.765m-92.579-96.765v96.765m185.158-96.765h92.579m-92.579 0v96.765m92.579-96.765h92.579m-92.579 0v96.765m92.579-96.765h92.579m-92.579 0v96.765m92.579-96.765h92.579m-92.579 0v96.765m92.579-96.765h92.579m-92.579 0v96.765m92.579-96.765h92.579m-92.579 0v96.765m92.579-96.765h92.579m-92.579 0v96.765m92.579-96.765h92.58m-92.58 0v96.765m92.58-96.765h92.579m-92.579 0v96.765m92.579-96.765h92.576m-92.576 0v96.765m92.576-96.765h92.58m-92.58 0v96.765m92.58-96.765h92.58m-92.58 0v96.765m92.58-96.765h92.58m-92.58 0v96.765m92.58-96.765v96.765m-1296.107 0h-92.579m92.58 0h92.578m-92.579 0v96.763m-92.579-96.763v96.763m185.158-96.763h92.579m-92.579 0v96.763m92.579-96.763h92.579m-92.579 0v96.763m92.579-96.763h92.579m-92.579 0v96.763m92.579-96.763h92.579m-92.579 0v96.763m92.579-96.763h92.579m-92.579 0v96.763m92.579-96.763h92.579m-92.579 0v96.763m92.579-96.763h92.579m-92.579 0v96.763m92.579-96.763h92.58m-92.58 0v96.763m92.58-96.763h92.579m-92.579 0v96.763m92.579-96.763h92.576m-92.576 0v96.763m92.576-96.763h92.58m-92.58 0v96.763m92.58-96.763h92.58m-92.58 0v96.763m92.58-96.763h92.58m-92.58 0v96.763m92.58-96.763v96.763m-1296.107 0h-92.579m92.58 0h92.578m-92.579 0v96.769m-92.579-96.769v96.769m185.158-96.769h92.579m-92.579 0v96.769m92.579-96.769h92.579m-92.579 0v96.769m92.579-96.769h92.579m-92.579 0v96.769m92.579-96.769h92.579m-92.579 0v96.769m92.579-96.769h92.579m-92.579 0v96.769m92.579-96.769h92.579m-92.579 0v96.769m92.579-96.769h92.579m-92.579 0v96.769m92.579-96.769h92.58m-92.58 0v96.769m92.58-96.769h92.579m-92.579 0v96.769m92.579-96.769h92.576m-92.576 0v96.769m92.576-96.769h92.58m-92.58 0v96.769m92.58-96.769h92.58m-92.58 0v96.769m92.58-96.769h92.58m-92.58 0v96.769m92.58-96.769v96.769m-1296.107 0h-92.579m92.58 0h92.578m-92.579 0v96.76m-92.579-96.76v96.76m185.158-96.76h92.579m-92.579 0v96.76m92.579-96.76h92.579m-92.579 0v96.76m92.579-96.76h92.579m-92.579 0v96.76m92.579-96.76h92.579m-92.579 0v96.76m92.579-96.76h92.579m-92.579 0v96.76m92.579-96.76h92.579m-92.579 0v96.76m92.579-96.76h92.579m-92.579 0v96.76m92.579-96.76h92.58m-92.58 0v96.76m92.58-96.76h92.579m-92.579 0v96.76m92.579-96.76h92.576m-92.576 0v96.76m92.576-96.76h92.58m-92.58 0v96.76m92.58-96.76h92.58m-92.58 0v96.76m92.58-96.76h92.58m-92.58 0v96.76m92.58-96.76v96.76m-1296.107 0h-92.579m92.58 0h92.578m-92.579 0v96.76m-92.579-96.76v96.76h92.58m92.578-96.76h92.579m-92.579 0v96.76m92.579-96.76h92.579m-92.579 0v96.76m92.579-96.76h92.579m-92.579 0v96.76m92.579-96.76h92.579m-92.579 0v96.76m92.579-96.76h92.579m-92.579 0v96.76m92.579-96.76h92.579m-92.579 0v96.76m92.579-96.76h92.579m-92.579 0v96.76m92.579-96.76h92.58m-92.58 0v96.76m92.58-96.76h92.579m-92.579 0v96.76m92.579-96.76h92.576m-92.576 0v96.76m92.576-96.76h92.58m-92.58 0v96.76m92.58-96.76h92.58m-92.58 0v96.76m92.58-96.76h92.58m-92.58 0v96.76m92.58-96.76v96.76h-92.58m-1203.527 0h92.579m0 0h92.579m0 0h92.579m0 0h92.579m0 0h92.579m0 0h92.579m0 0h92.579m0 0h92.579m0 0h92.58m0 0h92.579m0 0h92.576m0 0h92.58m0 0h92.58"/><defs><radialGradient id="a" cx="0" cy="0" r="1" gradientTransform="matrix(-.8104 68.58171 -119.0157 -1.40634 263.361 601.534)" gradientUnits="userSpaceOnUse"><stop stop-color="#fff" stop-opacity=".8"/><stop offset="1" stop-color="#05041F"/></radialGradient><radialGradient id="b" cx="0" cy="0" r="1" gradientTransform="matrix(0 72.8153 -126.361 0 632.686 310.266)" gradientUnits="userSpaceOnUse"><stop stop-color="#fff" stop-opacity=".8"/><stop offset="1" stop-color="#05041F"/></radialGradient><radialGradient id="c" cx="0" cy="0" r="1" gradientTransform="rotate(91.981 -158.975 704.483) scale(70.317 122.039)" gradientUnits="userSpaceOnUse"><stop stop-color="#fff" stop-opacity=".8"/><stop offset="1" stop-color="#05041F"/></radialGradient><radialGradient id="d" cx="0" cy="0" r="1" gradientTransform="matrix(-.81015 68.58182 -119.0157 -1.40593 912.224 697.208)" gradientUnits="userSpaceOnUse"><stop stop-color="#fff" stop-opacity=".8"/><stop offset="1" stop-color="#05041F"/></radialGradient><radialGradient id="e" cx="0" cy="0" r="1" gradientTransform="matrix(0 74.5086 -129.299 0 632.751 599.839)" gradientUnits="userSpaceOnUse"><stop stop-color="#fff" stop-opacity=".8"/><stop offset="1" stop-color="#05041F"/></radialGradient><radialGradient id="f" cx="0" cy="0" r="1" gradientTransform="matrix(0 513.94 -491.711 0 632.832 551.457)" gradientUnits="userSpaceOnUse"><stop stop-color="#fff"/><stop offset="1" stop-color="#fff" stop-opacity="0"/></radialGradient></defs></svg>