<svg xmlns="http://www.w3.org/2000/svg" width="19" height="18" fill="none"><path fill="#fff" d="M9.934 0a9 9 0 1 0 0 18 9 9 0 0 0 0-18Zm2.372 16.337h-.07a.385.385 0 0 1-.286-.105.385.385 0 0 1-.105-.279V14.9c.005-.35.008-.705.008-1.062a2.768 2.768 0 0 0-.114-.771 1.373 1.373 0 0 0-.406-.657 6.011 6.011 0 0 0 1.528-.353 3.04 3.04 0 0 0 1.1-.723c.305-.32.532-.707.664-1.13a5.08 5.08 0 0 0 .225-1.597 3.105 3.105 0 0 0-.195-1.107 2.918 2.918 0 0 0-.597-.963c.056-.14.097-.287.122-.436.025-.15.037-.302.037-.453 0-.195-.022-.39-.067-.58a3.98 3.98 0 0 0-.166-.572.22.22 0 0 0-.083-.015h-.083c-.172.001-.342.03-.505.083a4 4 0 0 0-.527.195 4.88 4.88 0 0 0-.496.257 8.655 8.655 0 0 0-.43.272 7.184 7.184 0 0 0-3.857 0c-.14-.094-.284-.185-.43-.272a4.518 4.518 0 0 0-.503-.256 3.387 3.387 0 0 0-.529-.196 1.652 1.652 0 0 0-.496-.083h-.083a.218.218 0 0 0-.082.015c-.07.186-.129.378-.173.572-.04.19-.06.385-.06.58 0 .151.012.303.038.453.024.149.064.295.12.436-.26.28-.461.607-.594.964-.133.354-.2.73-.198 1.107-.01.538.064 1.075.22 1.59.135.422.362.81.662 1.137.312.316.687.563 1.1.723.49.188 1.003.307 1.525.357a1.37 1.37 0 0 0-.34.475 2.242 2.242 0 0 0-.15.558c-.275.132-.576.2-.88.202a1.341 1.341 0 0 1-.8-.225 2.178 2.178 0 0 1-.563-.618 2.312 2.312 0 0 0-.22-.286 2.015 2.015 0 0 0-.278-.258 1.382 1.382 0 0 0-.324-.18.898.898 0 0 0-.361-.075.91.91 0 0 0-.09.007.493.493 0 0 0-.122.015.306.306 0 0 0-.097.045.087.087 0 0 0-.045.075.248.248 0 0 0 .105.182c.07.055.127.098.174.128l.022.016c.1.077.196.16.287.25.084.073.16.156.225.247.067.09.126.184.173.286.055.1.113.216.173.347.141.355.392.656.716.859.34.182.72.273 1.107.263.13 0 .262-.008.391-.023.13-.02.258-.042.387-.068v1.308a.375.375 0 0 1-.4.39h-.047a7.714 7.714 0 1 1 4.743 0v.003Z"/></svg>