<svg xmlns="http://www.w3.org/2000/svg" width="130" height="15" fill="none"><path fill="#fff" fill-rule="evenodd" d="M30.85 10.714c.364-.927.547-2.004.547-3.227 0-1.224-.185-2.3-.558-3.227-.371-.928-.881-1.709-1.528-2.341A6.3 6.3 0 0 0 27.038.496 8.016 8.016 0 0 0 24.27.02c-.951 0-1.857.158-2.717.475a6.412 6.412 0 0 0-2.273 1.423c-.655.632-1.175 1.413-1.56 2.34-.386.928-.579 2.004-.579 3.228 0 1.223.186 2.3.558 3.227.372.928.881 1.705 1.53 2.33a6.354 6.354 0 0 0 2.272 1.413c.868.317 1.79.475 2.768.475a8.223 8.223 0 0 0 2.82-.475 6.143 6.143 0 0 0 2.263-1.413c.633-.625 1.133-1.402 1.498-2.33Zm-10.124-1.33a6.483 6.483 0 0 1-.258-1.897c0-.687.086-1.316.258-1.887.172-.57.42-1.059.744-1.464.323-.406.72-.722 1.188-.949.468-.227 1.005-.34 1.611-.34.593 0 1.126.11 1.602.33.475.22.874.533 1.198.938.323.406.572.894.744 1.464.172.57.258 1.207.258 1.908 0 .7-.086 1.333-.258 1.897a4.333 4.333 0 0 1-.744 1.454 3.261 3.261 0 0 1-1.198.938c-.476.22-1.01.33-1.601.33-.607 0-1.144-.11-1.612-.33a3.276 3.276 0 0 1-1.188-.938 4.323 4.323 0 0 1-.744-1.454Z" clip-rule="evenodd"/><path fill="#fff" d="M39.502 12.189c.454 0 .83-.037 1.126-.114.296-.075.534-.178.713-.31.178-.13.303-.284.372-.463a1.65 1.65 0 0 0 .103-.598c0-.467-.22-.856-.661-1.165-.441-.31-1.199-.643-2.273-1a17.016 17.016 0 0 1-1.405-.567 5.163 5.163 0 0 1-1.26-.805 3.847 3.847 0 0 1-.909-1.176c-.234-.46-.351-1.02-.351-1.68 0-.66.124-1.255.371-1.784.249-.53.6-.98 1.054-1.35.455-.372 1.006-.657 1.653-.857.647-.199 1.377-.299 2.19-.299.964 0 1.798.104 2.5.31.702.206 1.281.433 1.736.68l-.93 2.537a8.877 8.877 0 0 0-1.333-.547c-.489-.157-1.078-.237-1.766-.237-.772 0-1.326.107-1.663.32-.338.213-.507.54-.507.98 0 .26.062.481.186.66.124.178.3.34.527.484.227.144.49.275.786.392.295.117.622.237.981.36.743.276 1.39.547 1.942.815.55.269 1.009.582 1.374.939.365.357.637.777.816 1.258.179.481.268 1.066.268 1.752 0 1.334-.468 2.369-1.405 3.104-.936.736-2.348 1.104-4.235 1.104-.634 0-1.205-.038-1.715-.114-.51-.076-.96-.168-1.353-.278a7.808 7.808 0 0 1-1.013-.35 7.684 7.684 0 0 1-.712-.352l.909-2.556c.426.234.953.443 1.58.628.627.186 1.395.279 2.304.279ZM59.342.352v2.743h-4.318v11.548H51.8V3.095h-4.319V.352h11.86ZM62.922 14.643h3.224V.352h-3.224v14.291ZM80.573 14.643a71.935 71.935 0 0 0-2.995-4.847 49.56 49.56 0 0 0-3.43-4.516v9.363h-3.182V.352h2.624c.454.453.957 1.01 1.508 1.67.55.66 1.111 1.365 1.684 2.114.571.749 1.14 1.526 1.704 2.33.565.804 1.095 1.577 1.591 2.32V.352h3.203v14.29h-2.707ZM95.083 2.827c-1.5 0-2.586.415-3.254 1.247-.669.832-1.002 1.97-1.002 3.413 0 .7.082 1.337.247 1.908.166.57.414 1.061.744 1.474.33.412.744.732 1.24.96.496.226 1.074.34 1.735.34.358 0 .665-.008.92-.021.255-.014.478-.041.671-.083v-4.97h3.224v7.074c-.386.151-1.005.313-1.86.484-.854.172-1.907.258-3.16.258-1.075 0-2.05-.165-2.924-.495a6.105 6.105 0 0 1-2.242-1.444c-.62-.632-1.098-1.409-1.436-2.33-.338-.92-.506-1.972-.506-3.155 0-1.196.186-2.255.558-3.176.372-.92.88-1.702 1.529-2.34A6.438 6.438 0 0 1 91.85.516 7.858 7.858 0 0 1 94.648.02a11.367 11.367 0 0 1 3.234.444 6.46 6.46 0 0 1 1.518.65l-.93 2.577a8.452 8.452 0 0 0-1.517-.608 6.47 6.47 0 0 0-1.87-.257ZM104.117 14.643V.352h9.669v2.701h-6.445v2.804h5.723v2.64h-5.723v3.444h6.921v2.702h-10.145Z"/><path fill="#fff" fill-rule="evenodd" d="M127.284 1.33c-1.143-.763-2.789-1.144-4.938-1.144-.592 0-1.264.027-2.014.083-.75.054-1.478.151-2.179.288v14.086h3.222V9.424h1.591c.277.331.553.699.83 1.105a35.268 35.268 0 0 1 1.67 2.69c.268.482.535.956.798 1.424h3.602a37.036 37.036 0 0 0-.805-1.599 27.512 27.512 0 0 0-.899-1.567 35.043 35.043 0 0 0-.94-1.444c-.317-.46-.619-.869-.909-1.227.869-.357 1.533-.849 1.994-1.474.462-.625.692-1.44.692-2.444 0-1.609-.572-2.794-1.715-3.557Zm-5.382 1.62c.186-.014.396-.021.63-.021 1.033 0 1.815.148 2.345.443.531.296.796.794.796 1.495 0 .73-.261 1.245-.785 1.547-.524.303-1.391.454-2.603.454h-.91V2.99l.527-.042Z" clip-rule="evenodd"/><path fill="#fff" d="M9.593.467h3.242v14.241H9.593V8.667H4.147v6.041H.905V.468h3.242v5.445h5.446V.467Z"/></svg>