<svg xmlns="http://www.w3.org/2000/svg" width="16" height="16" fill="none"><path fill="#fff" d="M7.934 5.71a2.291 2.291 0 1 0 0 4.581 2.291 2.291 0 0 0 0-4.582Zm0-1.529a3.82 3.82 0 1 1 0 7.64 3.82 3.82 0 1 1 0-7.64Zm4.965-.19a.954.954 0 1 1-1.91 0 .955.955 0 1 1 1.91 0Zm-4.965-2.1c-1.89 0-2.198.003-3.077.042-.6.03-1.001.11-1.374.254-.331.128-.57.282-.825.537-.24.231-.423.513-.538.825-.145.374-.225.775-.253 1.374-.04.843-.044 1.138-.044 3.077 0 1.89.005 2.2.044 3.078.029.598.109 1 .253 1.373.13.332.283.571.537.825.257.256.496.41.825.537.377.146.779.227 1.375.254.843.04 1.138.044 3.077.044 1.89 0 2.199-.005 3.078-.044.597-.028 1-.108 1.373-.253.33-.129.57-.282.825-.536.257-.258.41-.497.537-.825.146-.377.227-.78.254-1.375.04-.843.044-1.138.044-3.078 0-1.89-.005-2.198-.044-3.077-.028-.598-.108-1-.254-1.374a2.223 2.223 0 0 0-.537-.825 2.203 2.203 0 0 0-.825-.538c-.374-.145-.776-.225-1.373-.253-.843-.04-1.138-.043-3.078-.043Zm0-1.53c2.076 0 2.335.008 3.149.046.814.038 1.367.166 1.855.355.504.194.929.457 1.353.881.389.382.69.844.88 1.354.19.486.318 1.04.356 1.854.036.815.046 1.074.046 3.15 0 2.075-.008 2.334-.046 3.148-.038.814-.166 1.367-.355 1.855-.191.51-.492.972-.88 1.353a3.756 3.756 0 0 1-1.354.881c-.487.19-1.042.317-1.855.355-.814.036-1.073.046-3.15.046-2.074 0-2.333-.008-3.148-.046-.813-.038-1.367-.166-1.854-.355a3.735 3.735 0 0 1-1.354-.88 3.746 3.746 0 0 1-.88-1.354c-.19-.487-.318-1.042-.356-1.855C.305 10.335.295 10.076.295 8c0-2.075.008-2.334.046-3.149.038-.814.166-1.367.355-1.854.192-.51.492-.972.88-1.354a3.74 3.74 0 0 1 1.355-.88C3.418.573 3.97.445 4.785.407 5.6.371 5.859.361 7.935.361h-.001Z"/></svg>