<svg xmlns="http://www.w3.org/2000/svg" width="19" height="18" fill="none"><path fill="#fff" d="M6.56 14.871H4.097V6.926H6.56v7.945Zm.245-10.477a1.442 1.442 0 1 0-2.883 0 1.442 1.442 0 0 0 2.883 0ZM15.77 10.5c0-2.133-.45-3.715-2.942-3.715-1.197 0-2.001.599-2.33 1.222h-.001V6.926H8.106v7.945h2.39v-3.945c0-1.033.264-2.034 1.544-2.034 1.263 0 1.304 1.182 1.304 2.1v3.88h2.426V10.5Zm3.164 5.39V2.11c0-1.164-.946-2.11-2.11-2.11H3.045C1.88 0 .933.946.933 2.11v13.78c0 1.164.946 2.11 2.11 2.11h13.78c1.164 0 2.11-.946 2.11-2.11Zm-2.11-14.484c.388 0 .704.316.704.703v13.782a.704.704 0 0 1-.703.703H3.043a.704.704 0 0 1-.703-.703V2.109c0-.387.316-.703.703-.703h13.782Z"/></svg>