<svg xmlns="http://www.w3.org/2000/svg" width="27" height="24" fill="none"><path fill="#00D8FF" d="M13.485 14.383a2.41 2.41 0 1 0-.001-4.819 2.41 2.41 0 0 0 .001 4.82Z"/><path fill="#00D8FF" d="M13.485 17.494c-3.383 0-6.34-.398-8.552-1.157-1.435-.49-2.654-1.142-3.522-1.886C.489 13.662 0 12.803 0 11.973 0 10.38 1.747 8.82 4.679 7.801c2.4-.835 5.528-1.301 8.801-1.301 3.215 0 6.301.451 8.686 1.277 1.396.48 2.572 1.104 3.407 1.796.907.758 1.387 1.589 1.387 2.4 0 1.656-1.953 3.332-5.101 4.374-2.227.74-5.202 1.147-8.374 1.147Zm0-9.842c-3.105 0-6.176.452-8.422 1.234-2.697.941-3.906 2.228-3.906 3.087 0 .893 1.3 2.3 4.15 3.274 2.093.716 4.924 1.095 8.178 1.095 3.052 0 5.898-.384 8.014-1.09 2.96-.984 4.314-2.39 4.314-3.279 0-.456-.345-.994-.974-1.517-.725-.605-1.78-1.157-3.042-1.594-2.27-.778-5.222-1.21-8.312-1.21Z"/><path fill="#00D8FF" d="M8.02 23.985c-.49 0-.922-.105-1.287-.317-1.377-.797-1.857-3.091-1.276-6.14.475-2.501 1.636-5.44 3.272-8.277 1.608-2.785 3.537-5.233 5.442-6.89 1.114-.97 2.241-1.68 3.259-2.054 1.108-.408 2.068-.408 2.769-.005 1.435.826 1.91 3.36 1.238 6.606-.475 2.305-1.608 5.084-3.192 7.835-1.689 2.929-3.512 5.291-5.273 6.832-1.143.999-2.318 1.729-3.393 2.108-.562.201-1.09.302-1.56.302ZM9.223 9.54l.499.288c-1.55 2.689-2.697 5.574-3.139 7.917-.532 2.808-.019 4.498.72 4.926.182.105.422.163.715.163.955 0 2.457-.605 4.194-2.122 1.666-1.455 3.408-3.72 5.034-6.539 1.526-2.645 2.611-5.305 3.062-7.49.629-3.058.086-4.93-.686-5.377-.394-.225-1.032-.197-1.8.087-.888.326-1.89.965-2.898 1.843-1.81 1.575-3.657 3.918-5.202 6.597l-.5-.293Z"/><path fill="#00D8FF" d="M18.951 24c-1.305 0-2.96-.787-4.688-2.276-1.93-1.66-3.892-4.133-5.534-6.97-1.612-2.785-2.764-5.68-3.248-8.162-.284-1.45-.336-2.78-.154-3.85.202-1.167.677-1.998 1.382-2.406 1.43-.83 3.863.024 6.34 2.228 1.756 1.56 3.599 3.932 5.187 6.678 1.694 2.928 2.831 5.689 3.282 7.984.293 1.488.341 2.87.135 3.994-.22 1.196-.72 2.046-1.44 2.463-.36.212-.787.317-1.262.317Zm-9.223-9.823c1.555 2.689 3.484 5.123 5.288 6.674 2.164 1.862 3.882 2.266 4.626 1.834.773-.447 1.339-2.276.754-5.233-.432-2.17-1.522-4.811-3.153-7.63-1.531-2.645-3.292-4.915-4.958-6.394C9.953 1.354 8.062.888 7.29 1.335c-.394.225-.686.797-.826 1.603-.158.931-.11 2.122.15 3.433.46 2.357 1.564 5.127 3.114 7.806Z"/></svg>