<svg xmlns="http://www.w3.org/2000/svg" width="27" height="16" fill="none"><path fill="#38BDF8" fill-rule="evenodd" d="M13.516.251c-3.422 0-5.56 1.722-6.417 5.167C8.383 3.695 9.88 3.05 11.591 3.48c.976.246 1.675.958 2.447 1.748C15.296 6.513 16.752 8 19.932 8c3.422 0 5.561-1.722 6.417-5.166-1.283 1.723-2.78 2.368-4.492 1.937-.976-.245-1.674-.958-2.447-1.747C18.154 1.738 16.698.251 13.517.251ZM7.1 8C3.677 8 1.54 9.722.683 13.166c1.283-1.722 2.78-2.368 4.491-1.937.977.245 1.675.958 2.447 1.747 1.258 1.285 2.714 2.773 5.895 2.773 3.423 0 5.562-1.722 6.417-5.166-1.283 1.722-2.78 2.368-4.492 1.938-.976-.247-1.674-.96-2.446-1.748C11.737 9.488 10.28 8 7.099 8Z" clip-rule="evenodd"/></svg>