<svg xmlns="http://www.w3.org/2000/svg" width="24" height="24" fill="none"><g clip-path="url(#a)"><path fill="#fff" d="M6.439 23.314.75.69l22.5 6.319"/><path stroke="#000" stroke-miterlimit="10" stroke-width=".48" d="m9.218 13.59 1.42 5.659M14.831 15.18l-5.613-1.59M10.639 19.249l4.192-4.07M10.639 19.249l-5.614-1.59M5.025 17.659l1.421 5.662 4.193-4.072M5.025 17.659l4.192-4.069M9.218 13.59l4.196-4.072M13.414 9.517l4.192-4.068M11.992 3.859l1.422 5.658M13.414 9.517 7.796 7.931M7.796 7.931l1.421 5.659M9.218 13.59 3.604 12M3.604 12l1.421 5.659M2.183 6.341l1.42 5.66M7.796 7.931l-5.613-1.59M3.604 12 7.796 7.93M7.796 7.927l4.196-4.068M11.992 3.859l-5.617-1.59M6.375 2.269l1.421 5.659M2.182 6.341.762.68l5.613 1.59M2.183 6.341 6.375 2.27M19.027 11.107 23.22 7.04l-5.614-1.59M17.606 5.449l1.421 5.659M19.028 11.108l-5.614-1.59M13.414 9.518l1.417 5.662M14.831 15.18l4.197-4.073M17.606 5.449l-5.614-1.59"/></g><defs><clipPath id="a"><path fill="#fff" d="M0 0h24v24H0z"/></clipPath></defs></svg>