<svg xmlns="http://www.w3.org/2000/svg" width="24" height="24" fill="none"><g clip-path="url(#a)"><path fill="#3178C6" d="M20.4 0H3.6A3.6 3.6 0 0 0 0 3.6v16.8A3.6 3.6 0 0 0 3.6 24h16.8a3.6 3.6 0 0 0 3.6-3.6V3.6A3.6 3.6 0 0 0 20.4 0Z"/><path fill="#fff" d="M10.922 13.313h3V11.39h-8.39v1.922h3v8.578h2.39v-8.578Zm3.937 8.109c.38.197.844.342 1.36.44a8.861 8.861 0 0 0 1.64.146c.563 0 1.078-.052 1.594-.16a4.043 4.043 0 0 0 1.313-.515c.38-.248.703-.563.89-.984.188-.422.333-.891.333-1.5 0-.427-.066-.797-.192-1.125a2.209 2.209 0 0 0-.563-.844 3.725 3.725 0 0 0-.843-.656 10.458 10.458 0 0 0-1.125-.563c-.31-.127-.563-.248-.844-.37a3.657 3.657 0 0 1-.61-.366 1.672 1.672 0 0 1-.398-.394.823.823 0 0 1-.14-.468c0-.16.041-.305.126-.436.085-.132.202-.24.352-.333.15-.094.337-.164.562-.216.22-.051.464-.075.75-.075.197 0 .403.015.61.044a5.209 5.209 0 0 1 1.313.366c.205.094.397.201.561.323v-2.203a5.784 5.784 0 0 0-1.171-.304 9.39 9.39 0 0 0-1.454-.099c-.562 0-1.078.061-1.593.178a3.707 3.707 0 0 0-1.313.563c-.38.253-.656.562-.89.984-.22.394-.329.844-.329 1.406 0 .704.202 1.313.61 1.782.403.515 1.031.89 1.828 1.265.323.131.61.263.89.39a4 4 0 0 1 .704.393c.201.136.36.286.468.445.118.16.179.347.179.563 0 .15-.037.29-.108.422a.923.923 0 0 1-.333.337c-.15.094-.333.169-.563.225a3.43 3.43 0 0 1-.796.08 4.25 4.25 0 0 1-1.5-.267 4.3 4.3 0 0 1-1.318-.724v2.25Z"/></g><defs><clipPath id="a"><path fill="#fff" d="M0 0h24v24H0z"/></clipPath></defs></svg>