<svg xmlns="http://www.w3.org/2000/svg" width="17" height="14" fill="none"><path fill="#fff" d="M11.454 2.073A2.215 2.215 0 0 0 9.24 4.248l-.022 1.203a.457.457 0 0 1-.52.445l-1.192-.162c-1.569-.214-3.072-.937-4.514-2.138-.457 2.528.435 4.28 2.584 5.631l1.334.84a.459.459 0 0 1 .026.758l-1.216.888c.724.045 1.41.013 1.98-.1 3.604-.72 6-3.43 6-7.905 0-.365-.773-1.635-2.246-1.635ZM7.712 4.22a3.743 3.743 0 0 1 6.405-2.563c.543-.003 1.005.134 2.039-.492-.256 1.252-.382 1.796-.928 2.544 0 5.838-3.588 8.676-7.228 9.403-2.497.498-6.127-.32-7.167-1.406.53-.042 2.684-.273 3.93-1.184C3.709 9.826-.484 7.36 2.271.725c1.294 1.51 2.605 2.54 3.934 3.084.885.363 1.102.355 1.507.411Z"/></svg>